<?xml version="1.0" encoding="utf-8"?>
<!-- Generator: Adobe Illustrator 24.0.0, SVG Export Plug-In . SVG Version: 6.00 Build 0)  -->
<svg version="1.1" id="barberia1" xmlns="http://www.w3.org/2000/svg" xmlns:xlink="http://www.w3.org/1999/xlink" x="0px" y="0px"
	 viewBox="0 0 1596.3 1413.6" style="enable-background:new 0 0 1596.3 1413.6;" xml:space="preserve">
<style type="text/css">
	.st0{fill:#ECB05B;}
	.st1{fill:#D29646;}
	.st2{fill:#BE823C;}
	.st3{fill:#E1A454;}
	.st4{fill:#E4A267;}
	.st5{fill:#E4DCD1;}
	.st6{fill:#C9B8B1;}
	.st7{fill:#F1EBE4;}
	.st8{fill:#8E480E;}
	.st9{fill:#5E2B02;}
	.st10{fill:#713802;}
	.st11{fill:#84B2DE;}
	.st12{fill:#C8C8C8;}
	.st13{fill:#D2D2D2;}
	.st14{fill:#6F6868;}
	.st15{fill:#605858;}
	.st16{fill:#514747;}
	.st17{fill:#D6DADA;}
	.st18{fill:#EAE8E8;}
	.st19{fill:#C9C9C9;}
	.st20{fill:#D5D9D9;}
	.st21{fill:#E21C24;}
	.st22{fill:#1C75B1;}
	.st23{fill:none;}
	.st24{fill:#E7E8E9;}
	.st25{fill:#484A50;}
	.st26{fill:#5E6364;}
	.st27{fill:#323438;}
	.st28{fill:#F1F2FF;}
	.st29{fill:#68B7BC;}
	.st30{fill:#868787;}
	.st31{fill:#F4C040;}
	.st32{fill:#F0A540;}
	.st33{fill:#CD8E36;}
	.st34{fill:url(#SVGID_1_);}
	.st35{fill:#80553A;}
	.st36{fill:#74462E;}
	.st37{fill:#80BA75;}
	.st38{fill:#89C180;}
	.st39{fill:#4F9C6A;}
	.st40{fill:#A8CEDD;}
	.st41{fill:#D8E6EF;}
	.st42{fill:#58595B;}
	.st43{fill:#414042;}
	.st44{fill:#757677;}
	.st45{fill:#CADDE6;}
	.st46{fill:#E3EEF3;}
	.st47{fill:#ACC9D6;}
	.st48{fill:#766B6B;}
	.st49{fill:#E6E7E8;}
	.st50{fill:#96799E;}
	.st51{fill:#B89ABF;}
	.st52{fill:#D1B9D6;}
	.st53{fill:#B2B4B6;}
	.st54{fill:#A8723F;}
	.st55{fill:#BF8252;}
	.st56{fill:#D79D66;}
	.st57{fill:#92C1CF;}
	.st58{fill:#A8D1E1;}
	.st59{fill:#C0E3F4;}
	.st60{fill:#DE3C02;}
	.st61{fill:#A2366D;}
	.st62{fill:#005981;}
	.st63{fill:#007492;}
	.st64{fill:#2C3C73;}
	.st65{fill:#942356;}
	.st66{fill:#781544;}
	.st67{fill:#611F39;}
	.st68{fill:#772C48;}
	.st69{fill:#4D0026;}
	.st70{fill:#888A8D;}
	.st71{fill:#9C9EA1;}
	.st72{fill:#C6C8C9;}
	.st73{fill:#CDC7C7;}
	.st74{fill:#D5CFCF;}
	.st75{fill:#B1B1B1;}
	.st76{fill:#BCBCBC;}
	.st77{fill:#509B9B;}
	.st78{fill:#398592;}
	.st79{fill:#F2F3FF;}
	.st80{fill:url(#SVGID_2_);}
</style>
<g id="contenedorBarberia1">
	<polygon class="st0" points="857.1,1377.8 1596.3,947.7 739.1,453.2 0,879.5 	"/>
	<polygon class="st1" points="857.1,1377.8 857.1,1413.6 1596.3,983.5 1596.3,947.7 	"/>
	<polygon class="st2" points="0,879.5 0,915.3 857.1,1413.6 857.1,1377.8 	"/>
	<polygon class="st3" points="1568.1,964.1 1596.3,947.7 739.1,453.2 710.8,469.5 	"/>
	<polygon class="st4" points="1540,980.5 1568.2,964.1 711,469.5 682.6,485.9 	"/>
	<polygon class="st3" points="1483.7,1013.3 1511.9,996.9 654.7,502.3 626.3,518.7 	"/>
	<polygon class="st4" points="1455.6,1029.7 1483.8,1013.3 626.5,518.7 598.2,535.1 	"/>
	<polygon class="st3" points="1399.3,1062.5 1427.5,1046.1 570.2,551.5 541.9,567.9 	"/>
	<polygon class="st4" points="1371.1,1078.9 1399.3,1062.5 542.1,567.9 513.8,584.3 	"/>
	<polygon class="st3" points="1314.8,1111.7 1343,1095.3 485.8,600.7 457.5,617 	"/>
	<polygon class="st4" points="1286.7,1128.1 1314.9,1111.7 457.6,617.1 429.3,633.5 	"/>
	<polygon class="st3" points="1230.4,1160.8 1258.6,1144.4 401.4,649.9 373,666.2 	"/>
	<polygon class="st4" points="1202.2,1177.2 1230.4,1160.8 373.2,666.3 344.9,682.6 	"/>
	<polygon class="st3" points="1145.9,1210 1174.2,1193.6 316.9,699.1 288.6,715.4 	"/>
	<polygon class="st4" points="1117.8,1226.4 1146,1210 288.8,715.5 260.4,731.8 	"/>
	<polygon class="st3" points="1061.5,1259.2 1089.7,1242.8 232.5,748.3 204.1,764.6 	"/>
	<polygon class="st4" points="1033.4,1275.6 1061.6,1259.2 204.3,764.7 176,781 	"/>
	<polygon class="st3" points="977.1,1308.4 1005.3,1292 148,797.5 119.7,813.8 	"/>
	<polygon class="st4" points="948.9,1324.8 977.1,1308.4 119.9,813.8 91.6,830.2 	"/>
	<polygon class="st3" points="892.6,1357.6 920.8,1341.2 63.6,846.6 35.3,863 	"/>
	<polygon class="st4" points="864.5,1374 892.7,1357.6 35.5,863 7.1,879.4 	"/>
	<polygon class="st5" points="715.3,15.5 1569.6,508.6 1569.6,963.7 715.3,467 	"/>
	<polygon class="st6" points="1569.6,508.6 1596.3,493 1596.3,948.1 1569.6,963.7 	"/>
	<polygon class="st7" points="715.3,15.5 742.1,0 1596.3,493 1569.6,508.6 	"/>
	<polygon class="st6" points="742.1,31 26.8,440.2 26.8,895.2 742.1,482.5 	"/>
	<polygon class="st5" points="26.8,440.2 0,424.6 0,879.6 26.8,895.2 	"/>
	<polygon class="st7" points="742.1,31 715.3,15.5 0,424.6 26.8,440.2 	"/>
	<polygon class="st7" points="563.1,480.3 631.5,440.9 674.4,465.8 563.1,530.1 	"/>
	<polygon class="st6" points="674.4,95.7 674.4,465.8 631.5,440.9 631.5,120.5 	"/>
	<polygon class="st8" points="563.1,499 563.1,514.6 674.4,450.4 660.9,442.5 	"/>
	<polygon class="st9" points="563.1,514.6 563.1,530.1 674.4,465.8 674.4,450.4 	"/>
	<polygon class="st10" points="661.7,103.1 661.7,457.8 648.2,450 648.2,110.8 	"/>
	<polygon class="st9" points="661.7,103.1 661.7,457.8 674.4,450.4 674.4,95.7 	"/>
	<polygon class="st9" points="563.1,159.8 563.1,175.2 674.4,110.9 674.4,95.5 	"/>
	<polygon class="st9" points="563.1,159.9 563.1,514.6 575.8,507.2 575.8,152.6 	"/>
	<polygon class="st11" points="575.8,491.7 648.2,449.8 648.2,126.1 575.8,167.8 	"/>
	<polygon class="st7" points="331.1,613.2 399.6,573.8 442.5,598.7 331.1,662.9 	"/>
	<polygon class="st6" points="442.5,228.6 442.5,598.7 399.6,573.8 399.6,253.3 	"/>
	<polygon class="st8" points="331.2,631.8 331.1,647.5 442.5,583.2 429,575.4 	"/>
	<polygon class="st9" points="331.1,647.5 331.1,662.9 442.5,598.6 442.5,583.2 	"/>
	<polygon class="st10" points="429.8,235.9 429.8,590.7 416.3,582.8 416.3,243.7 	"/>
	<polygon class="st9" points="429.8,235.9 429.8,590.7 442.5,583.3 442.5,228.6 	"/>
	<polygon class="st9" points="331.1,292.6 331.1,308.1 442.5,243.8 442.5,228.4 	"/>
	<polygon class="st9" points="331.2,292.8 331.2,647.5 343.9,640.1 343.9,285.4 	"/>
	<polygon class="st11" points="343.9,624.5 416.3,582.7 416.3,259 343.9,300.7 	"/>
	<polygon class="st7" points="99.2,746 167.6,706.6 210.6,731.5 99.2,795.8 	"/>
	<polygon class="st6" points="210.6,361.4 210.6,731.5 167.6,706.6 167.6,386.2 	"/>
	<polygon class="st8" points="99.3,764.7 99.2,780.3 210.6,716.1 197,708.2 	"/>
	<polygon class="st9" points="99.2,780.3 99.2,795.8 210.6,731.5 210.6,716.1 	"/>
	<polygon class="st10" points="197.8,368.8 197.8,723.5 184.4,715.7 184.4,376.5 	"/>
	<polygon class="st9" points="197.8,368.8 197.8,723.5 210.6,716.1 210.6,361.4 	"/>
	<polygon class="st9" points="99.2,425.5 99.2,440.9 210.6,376.6 210.6,361.2 	"/>
	<polygon class="st9" points="99.3,425.6 99.3,780.3 112,772.9 112,418.3 	"/>
	<polygon class="st11" points="112,757.4 184.3,715.5 184.3,391.8 112,433.5 	"/>
	<polygon class="st12" points="1066.1,1158.9 1066.1,1246.5 1115.2,1218.3 1122.3,1126.6 	"/>
	<polygon class="st12" points="1122.3,1126.6 1066.1,1158.9 1009.6,1126.3 1065.8,1094 	"/>
	<polygon class="st13" points="1066.1,1158.9 1066.1,1246.5 1019.2,1219.4 1009.6,1126.3 	"/>
	<path class="st14" d="M1065.8,1094l-56.2,32.3l56.5,32.6l56.2-32.3L1065.8,1094z M1019.5,1126.4l46.3-26.7l46.7,26.9l-46.3,26.7
		L1019.5,1126.4z"/>
	<polygon class="st13" points="1065.8,1099.7 1066.1,1153.3 1112.4,1126.6 	"/>
	<polygon class="st15" points="1009.6,1126.3 1066.1,1158.9 1065.8,1172.6 1011.3,1142.5 	"/>
	<polygon class="st16" points="1065.8,1172.6 1121.2,1141.1 1122.3,1126.6 1066.1,1158.9 	"/>
	<polygon class="st16" points="1019.5,1126.3 1030.8,1132.9 1066,1112.3 1065.8,1099.7 	"/>
	<polygon class="st15" points="1066,1112.3 1101.9,1132.6 1112.4,1126.6 1065.8,1099.7 	"/>
	<polygon class="st17" points="86.7,504.6 86.7,516 44,491.3 44,479.9 	"/>
	<polygon class="st18" points="44,479.9 86.7,504.6 95.9,499.3 53.1,474.6 	"/>
	<polygon class="st19" points="86.7,504.6 86.7,516 95.9,510.7 95.9,499.3 	"/>
	<polygon class="st17" points="86.7,618.9 86.7,630.3 44,605.5 44,594.2 	"/>
	<polygon class="st18" points="44,594.2 86.7,618.9 95.9,613.5 53.1,588.9 	"/>
	<polygon class="st19" points="86.7,618.9 86.7,630.3 95.9,624.9 95.9,613.5 	"/>
	<path class="st20" d="M60.6,472.9v159c0,4.4,10,8,22.3,8s22.3-3.6,22.3-8v-159H60.6z"/>
	<path class="st12" d="M82.9,639.9c12.3,0,22.3-3.6,22.3-8v-159H82.9V639.9z"/>
	<path class="st18" d="M105.1,472.9c0,4.4-10,8-22.3,8s-22.3-3.6-22.3-8s10-8,22.3-8S105.1,468.5,105.1,472.9z"/>
	<path class="st21" d="M82.9,508.8c10.5,0,19.4-2.4,22.3-5.7v-17.7c0,4.4-10,8-22.3,8s-22.3-3.6-22.3-8v17.7
		C63.5,506.4,72.3,508.8,82.9,508.8z"/>
	<path class="st22" d="M82.9,538.4c10.5,0,19.4-2.4,22.3-5.7V515c0,4.4-10,8-22.3,8s-22.3-3.6-22.3-8v17.7
		C63.5,536,72.3,538.4,82.9,538.4z"/>
	<path class="st21" d="M82.9,568c10.5,0,19.4-2.4,22.3-5.7v-17.8c0,4.4-10,8-22.3,8s-22.3-3.6-22.3-8v17.7
		C63.5,565.6,72.3,568,82.9,568z"/>
	<path class="st22" d="M82.9,597.6c10.5,0,19.4-2.4,22.3-5.7v-17.7c0,4.4-10,8-22.3,8s-22.3-3.6-22.3-8v17.7
		C63.5,595.2,72.3,597.6,82.9,597.6z"/>
	<path class="st21" d="M82.9,627.2c10.5,0,19.4-2.4,22.3-5.7v-17.7c0,4.4-10,8-22.3,8s-22.3-3.6-22.3-8v17.7
		C63.5,624.8,72.3,627.2,82.9,627.2z"/>
	<path class="st18" d="M82.9,464.9c-12.3,0-22.3,3.6-22.3,8s10,8,22.3,8s22.3-3.6,22.3-8S95.2,464.9,82.9,464.9z M97.9,476.6
		c-4.8,1.6-9.9,2.3-15,2.2c-5.1,0.1-10.2-0.7-15-2.2c-3.5-1.3-5.1-2.8-5.1-3.7s1.6-2.4,5.1-3.7c4.8-1.6,9.9-2.3,15-2.2
		c5.1-0.1,10.2,0.7,15,2.2c3.5,1.3,5.1,2.8,5.1,3.7S101.4,475.3,97.9,476.6L97.9,476.6z"/>
	<path class="st23" d="M67.8,476.6c4.8,1.6,9.9,2.3,15,2.2c5.1,0.1,10.2-0.7,15-2.2c2.8-1,4.3-2.1,4.9-3c-0.6-0.9-2.1-2-4.9-3
		c-4.8-1.6-9.9-2.3-15-2.2c-5.1-0.1-10.2,0.7-15,2.2c-2.8,1-4.3,2.1-4.9,3C63.5,474.5,65.1,475.6,67.8,476.6z"/>
	<path class="st12" d="M67.8,470.6c4.8-1.6,9.9-2.3,15-2.2c5.1-0.1,10.2,0.7,15,2.2c2.8,1,4.3,2.1,4.9,3c0.1-0.2,0.2-0.4,0.2-0.6
		c0-0.9-1.6-2.4-5.1-3.7c-4.8-1.6-9.9-2.3-15-2.2c-5.1-0.1-10.2,0.7-15,2.2c-3.5,1.3-5.1,2.8-5.1,3.7c0,0.2,0.1,0.5,0.2,0.6
		C63.5,472.7,65.1,471.6,67.8,470.6z"/>
	<polygon class="st24" points="547,205.4 471.8,248.6 471.8,387.3 547,344 	"/>
	<polygon class="st25" points="465.9,245.2 471.8,248.6 471.8,387.3 465.9,383.9 	"/>
	<polygon class="st26" points="465.9,245.2 471.8,248.6 547,205.4 541.1,202 	"/>
	<path class="st27" d="M471.8,248.6v138.7L547,344V205.4L471.8,248.6z M537.3,338.5l-55.9,32.2V254.2l55.9-32.2V338.5z"/>
	<polygon class="st26" points="481.4,366.5 481.4,370.7 537.3,338.5 533.7,336.4 	"/>
	<polygon class="st25" points="533.7,224.1 537.3,222 537.3,338.5 533.7,336.4 	"/>
	<path class="st27" d="M487.8,340.2c0.1-2.5,1.2-5.7,2.1-8.5c0.5-1.5,0.9-2.7,1-3c0.6-2.2-1.8-11.2-1.9-13c0-0.2,0.1-0.3,0.2-0.4
		c0.3-0.2,0.6-0.4,0.9-0.6l0.4-0.2c0.7-0.4,1.5-1.6,2.2-2.2l0.2-0.2h-0.4c-1.2,0.2-2.4,0.6-3.5,1.2c-0.4,0.2-0.5,0.1-0.6-0.2
		c-0.2-1.3,0-2.7,0.4-4c0.2-0.5,0.5-0.9,1-1.1c2.5-1.2,4.2,0.3,6.4,0.4c0.5,0,0.9-0.1,1.4-0.2c0.5-2.3,1.4-4.5,2.7-6.4
		c0.5-0.8,1-1.5,1.6-2.2c0.2-0.3,0.5-0.6,0.8-0.9s4.4-6.4,3.1-10.3s-4.1-3.1-4.2-3c0.2-0.4,3.3-7.1,0.9-7.6c-0.8-0.2-2.3,0.5-4,1.5
		c-2.8,1.7-5.4,3.5-8,5.5c-0.1,0.1-0.7-0.9-0.8-0.9c-0.6-0.8-0.9-1.8-1-2.8c-0.6-6.2,7.7-12.3,11.7-15.2c1.5-1,3-2,4.6-3
		c5-2.9,10.3-4.9,14.3-4.2c2.9,0.5,6.6,1.6,8.4,3.8c-0.6,0.5-1.1,1.1-1.5,1.7c-2.5,3-3.5,7.3-2.6,9.8c0.4,0.9,0.7,1.8,0.8,2.8
		c0,0.9-0.1,1.7-0.3,2.6c-0.7,3.8-2.2,7.9-2.3,11.5c-0.1,1.6,0.1,2.9,1,3.6c0.3,0.2,0.6,0.3,0.9,0.4c-0.3,0.1-0.6,0.2-0.9,0.3
		c-1.6,0.3-2.6-0.5-3.2-1.9c-0.6-1.6-0.7-3.4-0.5-5.1c0.1-1.3,0.3-2.5,0.5-3.8c0.3-2.8-1.1-4.7-3.3-4.3c-0.5,0.1-0.9,0.3-1.3,0.5
		c-1,0.7-1.9,1.5-2.6,2.5c-1.3,1.7-1.3,3-1.8,5c-0.4,2-0.3,4,0.1,6c0.3,0.5,5,9.5,5.2,10.8c0.3,2.2-4.3,5.6-5,8.1
		c-1.6,5.3,0.9,10.7-3,14.7c-4.3,4.4-9.1,8.3-14.3,11.6c-1.6,1-3.4,1.7-5.2,2c-0.1,0-0.3,0-0.4-0.1
		C487.9,340.5,487.8,340.3,487.8,340.2z"/>
	<polygon class="st24" points="315.3,339 240.1,382.2 240.1,520.9 315.3,477.6 	"/>
	<polygon class="st25" points="234.3,378.8 240.1,382.2 240.1,520.9 234.3,517.5 	"/>
	<polygon class="st26" points="234.3,378.8 240.1,382.2 315.3,339 309.5,335.5 	"/>
	<path class="st27" d="M240.1,382.2v138.7l75.2-43.3V339L240.1,382.2z M305.7,472.1l-55.9,32.2V387.8l55.9-32.2V472.1z"/>
	<polygon class="st26" points="249.8,500.1 249.8,504.3 305.7,472.1 302.1,470 	"/>
	<polygon class="st25" points="302.1,357.7 305.7,355.6 305.7,472.1 302.1,470 	"/>
	<path class="st27" d="M256.2,474.6c0.1-2.5,1.2-5.7,2.1-8.5c0.5-1.5,0.9-2.7,1-3c0.6-2.2-1.8-11.2-1.9-13c0-0.2,0.1-0.3,0.2-0.4
		c0.3-0.2,0.6-0.4,0.9-0.6l0.4-0.2c0.7-0.4,1.4-1.6,2.2-2.2l0.2-0.2h-0.4c-1.2,0.2-2.4,0.6-3.5,1.2c-0.4,0.2-0.5,0.1-0.6-0.2
		c-0.2-1.3,0-2.7,0.4-4c0.2-0.5,0.5-0.9,1-1.1c2.5-1.2,4.2,0.3,6.4,0.4c0.5,0,0.9-0.1,1.4-0.2c0.5-2.3,1.4-4.5,2.7-6.4
		c0.5-0.8,1-1.5,1.6-2.2c0.3-0.3,0.5-0.6,0.8-0.9s4.4-6.4,3.1-10.3s-4.1-3.1-4.2-3c0.2-0.4,3.3-7.1,0.9-7.6c-0.8-0.2-2.3,0.5-4,1.5
		c-2.8,1.7-5.4,3.5-8,5.5c-0.2,0.1-0.7-0.9-0.8-0.9c-0.6-0.8-0.9-1.8-1-2.8c-0.6-6.2,7.7-12.3,11.8-15.2c1.5-1,3-2,4.6-3
		c5-2.9,10.3-4.9,14.3-4.2c2.9,0.5,6.6,1.6,8.4,3.8c-0.6,0.5-1.1,1.1-1.5,1.7c-2.5,3-3.5,7.3-2.5,9.8c0.4,0.9,0.7,1.8,0.9,2.8
		c0,0.9-0.1,1.7-0.3,2.6c-0.7,3.8-2.2,7.9-2.3,11.5c-0.1,1.6,0.1,2.9,1,3.6c0.3,0.2,0.6,0.3,0.9,0.4c-0.3,0.1-0.6,0.2-0.9,0.3
		c-1.4,0.3-2.8-0.5-3.2-1.9c-0.6-1.6-0.7-3.4-0.5-5.1c0.1-1.3,0.4-2.5,0.5-3.8c0.3-2.8-1.1-4.7-3.3-4.3c-0.5,0.1-0.9,0.3-1.3,0.5
		c-1,0.6-1.9,1.5-2.6,2.5c-1.3,1.7-1.3,3-1.8,5c-0.4,2-0.4,4,0.1,6c0.3,0.5,5,9.5,5.2,10.8c0.3,2.2-4.3,5.6-5,8.1
		c-1.6,5.3,0.9,10.7-3,14.7c-4.3,4.4-9.1,8.3-14.3,11.6c-1.6,1-3.4,1.7-5.2,2c-0.1,0-0.3,0-0.4-0.1
		C256.2,474.9,256.2,474.8,256.2,474.6z"/>
	<polygon class="st13" points="857.2,1268.3 857.2,1378.2 780.3,1333.2 780.3,1224 	"/>
	<polygon class="st18" points="780.3,1224 857.2,1268.3 1055.2,1154.4 978.5,1109.6 	"/>
	<polygon class="st12" points="857.2,1268.3 857.2,1378.2 1055.2,1263.3 1055.2,1154.4 	"/>
	<polygon class="st25" points="857.2,1251.1 857.2,1268.3 780.3,1224 780.3,1207.3 	"/>
	<polygon class="st26" points="780.3,1207.3 857.2,1251.1 1055.2,1138.2 978.5,1094 	"/>
	<polygon class="st27" points="857.2,1251.1 857.2,1268.3 1055.2,1154.4 1055.2,1138.2 	"/>
	<polygon class="st28" points="878.4,1158.2 943.1,1195.9 1039.7,1139.6 975.2,1102.3 	"/>
	<polygon class="st29" points="920,1140.8 974.9,1109.1 1027.6,1139.5 972.8,1171.3 	"/>
	<polygon class="st12" points="974.9,1109.1 974.9,1129.7 938,1151.2 920,1140.8 	"/>
	<polygon class="st20" points="974.9,1109.1 974.9,1129.7 1009.7,1149.9 1027.6,1139.5 	"/>
	<polygon class="st29" points="891.3,1157.3 915.3,1143.5 968,1173.9 944.2,1187.8 	"/>
	<polygon class="st12" points="915.3,1143.5 915.3,1164.1 909.4,1167.7 891.3,1157.3 	"/>
	<polygon class="st20" points="915.3,1143.5 915.3,1164.1 950,1184.3 968,1173.9 	"/>
	<polygon class="st30" points="999.9,1135.9 999.9,1139.9 1003.8,1137.6 1003.8,1133.6 	"/>
	<polygon class="st31" points="1003.8,1133.6 999.9,1135.9 973.5,1120.7 977.4,1118.4 	"/>
	<polygon class="st32" points="999.9,1135.9 999.9,1139.9 973.5,1124.6 973.5,1120.7 	"/>
	<polygon class="st33" points="1003.5,1137.9 1003.5,1157.8 1007.3,1155.6 1007.3,1135.7 	"/>
	<polygon class="st31" points="1007.3,1135.7 1003.5,1137.9 999.8,1135.8 1003.7,1133.6 	"/>
	<polygon class="st32" points="1003.5,1137.9 1003.5,1157.8 999.8,1155.7 999.8,1135.8 	"/>
	<polygon class="st20" points="95.5,852.8 95.5,916.4 55.8,893.3 46.6,824.3 	"/>
	
		<linearGradient id="SVGID_1_" gradientUnits="userSpaceOnUse" x1="-2458.3894" y1="572.3208" x2="-2544.4595" y2="614.2708" gradientTransform="matrix(1 0 0 -1 2585.29 1414)">
		<stop  offset="0" style="stop-color:#A4AC66"/>
		<stop  offset="0.29" style="stop-color:#A0AA67"/>
		<stop  offset="0.6" style="stop-color:#93A369"/>
		<stop  offset="0.92" style="stop-color:#7E986C"/>
		<stop  offset="1" style="stop-color:#77956D"/>
	</linearGradient>
	<polygon class="st34" points="46.6,824.3 95.5,852.8 141.4,826.2 91.9,798.2 	"/>
	<polygon class="st12" points="95.5,852.8 95.5,916.4 133.6,894.4 141.4,826.2 	"/>
	<path class="st28" d="M91.9,798.2l-45.3,26.1l48.8,28.4l45.9-26.5L91.9,798.2z M95.4,848.1l-40.9-23.8l37.3-21.5l41.6,23.5
		L95.4,848.1z"/>
	<polygon class="st35" points="95.4,801.3 95.4,831.8 82.9,824.6 82.9,794.1 	"/>
	<polygon class="st36" points="95.4,801.3 95.4,831.8 108.1,824.5 108.1,794 	"/>
	<polygon class="st37" points="95.4,768.4 95.4,821.7 61.2,802 61.2,748.7 	"/>
	<polygon class="st38" points="61.2,748.7 95.4,768.4 129.8,748.6 95.6,728.9 	"/>
	<polygon class="st39" points="95.4,768.4 95.4,821.7 129.8,801.8 129.8,748.6 	"/>
	<polygon class="st10" points="1017.4,610.5 1035.3,620.9 1035.2,709.5 1017.4,698.7 	"/>
	<polygon class="st9" points="1035.3,620.9 1083.3,593 1083.3,681.6 1035.2,709.5 	"/>
	<polygon class="st8" points="1017.4,610.5 1065.7,582.7 1083.3,593 1035.3,620.9 	"/>
	<polygon class="st10" points="709.6,431.2 727.5,441.6 727.4,530.1 709.6,519.3 	"/>
	<polygon class="st9" points="727.5,441.6 775.5,413.7 775.5,502.2 727.4,530.1 	"/>
	<polygon class="st8" points="709.6,431.2 757.9,403.3 775.5,413.7 727.5,441.6 	"/>
	<polygon class="st10" points="709.6,404.8 1035.3,594.1 1035.2,620.9 709.6,431.2 	"/>
	<polygon class="st9" points="1035.3,594.1 1083.3,566.2 1083.3,593 1035.2,620.9 	"/>
	<polygon class="st8" points="709.6,404.8 757.9,376.9 1083.3,566.2 1035.3,594.1 	"/>
	<polygon class="st40" points="750.3,196.1 1077.2,384.7 1077.2,569.7 750.3,381.1 	"/>
	<polygon class="st9" points="1083.3,381.2 1077.2,384.7 1077.2,569.7 1083.3,566.2 	"/>
	<polygon class="st8" points="1083.3,381.2 1077.2,384.7 750.3,196.1 756.4,192.5 	"/>
	<path class="st10" d="M750.3,196.1v185l326.9,188.6v-185L750.3,196.1z M760.3,213.4l306.9,177.1v161.9L760.3,375.3L760.3,213.4z"/>
	<polygon class="st8" points="1067.2,548.1 1067.2,552.4 760.3,375.3 764,373.1 	"/>
	<polygon class="st9" points="764.1,215.5 760.3,213.4 760.3,375.3 764.1,373.1 	"/>
	<polygon class="st41" points="764.1,215.5 1067.2,390.5 764.1,373.1 	"/>
	<polygon class="st27" points="1169,326.2 1169,780.1 1211.2,755.4 1211.2,301.8 	"/>
	<polygon class="st26" points="1211.2,301.8 1169,326.2 1060.4,263.7 1102.4,239.1 	"/>
	<polygon class="st25" points="1169,326.2 1169,780.1 1060.4,717.1 1060.4,263.7 	"/>
	<polygon class="st24" points="1072.6,337.6 1147.8,380.9 1147.8,519.5 1072.6,476.3 	"/>
	<polygon class="st9" points="1153.6,377.5 1147.8,380.9 1147.8,519.5 1153.6,516.1 	"/>
	<polygon class="st8" points="1153.6,377.5 1147.8,380.9 1072.6,337.6 1078.4,334.2 	"/>
	<path class="st10" d="M1072.6,337.6v138.7l75.2,43.3V380.9L1072.6,337.6z M1082.2,354.3l55.9,32.2v116.5l-55.9-32.2V354.3z"/>
	<polygon class="st8" points="1138.1,498.7 1138.1,502.9 1082.2,470.7 1085.8,468.6 	"/>
	<polygon class="st9" points="1085.8,356.3 1082.2,354.3 1082.2,470.7 1085.8,468.6 	"/>
	<path class="st27" d="M1133,432.8c-0.2-0.9-0.8-1.8-1.6-2.2c-0.5-0.2-1-0.3-1.5-0.1c0.8-6.1-0.8-15.4-1.6-19c0.4-3-0.3-6.1-1.8-8.7
		c0.9,0.2,1.7,0.6,2.5,1c-1.8-2.6-4.1-4.8-6.8-6.5c0.8-0.6,4,0.9,4.2,1c-1.4-1.3-2.8-2.4-4.5-3.3c-1.6-0.9-3.2-1.7-4.9-2.2
		c1.1-1.3,5,0.1,5.3,0.2c-0.9-0.7-1.8-1.2-2.6-1.7c-5.6-3.2-8.2-2.3-8.3-2.2c0.4-1.4,3.2-1.9,3.3-2c-6.4-1.7-10-0.7-10.2-0.6
		c0.8-1.3,2.9-1.4,3-1.5c-10.1-3.1-11.5,4.6-11.5,4.7c-0.2,1-0.3,1.9-0.2,2.9c-0.8,3-2.4,10.5-1.7,17.3c-0.5-0.7-1.1-1.3-1.7-1.8
		c-0.7-0.4-1.2-0.2-1.4,0.5c-0.1,0.2-0.1,0.5-0.1,0.7c0,0.4,0,0.9,0.1,1.3c0.1,0.7,0.2,1.3,0.3,2s0.3,1.4,0.5,2.1s0.5,1.6,0.8,2.5
		c0.3,0.9,0.6,1.7,0.8,2.6c0.3,1.4,0.8,2.7,1.4,4c0,1-0.1,1.9-0.2,2.7c0.1,0.7,1.6,13.5,1.4,19.7c1.2,0,2.2-0.8,2.4-2
		c1,3.2,1.6,6.5,1.8,9.9c0.9-0.4,1.6-1.1,2-1.9c0.1,0.3,2.8,6.7,3,11.2c1-1.9,1.6-4,1.5-6.2c0.3,0.6,5,12.2,5.1,14.8
		c0.2-2.4,5-8.5,5.2-8.9c-0.3,2.5,1.3,7.6,1.4,7.9c0.2-2.8,1.3-5.5,3-7.7c0.5,1.5,1.2,2.9,2,4.3c0.1-2.7,0.7-5.3,1.9-7.7
		c0.4,1.8,1.2,3.4,2.4,4.8c-0.2-6.5,1.4-17.2,1.5-17.7c-0.1-1-0.2-2.1-0.2-3.3c0.6-0.7,1.1-1.4,1.4-2.3c0.2-0.6,0.5-1.1,0.8-1.7
		c0.3-0.5,0.5-1,0.8-1.6c0.2-0.5,0.4-1,0.5-1.5c0.2-0.5,0.3-1.1,0.3-1.6c0.1-0.4,0.1-0.8,0.1-1.2C1133.1,433.3,1133,433,1133,432.8z
		 M1098.8,407.4l-0.8-3.8l1-6.8c3.5,4.8,7.9,8.8,12.9,11.9c8.3,4.5,12.7,3.1,13,3l1,7.9l-0.8,2.9l1.2,2.1c-0.7-0.5-1.6-1-2.7-1.6
		c-3-1.8-7-3.7-9.9-3.6c-0.6-0.1-1.2-0.3-1.8-0.6c-0.6-0.4-1.2-0.9-1.8-1.4c-2.9-3.1-6.2-5.8-9.9-7.8c-1-0.6-1.9-1.1-2.7-1.4
		L1098.8,407.4z M1094,420.4c-0.4-1.2-0.8-2.4-1.3-3.5c-0.2-0.4-0.4-0.9-0.5-1.3s-0.2-1-0.3-1.4c-0.3-1.4-0.6-2.7-0.7-4.1
		c-0.1-0.9,0-2,0.9-1.7l0.2,0.1c0.2,0.2,0.5,0.3,0.7,0.5c0.5,0.5,0.9,1,1.2,1.6c0,0.4,0.1,0.7,0.2,1c0,0,0,0.4,0.1,1
		c-0.2-0.4-0.5-0.8-0.8-1.2c0.2,0.9,0.5,1.7,0.9,2.5l-0.3,0.1l0,0c-0.3,0-1,0-1,0.5c-0.1,0.7,0,1.3,0.1,2c0,0,0,0.1,0.1,0.1
		c0.1,0,0.1-0.1,0.2-0.1s0.3-0.4,0.4-0.3s0.1,0.1,0.1,0.2c0.1,0.7,0.2,1.3,0.4,1.9c0.1,0.3,0.2,0.6,0.3,0.9v0.1c0,1,0,1.9,0,2.9
		C1094.5,421.6,1094.2,421,1094,420.4z M1112,445.5c-3.6-2.1-7.5-6.6-7.8-6.8c1.8,0.5,3.7,0.5,5.5,0.1c0.4-0.1,0.8,0,1.1,0.2
		c0.3,0.1,0.5,0.3,0.8,0.5l0.2,0.1c0.2,0.1,0.4,0.2,0.7,0.3c0.2,0.1,0.5,0.2,0.7,0.3c0.5,0.3,0.9,0.6,1.2,1.1
		c1.6,2.2,3.4,4.3,5.4,6.2C1117,447.6,1114.3,446.8,1112,445.5L1112,445.5z M1127.9,437.9c-0.2,0.3-3.7,6.1-4.9,7.1
		c-0.2,0.2-0.6,0.2-0.9,0c-1.6-0.9-4.1-4.8-5.9-6.9c-0.5-0.6-1.1-1.1-1.8-1.5c-0.7-0.5-1.6-0.7-2.4-0.5c-0.6-0.9-1.4-1.7-2.4-2.3
		c-0.5-0.3-1.1-0.5-1.7-0.5c-1.8,0-4.4,1-5.9,0.1c-0.4-0.2-0.7-0.6-0.9-1c-1.2-2.5-4.7-12.2-4.9-12.8l-0.6-8.5l0.6-1.6l0.2,0.3
		c0.9,2.5,1.5,5.1,1.9,7.8c0.5,2.9,1.8,3.7,1.8,3.8c1.7,1.3,3.4,2.5,5.3,3.6l0.8,0.5c3,1.4,4.4-3.8,4.5-4.1c0.3-0.8,0.7-1,1-1.1
		c0.1,0,0.2,0,0.3,0.1c0.1,0.1,0.3,0.2,0.3,0.3c0.5,0.7,0.8,1.4,1,2.2c0.1,0.4,1.5,7.2,4.5,9.3l0.8,0.5c1.7,1,3.5,1.9,5.3,2.6
		c0.1,0,1.3,0.6,1.9-1.6s1.2-4.8,1.9-5.6h0.2l0.5,2.3L1127.9,437.9z M1132.9,434c-0.1,1.1-0.4,2.2-0.7,3.3c-0.1,0.3-0.2,0.7-0.3,1
		c-0.1,0.3-0.3,0.5-0.5,0.8c-0.5,0.6-0.9,1.3-1.3,2c-0.2,0.3-0.4,0.6-0.8,0.8c0-1,0-2,0-2.9c0.1-0.2,0.2-0.3,0.2-0.5
		c0.2-0.5,0.3-1,0.4-1.5c0-0.1,0.1-0.1,0.1-0.1c0.2,0.2,0.3,0.5,0.4,0.7c0,0.1,0.1,0.3,0.2,0.3c0,0,0,0,0.1,0
		c0.2-0.6,0.2-1.2,0.1-1.8c0-0.5-0.7-1.3-1-1.7v-0.1c-0.1-0.1-0.1-0.2-0.2-0.3c0-0.1,0-0.1,0-0.2c0.4-0.5,0.9-1.3,0.8-1.4
		s-0.4,0.1-0.8,0.3c0-0.6,0.1-0.9,0.1-0.9c0.1-0.3,0.1-0.6,0.2-0.9c0.4-0.2,0.8-0.2,1.2-0.1c0.2,0,0.5,0.1,0.7,0.2
		c0.1,0,0.2,0.1,0.2,0.2C1132.7,431.9,1133,433,1132.9,434L1132.9,434z"/>
	<polygon class="st10" points="1486.3,883.1 1504.1,893.5 1504.1,982 1486.3,971.2 	"/>
	<polygon class="st9" points="1504.1,893.5 1552.2,865.6 1552.2,954.1 1504.1,982 	"/>
	<polygon class="st8" points="1486.3,883.1 1534.5,855.2 1552.2,865.6 1504.1,893.5 	"/>
	<polygon class="st10" points="1178.5,703.7 1196.3,714.1 1196.3,802.7 1178.5,791.8 	"/>
	<polygon class="st9" points="1196.3,714.1 1244.4,686.2 1244.4,774.8 1196.3,802.7 	"/>
	<polygon class="st8" points="1178.5,703.7 1226.7,675.9 1244.4,686.2 1196.3,714.1 	"/>
	<polygon class="st10" points="1178.5,677.3 1504.1,866.6 1504.1,893.5 1178.5,703.8 	"/>
	<polygon class="st9" points="1504.1,866.6 1552.2,838.7 1552.2,865.6 1504.1,893.5 	"/>
	<polygon class="st8" points="1178.5,677.3 1226.7,649.5 1552.2,838.7 1504.1,866.6 	"/>
	<polygon class="st40" points="1219.2,468.6 1546.1,657.3 1546.1,842.3 1219.2,653.6 	"/>
	<polygon class="st9" points="1552.2,653.7 1546.1,657.3 1546.1,842.3 1552.2,838.7 	"/>
	<polygon class="st8" points="1552.2,653.7 1546.1,657.3 1219.2,468.6 1225.3,465.1 	"/>
	<path class="st10" d="M1219.2,468.6v185l326.9,188.7v-185L1219.2,468.6z M1229.2,485.9l306.9,177.1V825l-306.9-177.1V485.9z"/>
	<polygon class="st8" points="1536.1,820.6 1536.1,825 1229.2,647.8 1232.9,645.7 	"/>
	<polygon class="st9" points="1232.9,488.1 1229.2,485.9 1229.2,647.8 1232.9,645.7 	"/>
	<polygon class="st41" points="1232.9,488.1 1536.1,663.1 1232.9,645.7 	"/>
	<polygon class="st24" points="547,371.5 471.8,414.8 471.8,512.2 547,468.9 	"/>
	<polygon class="st25" points="465.9,411.4 471.8,414.8 471.8,512.2 465.9,508.8 	"/>
	<polygon class="st26" points="465.9,411.4 471.8,414.8 547,371.5 541.1,368.1 	"/>
	<path class="st27" d="M471.8,414.8v97.4l75.2-43.3v-97.4L471.8,414.8z M537.3,463.4l-55.9,32.2v-75.2l55.9-32.2V463.4z"/>
	<polygon class="st26" points="481.4,491.4 481.4,495.6 537.3,463.4 533.7,461.3 	"/>
	<polygon class="st25" points="533.7,390.3 537.3,388.2 537.3,463.4 533.7,461.3 	"/>
	<path class="st27" d="M493.9,444.9c0,0.3,0,0.5,0.1,0.8c0.1,0.4,0.1,0.7,0.2,1.1c0.1,0.3,0.2,0.7,0.3,1c0.1,0.4,0.3,0.7,0.5,1
		c0.2,0.3,0.4,0.7,0.6,1.1c0.2,0.6,0.5,1.1,0.9,1.5c0,0.8,0,1.5-0.1,2.2c0.6,3.8,0.9,7.7,1,11.6c0.8-0.9,1.3-2,1.6-3.2
		c0.7,1.6,1.2,3.3,1.2,5.1c0.5-0.9,1-1.8,1.3-2.8c1.2,1.4,1.9,3.2,2,5.1c0.1-0.2,1.2-3.5,0.9-5.2c0.2,0.2,3.3,4.2,3.4,5.8
		c0.1-1.7,3.2-9.3,3.4-9.7c0,1.4,0.3,2.8,1,4.1c0.1-2.9,1.9-7.1,2-7.4c0.3,0.6,0.7,1,1.3,1.3c0.1-2.2,0.5-4.4,1.2-6.5
		c0.2,0.8,0.8,1.3,1.6,1.3c0.1-4.3,0.4-8.6,0.9-12.9c-0.1-0.5-0.1-1.1-0.1-1.8c0.4-0.8,0.7-1.7,0.9-2.6c0.1-0.6,0.3-1.2,0.5-1.7
		c0.2-0.5,0.3-1.1,0.5-1.6s0.2-0.9,0.3-1.4s0.2-0.9,0.2-1.3c0-0.3,0.1-0.6,0.1-0.9c0-0.2,0-0.3-0.1-0.5c-0.1-0.4-0.5-0.6-0.9-0.3
		c-0.5,0.3-0.8,0.7-1.1,1.2c0.3-3.8-0.1-7.7-1.2-11.4c0.1-0.6,0-1.3-0.1-1.9c0,0-0.9-5.1-7.5-3c0.7,0,1.4,0.4,1.9,1
		c-0.1,0-2.5-0.7-6.7,0.4c0.1,0,1.9,0.4,2.2,1.3c-0.1,0-1.8-0.7-5.5,1.5c-0.5,0.3-1.1,0.7-1.7,1.1c0.1,0,2.7-1,3.4-0.1
		c-1.1,0.4-2.2,0.9-3.2,1.5c-1.1,0.6-2,1.3-2.9,2.2c0.1-0.1,2.2-1,2.7-0.6c-1.8,1.1-3.3,2.5-4.4,4.3c0.5-0.2,1.1-0.5,1.6-0.6
		c-1,1.7-1.5,3.7-1.2,5.7c-0.5,2.3-1.6,8.4-1,12.4c-0.3-0.1-0.7-0.1-1,0.1c-0.6,0.3-0.9,0.8-1.1,1.5
		C493.9,444.6,493.9,444.8,493.9,444.9z M517.1,428.3c-0.5,0.2-1.1,0.6-1.7,0.9c-2.4,1.3-4.6,3.1-6.5,5.1c-0.3,0.4-0.7,0.7-1.1,0.9
		c-0.4,0.2-0.7,0.3-1.1,0.4c-1.9,0-4.5,1.3-6.5,2.4c-0.7,0.4-1.3,0.8-1.8,1.1l0.8-1.4l-0.5-1.9l0.6-5.2c0.1,0,3.1,1,8.5-2
		c3.3-2,6.2-4.7,8.5-7.8l0.7,4.4l-0.5,2.5L517.1,428.3z M519,437.5c0-0.6,0-1.2,0-1.9v-0.1c0.1-0.2,0.1-0.4,0.2-0.6
		c0.1-0.4,0.2-0.8,0.3-1.3c0-0.1,0-0.1,0.1-0.2c0.1,0,0.2,0.1,0.3,0.2s0.1,0.1,0.1,0.1c0,0,0,0,0-0.1c0.1-0.4,0.1-0.9,0.1-1.3
		c0-0.4-0.5-0.3-0.7-0.3l0,0c-0.1,0-0.1,0-0.2,0c0.3-0.5,0.4-1.1,0.6-1.6c-0.2,0.3-0.4,0.5-0.5,0.8c0-0.4,0-0.7,0-0.7
		c0-0.2,0.1-0.5,0.1-0.7c0.2-0.4,0.5-0.7,0.8-1c0.1-0.1,0.3-0.2,0.4-0.4l0.2-0.1c0.6-0.2,0.7,0.5,0.6,1.1c-0.1,0.9-0.3,1.8-0.5,2.7
		c-0.1,0.3-0.1,0.6-0.2,0.9c-0.1,0.3-0.2,0.6-0.3,0.9c-0.3,0.8-0.6,1.5-0.8,2.3C519.3,436.7,519.2,437.1,519,437.5L519,437.5z
		 M502.6,454.2c1.3-1.2,2.5-2.5,3.6-4c0.2-0.3,0.5-0.6,0.8-0.7l0.4-0.2l0.4-0.2l0.1-0.1l0.5-0.3c0.2-0.2,0.5-0.2,0.7-0.1
		c1.2,0.3,2.4,0.2,3.6-0.1c-1.5,1.7-3.2,3.2-5.1,4.5C506.2,453.6,504.4,454.1,502.6,454.2z M496.9,442.7l0.4-1.5h0.2
		c0.6,1.1,1.1,2.4,1.3,3.6c0.4,1.5,1.2,1.1,1.2,1.1c1.2-0.4,2.4-1,3.5-1.7l0.6-0.3c1.9-1.3,2.9-5.8,2.9-6.1c0.1-0.5,0.4-1,0.7-1.5
		c0.1-0.1,0.1-0.1,0.2-0.2c0.1,0,0.1-0.1,0.2,0c0.2,0,0.4,0.2,0.7,0.7c0,0.2,1,3.6,3,2.7l0.6-0.3c1.2-0.7,2.4-1.5,3.5-2.3
		c0.7-0.6,1.1-1.5,1.2-2.5c0.3-1.7,0.7-3.4,1.3-5.1l0.1-0.2l0.4,1.1l-0.4,5.6c-0.1,0.3-2.4,6.8-3.2,8.4c-0.1,0.3-0.4,0.5-0.6,0.7
		c-1,0.6-2.7,0-3.9-0.1c-0.4,0-0.8,0.1-1.1,0.3c-0.6,0.4-1.2,0.9-1.6,1.5c-0.5-0.1-1.1,0-1.6,0.3c-0.4,0.3-0.8,0.6-1.1,1
		c-1.2,1.4-2.8,3.9-3.9,4.5c-0.2,0.1-0.5,0.2-0.6,0c-1.2-1.5-2.3-3-3.2-4.6L496.9,442.7z M494.7,443.4l0.1-0.1
		c0.1-0.1,0.3-0.1,0.4-0.1c0.3,0,0.5,0,0.8,0.1c0,0.2,0.1,0.4,0.1,0.6c0,0,0,0.2,0,0.6c-0.2-0.1-0.4-0.2-0.5-0.2s0.3,0.6,0.5,0.9
		c0,0,0,0.1,0,0.1l-0.1,0.2l0,0c-0.2,0.3-0.7,0.8-0.7,1.1s0,1.1,0.1,1.2s0,0,0,0s0.1-0.2,0.1-0.2s0.2-0.4,0.3-0.5s0.1,0,0.1,0.1
		c0.1,0.3,0.1,0.7,0.3,1c0,0.1,0.1,0.2,0.2,0.4c0,0.6,0,1.3,0,1.9c-0.2-0.1-0.4-0.3-0.5-0.5c-0.2-0.5-0.5-0.9-0.9-1.3
		c-0.1-0.2-0.2-0.3-0.3-0.5c-0.1-0.2-0.2-0.5-0.2-0.7c-0.2-0.7-0.4-1.4-0.5-2.1C493.9,444.6,494.2,443.9,494.7,443.4L494.7,443.4z"
		/>
	<polygon class="st24" points="315.3,506.1 240.1,549.4 240.1,646.8 315.3,603.5 	"/>
	<polygon class="st25" points="234.3,546 240.1,549.4 240.1,646.8 234.3,643.4 	"/>
	<polygon class="st26" points="234.3,546 240.1,549.4 315.3,506.1 309.5,502.7 	"/>
	<path class="st27" d="M240.1,549.4v97.4l75.2-43.3v-97.4L240.1,549.4z M305.7,598l-55.9,32.2V555l55.9-32.2V598z"/>
	<polygon class="st26" points="249.8,626 249.8,630.2 305.7,598 302.1,595.9 	"/>
	<polygon class="st25" points="302.1,524.9 305.7,522.8 305.7,598 302.1,595.9 	"/>
	<path class="st27" d="M262.2,579.5c0,0.3,0,0.5,0.1,0.8c0,0.4,0.1,0.7,0.2,1.1c0.1,0.3,0.2,0.7,0.3,1c0.1,0.3,0.3,0.7,0.5,1
		c0.2,0.3,0.4,0.7,0.5,1.1c0.2,0.6,0.5,1.1,0.9,1.5c0,0.8-0.1,1.5-0.1,2.2c0.6,3.8,0.9,7.7,1,11.6c0.8-0.9,1.3-2,1.6-3.2
		c0.8,1.6,1.2,3.3,1.2,5.1c0.5-0.9,1-1.8,1.3-2.8c1.2,1.4,1.9,3.2,2,5.1c0.1-0.2,1.2-3.5,0.9-5.2c0.2,0.2,3.3,4.2,3.4,5.8
		c0.1-1.7,3.2-9.3,3.4-9.7c0,1.4,0.3,2.8,1,4.1c0.3-2.5,1-5,2-7.3c0.3,0.6,0.7,1,1.3,1.3c0.1-2.2,0.5-4.4,1.2-6.5
		c0.2,0.8,0.8,1.3,1.6,1.3c0.1-4.3,0.4-8.6,0.9-12.9c0-0.5-0.1-1.1-0.1-1.8c0.4-0.8,0.7-1.7,0.9-2.6c0.2-0.6,0.3-1.2,0.5-1.7
		c0.2-0.5,0.3-1.1,0.5-1.6s0.2-0.9,0.3-1.3c0.1-0.4,0.2-0.9,0.2-1.3c0-0.3,0.1-0.6,0.1-0.8c0-0.2,0-0.3-0.1-0.5
		c-0.1-0.4-0.5-0.6-1-0.3c-0.4,0.3-0.8,0.7-1.1,1.2c0.3-3.8-0.1-7.7-1.1-11.4c0.1-0.6,0-1.3-0.1-1.9c0,0-0.9-5.1-7.5-3
		c0.8,0.1,1.5,0.4,2,1c-0.1,0-2.5-0.7-6.7,0.4c0.1,0,1.9,0.3,2.2,1.3c-0.1,0-1.8-0.7-5.5,1.5c-0.5,0.3-1.1,0.7-1.7,1.1
		c0.1,0,2.7-1,3.4-0.1c-1.1,0.4-2.2,0.9-3.2,1.5c-1.1,0.6-2,1.3-2.9,2.2c0.1,0,2.2-1,2.7-0.6c-1.8,1.1-3.3,2.5-4.5,4.2
		c0.5-0.2,1.1-0.5,1.6-0.6c-1,1.7-1.5,3.7-1.2,5.7c-0.5,2.3-1.6,8.4-1,12.4c-0.3-0.1-0.7,0-1,0.1c-0.5,0.3-0.9,0.9-1.1,1.5
		C262.2,579.2,262.2,579.4,262.2,579.5z M285.4,562.9c-0.5,0.2-1.1,0.5-1.7,0.9c-2.4,1.3-4.6,3.1-6.5,5.1c-0.3,0.4-0.7,0.7-1.1,0.9
		c-0.4,0.2-0.7,0.3-1.1,0.4c-1.9,0-4.5,1.2-6.5,2.4c-0.7,0.4-1.3,0.8-1.8,1.1l0.8-1.4l-0.5-1.9l0.6-5.2c0.2,0,3.1,1,8.5-2
		c3.3-2,6.2-4.7,8.5-7.8l0.6,4.4l-0.5,2.5L285.4,562.9z M287.3,572.1c0-0.6,0-1.3,0-1.9v-0.1c0.1-0.2,0.1-0.4,0.2-0.6
		c0.1-0.4,0.2-0.9,0.3-1.3c0-0.1,0-0.1,0.1-0.2c0.1,0,0.2,0.1,0.3,0.2s0,0.1,0.1,0.1s0,0,0,0c0.1-0.4,0.1-0.9,0.1-1.3
		c0-0.3-0.5-0.3-0.7-0.3l0,0h-0.2c0.2-0.5,0.4-1.1,0.6-1.6c-0.2,0.3-0.4,0.5-0.5,0.8c0-0.4,0-0.7,0-0.7c0-0.2,0.1-0.5,0.1-0.7
		c0.2-0.4,0.5-0.7,0.8-1c0.1-0.1,0.3-0.2,0.4-0.3l0.1-0.1c0.6-0.2,0.7,0.5,0.6,1.1c-0.1,0.9-0.2,1.8-0.5,2.7
		c-0.1,0.3-0.1,0.6-0.2,0.9c-0.1,0.3-0.2,0.6-0.3,0.9c-0.3,0.8-0.6,1.5-0.9,2.3C287.7,571.4,287.5,571.7,287.3,572.1L287.3,572.1z
		 M271,588.8c1.3-1.2,2.5-2.6,3.6-4c0.2-0.3,0.5-0.6,0.8-0.7c0.1-0.1,0.3-0.2,0.4-0.2c0.1-0.1,0.3-0.1,0.4-0.2l0.1-0.1l0.5-0.3
		c0.2-0.2,0.5-0.2,0.7-0.2c1.2,0.3,2.4,0.2,3.6-0.1c-1.5,1.7-3.2,3.2-5.1,4.5C274.5,588.3,272.8,588.7,271,588.8z M265.2,577.3
		l0.4-1.5h0.1c0.5,0.5,0.9,2.2,1.3,3.6s1.2,1.1,1.2,1.1c1.2-0.4,2.4-1,3.5-1.7l0.5-0.3c2-1.3,2.9-5.8,2.9-6.1c0.1-0.5,0.4-1,0.7-1.5
		c0.1-0.1,0.1-0.2,0.2-0.2c0.1,0,0.1-0.1,0.2-0.1c0.2,0,0.4,0.2,0.7,0.7c0,0.2,1,3.6,3,2.7l0.6-0.3c1.2-0.7,2.4-1.5,3.5-2.3
		c0.7-0.6,1.1-1.5,1.2-2.5c0.2-1.7,0.7-3.4,1.2-5.1l0.1-0.2l0.4,1.1l-0.4,5.6c-0.1,0.3-2.4,6.7-3.2,8.3c-0.1,0.3-0.3,0.5-0.6,0.7
		c-1,0.6-2.7,0-3.9-0.1c-0.4,0-0.8,0.1-1.1,0.3c-0.6,0.4-1.2,0.9-1.6,1.5c-0.5-0.1-1.1,0-1.6,0.3c-0.4,0.3-0.8,0.6-1.1,1
		c-1.2,1.4-2.8,3.9-3.9,4.5c-0.3,0.1-0.5,0.2-0.6,0c-1.2-1.5-2.3-3-3.2-4.7L265.2,577.3z M263,578l0.1-0.1c0.1-0.1,0.3-0.1,0.4-0.2
		c0.3,0,0.5,0,0.8,0.1c0,0.2,0.1,0.4,0.1,0.6c0,0,0,0.2,0,0.6c-0.2-0.1-0.4-0.2-0.5-0.2s0.3,0.6,0.5,0.9c0,0,0,0.1,0,0.1l-0.1,0.2
		l0,0c-0.2,0.3-0.7,0.8-0.7,1.1c0,0.4,0,0.8,0.1,1.2l0,0c0,0,0.1-0.2,0.1-0.2c0.1-0.2,0.2-0.3,0.3-0.5c0,0,0.1,0,0.1,0.1
		c0.1,0.3,0.1,0.7,0.3,1c0,0.1,0.1,0.2,0.1,0.3c0,0.6,0,1.3,0,1.9c-0.2-0.1-0.4-0.3-0.5-0.5c-0.2-0.5-0.5-0.9-0.9-1.3
		c-0.1-0.2-0.2-0.3-0.3-0.5c-0.1-0.2-0.2-0.4-0.2-0.7c-0.2-0.7-0.4-1.4-0.5-2.2C262.2,579.1,262.5,578.4,263,578z"/>
	<polygon class="st12" points="1193.4,835.6 1193.4,842.9 1264.4,801.8 1264.4,794.5 	"/>
	<polygon class="st28" points="1264.4,794.5 1193.4,835.6 1178.5,826.9 1249.7,786 	"/>
	<polygon class="st32" points="1193.4,835.6 1193.4,842.9 1178.5,834.2 1178.5,826.9 	"/>
	<polygon class="st20" points="1193.8,975.8 1262.3,1015.2 1262.3,1032.6 1193.8,992.8 	"/>
	<polygon class="st12" points="1262.3,1015.2 1333.9,973.4 1333.9,990.7 1262.3,1032.6 	"/>
	<polygon class="st28" points="1193.8,975.8 1265.7,934 1333.9,973.4 1262.3,1015.2 	"/>
	<polygon class="st20" points="1203.6,947.1 1262.5,981 1262.5,1008.4 1203.6,974.1 	"/>
	<polygon class="st12" points="1262.5,981 1309.2,953.7 1324.2,972.3 1262.5,1008.4 	"/>
	<polygon class="st28" points="1203.6,947.1 1250.5,919.8 1309.2,953.7 1262.5,981 	"/>
	<polygon class="st42" points="1193.8,988.7 1262.3,1028.1 1262.3,1032.6 1193.8,992.8 	"/>
	<polygon class="st43" points="1262.3,1028.1 1333.9,986.2 1333.9,990.7 1262.3,1032.6 	"/>
	<polygon class="st20" points="1238.1,1018.6 1245.9,1023.1 1245.9,1032.6 1238.1,1028.1 	"/>
	<polygon class="st12" points="1245.9,1023.1 1254.1,1013.8 1254.1,1027.8 1245.9,1032.6 	"/>
	<polygon class="st28" points="1238.1,1018.6 1246.3,1009.3 1254.1,1013.8 1245.9,1023.1 	"/>
	<polygon class="st20" points="1192.6,992.1 1200.4,996.6 1200.4,1006.1 1192.6,1001.6 	"/>
	<polygon class="st12" points="1200.4,996.6 1208.6,987.3 1208.6,1001.3 1200.4,1006.1 	"/>
	<polygon class="st28" points="1192.6,992.1 1200.8,982.8 1208.6,987.3 1200.4,996.6 	"/>
	<polygon class="st12" points="1258.7,916.9 1258.7,966.8 1227.6,948.7 1220.4,894.6 	"/>
	<polygon class="st28" points="1220.4,894.6 1258.7,916.9 1294.7,896.1 1255.9,874.1 	"/>
	<polygon class="st20" points="1258.7,916.9 1258.7,966.8 1288.6,949.5 1294.7,896.1 	"/>
	<polygon class="st42" points="1310.2,920 1363.7,950.9 1363.7,957 1310.2,925.8 	"/>
	<polygon class="st43" points="1363.7,950.9 1402.8,928 1402.8,934.1 1363.7,957 	"/>
	<polygon class="st44" points="1310.2,920 1349.4,897.1 1402.8,928 1363.7,950.9 	"/>
	<polygon class="st20" points="1352.4,909.5 1363.7,950.9 1281.7,903.4 1270.4,862.1 	"/>
	<polygon class="st18" points="1270.4,862.1 1352.4,909.5 1360.7,904.8 1278.6,857.4 	"/>
	<polygon class="st12" points="1352.4,909.5 1363.7,950.9 1372,946.1 1360.7,904.8 	"/>
	<polygon class="st20" points="1168.6,894 1262.5,948.1 1262.5,962.2 1168.6,907.6 	"/>
	<polygon class="st12" points="1262.5,948.1 1360.7,890.6 1360.7,904.8 1262.5,962.2 	"/>
	<polygon class="st28" points="1168.6,894 1267.1,836.6 1360.7,890.6 1262.5,948.1 	"/>
	<polygon class="st25" points="1180.2,874.7 1262.7,922.2 1262.7,941.7 1180.2,893.7 	"/>
	<polygon class="st27" points="1262.7,922.2 1349.1,871.7 1349.1,891.2 1262.7,941.7 	"/>
	<path class="st26" d="M1272.9,827.7c-3.7-2.2-8.3-2.2-12.1,0l-80.6,46.9l82.6,47.6l86.3-50.5L1272.9,827.7z"/>
	<polygon class="st25" points="1150.8,790.7 1233.4,837.8 1262.8,922.2 1180.2,874.7 	"/>
	<polygon class="st27" points="1233.4,837.8 1253.6,826.1 1289.3,906.7 1262.8,922.2 	"/>
	<polygon class="st26" points="1150.8,790.7 1171.2,779 1253.6,826.1 1233.4,837.8 	"/>
	<polygon class="st25" points="1168.1,772.2 1205.3,793.5 1215.9,823.5 1178.6,802.1 	"/>
	<polygon class="st27" points="1205.3,793.5 1214.5,788.2 1227.8,816.5 1215.9,823.5 	"/>
	<path class="st26" d="M1180.1,768.6c-1.8-1-3.9-1-5.7,0l-6.3,3.7l37.2,21.2l9.1-5.3L1180.1,768.6z"/>
	<polygon class="st12" points="1278,884.7 1278,892 1349,850.9 1349,843.6 	"/>
	<polygon class="st28" points="1349,843.6 1278,884.7 1263.1,876 1334.2,835.1 	"/>
	<polygon class="st20" points="1278,884.7 1278,892 1263.1,883.3 1263.1,876 	"/>
	<polygon class="st12" points="731.1,566.3 731.1,573.6 802,532.5 802,525.2 	"/>
	<polygon class="st28" points="802,525.2 731.1,566.3 716.1,557.7 787.3,516.7 	"/>
	<polygon class="st32" points="731.1,566.3 731.1,573.6 716.1,565 716.1,557.7 	"/>
	<polygon class="st20" points="731.5,706.5 799.9,746 799.9,763.3 731.5,723.5 	"/>
	<polygon class="st12" points="799.9,746 871.5,704.1 871.5,721.5 799.9,763.3 	"/>
	<polygon class="st28" points="731.5,706.5 803.3,664.8 871.5,704.1 799.9,746 	"/>
	<polygon class="st20" points="741.2,677.8 800.1,711.8 800.1,739.1 741.2,704.9 	"/>
	<polygon class="st12" points="800.1,711.8 846.8,684.5 861.8,703.1 800.1,739.1 	"/>
	<polygon class="st28" points="741.2,677.8 788.1,650.6 846.8,684.5 800.1,711.8 	"/>
	<polygon class="st42" points="731.5,719.4 799.9,758.8 799.9,763.3 731.5,723.5 	"/>
	<polygon class="st43" points="799.9,758.8 871.5,717 871.5,721.5 799.9,763.3 	"/>
	<polygon class="st20" points="775.8,749.3 783.6,753.8 783.6,763.3 775.8,758.8 	"/>
	<polygon class="st12" points="783.6,753.8 791.7,744.5 791.7,758.6 783.6,763.3 	"/>
	<polygon class="st28" points="775.8,749.3 784,740.1 791.7,744.5 783.6,753.8 	"/>
	<polygon class="st20" points="730.2,722.8 738,727.3 738,736.8 730.2,732.3 	"/>
	<polygon class="st12" points="738,727.3 746.2,718.1 746.2,732.1 738,736.8 	"/>
	<polygon class="st28" points="730.2,722.8 738.4,713.6 746.2,718.1 738,727.3 	"/>
	<polygon class="st12" points="796.3,647.7 796.3,697.6 765.2,679.5 758,625.3 	"/>
	<polygon class="st28" points="758,625.3 796.3,647.7 832.3,626.8 793.5,604.9 	"/>
	<polygon class="st20" points="796.3,647.6 796.3,697.5 826.2,680.3 832.3,626.8 	"/>
	<polygon class="st42" points="847.8,650.7 901.3,681.7 901.3,687.7 847.8,656.6 	"/>
	<polygon class="st43" points="901.3,681.7 940.4,658.8 940.4,664.8 901.3,687.7 	"/>
	<polygon class="st44" points="847.8,650.7 887,627.9 940.4,658.8 901.3,681.7 	"/>
	<polygon class="st20" points="890.1,640.3 901.3,681.7 819.3,634.2 808,592.8 	"/>
	<polygon class="st18" points="808,592.8 890.1,640.3 898.3,635.5 816.2,588.1 	"/>
	<polygon class="st12" points="890.1,640.3 901.3,681.7 909.6,676.9 898.3,635.5 	"/>
	<polygon class="st20" points="706.2,624.7 800.1,678.8 800.1,693 706.2,638.3 	"/>
	<polygon class="st12" points="800.1,678.8 898.3,621.4 898.3,635.5 800.1,693 	"/>
	<polygon class="st28" points="706.2,624.7 804.8,567.4 898.3,621.4 800.1,678.8 	"/>
	<polygon class="st25" points="717.8,605.4 800.4,653 800.3,672.4 717.8,624.4 	"/>
	<polygon class="st27" points="800.4,653 886.7,602.5 886.7,621.9 800.3,672.4 	"/>
	<path class="st26" d="M810.5,558.5c-3.7-2.2-8.3-2.2-12.1,0l-80.6,46.9l82.6,47.6l86.3-50.5L810.5,558.5z"/>
	<polygon class="st25" points="688.4,521.4 771,568.5 800.4,653 717.8,605.4 	"/>
	<polygon class="st27" points="771,568.5 791.3,556.9 826.9,637.5 800.4,653 	"/>
	<polygon class="st26" points="688.4,521.4 708.8,509.7 791.3,556.9 771,568.5 	"/>
	<polygon class="st25" points="705.7,503 743,524.2 753.5,554.3 716.3,532.8 	"/>
	<polygon class="st27" points="743,524.2 752.1,519 765.5,547.3 753.5,554.3 	"/>
	<path class="st26" d="M717.8,499.3c-1.8-1-3.9-1-5.7,0l-6.3,3.7l37.3,21.2l9.1-5.3L717.8,499.3z"/>
	<polygon class="st12" points="815.6,615.5 815.6,622.8 886.6,581.6 886.6,574.3 	"/>
	<polygon class="st28" points="886.6,574.3 815.6,615.5 800.7,606.8 871.9,565.8 	"/>
	<polygon class="st20" points="815.6,615.5 815.6,622.8 800.7,614.1 800.7,606.8 	"/>
	<polygon class="st24" points="1338.9,415.1 1442.8,475.5 1442.8,560.5 1338.9,500 	"/>
	<polygon class="st27" points="1448.3,472.3 1442.8,475.5 1442.8,560.5 1448.3,557.3 	"/>
	<polygon class="st26" points="1448.3,472.3 1442.8,475.5 1338.9,415.1 1344.3,411.9 	"/>
	<path class="st25" d="M1338.9,415.1V500l104,60.4v-84.9L1338.9,415.1z M1347.9,430.7l85.9,50.1v64.1l-85.9-50.1L1347.9,430.7z"/>
	<polygon class="st26" points="1433.8,541 1433.8,544.9 1347.9,494.8 1351.2,492.8 	"/>
	<polygon class="st27" points="1351.2,432.6 1347.9,430.7 1347.9,494.8 1351.2,492.8 	"/>
	<path class="st27" d="M1400.4,483.4c2.2,1.4,4.1,3.3,5.4,5.5c1.8,3,4.1,5.7,6.7,8c0.5,0.4,1,0.7,1.5,1c2.6,1.5,5.7,1.7,8.4,0.5
		c0.7-0.4,1.5-0.6,2.3-0.5c0.3,0.1,0.5,0.2,0.8,0.3c0.6,0.3,1,0.9,0.9,1.6c-0.4,2-6.7,7.9-11.6,8.1c-2.2,0-4.4-0.7-6.2-1.9
		c-3.4-2.1-6.4-4.9-8.7-8.1l-0.4-0.5c-1.3-1.9-2.8-3.6-4.5-5.2c-0.6-0.5-1.2-1-1.9-1.5c-0.2-0.1-0.4-0.2-0.6-0.3
		c-0.8-0.3-1.6-0.5-2.4-0.5c-1.2-0.1-2.4,0-3.6,0.3c-2.5,0.6-5.6-0.1-8.7-1.9c-2.4-1.4-4.5-3.2-6.2-5.3c-4.9-5.9-11.2-19-11.5-21.4
		c-0.1-0.9,0.4-0.9,0.9-0.6c0.3,0.2,0.5,0.4,0.8,0.6c0.9,1,1.7,2.1,2.3,3.2c2.4,3.8,5.3,7.5,8.4,9.2c0.5,0.3,1,0.5,1.5,0.7
		c2.2,0.8,4.6,0.7,6.8-0.3c1.8-0.7,3.8-0.4,5.4,0.7c3.9,2.2,7.1,7.2,7.1,7.2C1395.7,481.7,1398.3,482,1400.4,483.4z"/>
	<polygon class="st24" points="884.5,153.3 988.5,213.7 988.5,298.6 884.5,238.2 	"/>
	<polygon class="st27" points="993.9,210.5 988.5,213.7 988.5,298.6 993.9,295.4 	"/>
	<polygon class="st26" points="993.9,210.5 988.5,213.7 884.5,153.3 890,150.1 	"/>
	<path class="st25" d="M884.5,153.3v84.9l104,60.4v-84.9L884.5,153.3z M893.5,168.9l85.9,50.1v64.1L893.5,233L893.5,168.9z"/>
	<polygon class="st26" points="979.4,279.1 979.4,283.1 893.5,233 896.9,231 	"/>
	<polygon class="st27" points="896.9,170.8 893.5,168.9 893.5,233 896.9,231 	"/>
	<path class="st27" d="M946.1,221.6c2.2,1.4,4.1,3.3,5.4,5.5c1.8,3,4.1,5.7,6.7,8c0.5,0.4,0.9,0.7,1.5,1c2.6,1.5,5.7,1.7,8.4,0.4
		c0.7-0.4,1.5-0.6,2.3-0.5c0.3,0.1,0.5,0.2,0.8,0.3c0.6,0.3,1,0.9,0.9,1.6c-0.4,2-6.7,7.9-11.6,8.1c-2.2,0-4.4-0.7-6.2-1.9
		c-3.4-2.1-6.4-4.9-8.7-8.1l-0.4-0.5c-1.3-1.9-2.8-3.6-4.5-5.2c-0.6-0.5-1.2-1-1.9-1.4c-0.2-0.1-0.4-0.2-0.6-0.3
		c-0.8-0.3-1.6-0.5-2.4-0.5c-1.2-0.1-2.4,0-3.6,0.3c-2.5,0.6-5.6-0.1-8.7-1.9c-2.4-1.4-4.5-3.2-6.2-5.3c-4.9-5.9-11.2-19-11.5-21.4
		c-0.1-0.9,0.4-0.9,0.9-0.6c0.3,0.2,0.5,0.4,0.8,0.6c0.9,1,1.7,2.1,2.3,3.2c2.4,3.8,5.3,7.5,8.4,9.3c0.5,0.3,1,0.5,1.5,0.7
		c2.2,0.8,4.6,0.7,6.8-0.3c1.8-0.7,3.8-0.4,5.4,0.7c3.9,2.2,7.1,7.2,7.1,7.2C941.4,219.8,944,220.2,946.1,221.6z"/>
	<polygon class="st45" points="1478.5,823 1478.5,839.6 1461.5,829.8 1461.5,813.2 	"/>
	<polygon class="st46" points="1461.5,813.2 1478.5,823 1494.4,813.8 1477.3,804.1 	"/>
	<polygon class="st47" points="1478.5,823 1478.5,839.6 1494.4,830.4 1494.4,813.8 	"/>
	<polygon class="st15" points="1478.5,829.8 1478.5,836.6 1461.5,826.7 1461.5,819.9 	"/>
	<polygon class="st16" points="1478.5,829.8 1478.5,836.6 1494.4,827.4 1494.4,820.6 	"/>
	<path class="st16" d="M1469.6,807.6v6.4c0,1.7,3.9,3.1,8.6,3.1s8.6-1.4,8.6-3.1v-6.4L1469.6,807.6z"/>
	<path class="st48" d="M1486.8,807.6c0,1.7-3.9,3.1-8.6,3.1s-8.6-1.4-8.6-3.1s3.9-3.1,8.6-3.1S1486.8,805.9,1486.8,807.6z"/>
	<polygon class="st45" points="754.7,402.2 754.7,418.8 737.8,408.9 737.8,392.4 	"/>
	<polygon class="st46" points="737.8,392.4 754.7,402.2 770.7,393 753.5,383.3 	"/>
	<polygon class="st47" points="754.7,402.2 754.7,418.8 770.7,409.6 770.7,393 	"/>
	<polygon class="st15" points="754.7,409 754.7,415.8 737.8,405.9 737.8,399.1 	"/>
	<polygon class="st16" points="754.7,409 754.7,415.8 770.7,406.6 770.7,399.8 	"/>
	<path class="st16" d="M745.8,386.8v6.4c0,1.7,3.9,3.1,8.6,3.1s8.6-1.4,8.6-3.1v-6.4H745.8z"/>
	<path class="st48" d="M763.1,386.8c0,1.7-3.9,3.1-8.6,3.1s-8.6-1.4-8.6-3.1s3.9-3.1,8.6-3.1S763.1,385.1,763.1,386.8z"/>
	<polygon class="st45" points="1505.1,837.8 1505.1,854.4 1488.2,844.5 1488.2,827.9 	"/>
	<polygon class="st46" points="1488.2,827.9 1505.1,837.8 1521.1,828.6 1503.9,818.9 	"/>
	<polygon class="st47" points="1505.1,837.8 1505.1,854.4 1521.1,845.2 1521.1,828.6 	"/>
	<polygon class="st15" points="1505.1,844.5 1505.1,851.4 1488.2,841.5 1488.2,834.7 	"/>
	<polygon class="st16" points="1505.1,844.5 1505.1,851.3 1521.1,842.1 1521.1,835.3 	"/>
	<path class="st16" d="M1496.2,822.3v6.4c0,1.7,3.9,3.1,8.6,3.1s8.6-1.4,8.6-3.1v-6.4H1496.2z"/>
	<path class="st48" d="M1513.5,822.3c0,1.7-3.9,3.1-8.6,3.1s-8.6-1.4-8.6-3.1s3.9-3.1,8.6-3.1S1513.5,820.6,1513.5,822.3z"/>
	<polygon class="st9" points="811.5,906.4 711.3,964.4 711.3,1068.3 811.5,1009.6 	"/>
	<polygon class="st10" points="711.3,964.4 701.4,958.8 701.4,1062.6 711.3,1068.3 	"/>
	<polygon class="st49" points="811.5,906.4 801.5,900.7 701.4,958.8 711.3,964.4 	"/>
	<polygon class="st9" points="332.1,629 231.9,687.1 231.9,791 332.1,732.2 	"/>
	<polygon class="st10" points="231.9,687.1 222,681.4 222,785.3 231.9,791 	"/>
	<polygon class="st49" points="332.1,629 322.1,623.4 222,681.4 231.9,687.1 	"/>
	<polygon class="st10" points="222,669.4 711.3,951.8 711.3,964.5 222,681.4 	"/>
	<polygon class="st9" points="711.3,951.8 811.5,893.8 811.5,906.4 711.3,964.5 	"/>
	<polygon class="st8" points="222,669.4 322.6,611.4 811.5,893.8 711.3,951.8 	"/>
	<polygon class="st50" points="351.5,621 346.2,624 346.2,661.2 351.5,658 	"/>
	<polygon class="st51" points="346.2,624 319.2,608.4 319.2,645.5 346.2,661.2 	"/>
	<polygon class="st52" points="351.5,621 324.5,605.3 319.2,608.4 346.2,624 	"/>
	<polygon class="st53" points="350.7,624.5 346.9,626.7 346.9,640.8 350.7,638.6 	"/>
	<polygon class="st54" points="345.6,624.4 340.3,627.5 340.3,664.6 345.6,661.5 	"/>
	<polygon class="st55" points="340.3,627.5 313.3,611.8 313.3,648.9 340.3,664.6 	"/>
	<polygon class="st56" points="345.6,624.4 318.6,608.8 313.3,611.8 340.3,627.5 	"/>
	<polygon class="st53" points="344.8,628 341,630.2 341,644.2 344.8,642 	"/>
	<polygon class="st57" points="339.7,627.8 334.4,630.9 334.4,668 339.7,664.9 	"/>
	<polygon class="st58" points="334.4,630.9 307.4,615.2 307.4,652.3 334.4,668 	"/>
	<polygon class="st59" points="339.7,627.8 312.7,612.2 307.4,615.2 334.4,630.9 	"/>
	<polygon class="st43" points="338.9,631.4 335.1,633.6 335.1,647.7 338.9,645.5 	"/>
	<polygon class="st50" points="332.7,632.2 327.3,635.3 327.3,672.4 332.7,669.3 	"/>
	<polygon class="st51" points="327.3,635.3 300.3,619.6 300.3,656.7 327.3,672.4 	"/>
	<polygon class="st52" points="332.7,632.2 305.6,616.6 300.3,619.6 327.3,635.3 	"/>
	<polygon class="st53" points="331.9,635.8 328.1,638 328.1,652 331.9,649.8 	"/>
	<polygon class="st54" points="326.8,635.6 321.4,638.7 321.4,675.8 326.8,672.7 	"/>
	<polygon class="st55" points="321.4,638.7 294.4,623 294.4,660.2 321.4,675.8 	"/>
	<polygon class="st56" points="326.8,635.6 299.7,620 294.4,623 321.4,638.7 	"/>
	<polygon class="st53" points="326,639.2 322.2,641.4 322.2,655.5 326,653.3 	"/>
	<polygon class="st57" points="320.9,639.1 315.5,642.1 315.5,679.3 320.9,676.1 	"/>
	<polygon class="st58" points="315.5,642.1 288.5,626.5 288.5,663.6 315.5,679.3 	"/>
	<polygon class="st59" points="320.9,639.1 293.8,623.4 288.5,626.5 315.5,642.1 	"/>
	<polygon class="st43" points="320.1,642.6 316.3,644.8 316.3,658.9 320.1,656.7 	"/>
	<polygon class="st50" points="313.8,643.4 308.4,646.5 308.4,683.6 313.8,680.5 	"/>
	<polygon class="st51" points="308.4,646.5 281.5,630.8 281.5,668 308.4,683.6 	"/>
	<polygon class="st52" points="313.8,643.4 286.7,627.8 281.5,630.8 308.4,646.5 	"/>
	<polygon class="st53" points="313,647 309.2,649.2 309.2,663.3 313,661.1 	"/>
	<polygon class="st54" points="307.9,646.9 302.5,650 302.5,687.1 307.9,683.9 	"/>
	<polygon class="st55" points="302.5,650 275.6,634.3 275.6,671.4 302.5,687.1 	"/>
	<polygon class="st56" points="307.9,646.9 280.8,631.3 275.6,634.3 302.5,650 	"/>
	<polygon class="st53" points="307.1,650.4 303.3,652.6 303.3,666.7 307.1,664.5 	"/>
	<polygon class="st57" points="302,650.3 296.6,653.4 296.6,690.5 302,687.4 	"/>
	<polygon class="st58" points="296.6,653.4 269.7,637.7 269.7,674.8 296.6,690.5 	"/>
	<polygon class="st59" points="302,650.3 274.9,634.7 269.7,637.7 296.6,653.4 	"/>
	<polygon class="st43" points="301.2,653.9 297.4,656.1 297.4,670.2 301.2,668 	"/>
	<polygon class="st12" points="590.6,1056.3 590.6,1060.8 558.2,1042.1 558.2,1037.5 	"/>
	<polygon class="st49" points="558.2,1037.5 590.6,1056.3 622.9,1037.5 590.4,1018.8 	"/>
	<polygon class="st20" points="590.6,1056.3 590.6,1060.8 622.9,1042 622.9,1037.5 	"/>
	<polygon class="st20" points="590.7,995.2 590.7,1041.5 583.4,1037.2 583.4,991 	"/>
	<polygon class="st60" points="583.4,991 590.7,995.2 597.5,991.3 590.2,987.1 	"/>
	<polygon class="st12" points="590.7,995.2 590.7,1041.5 597.5,1037.5 597.5,991.3 	"/>
	<polygon class="st16" points="590.6,979.2 590.6,996.7 544.9,970.2 544.9,952.8 	"/>
	<polygon class="st48" points="544.9,952.8 590.6,979.2 636.2,952.7 590.4,926.3 	"/>
	<polygon class="st15" points="590.6,979.2 590.6,996.7 636.2,970.2 636.2,952.7 	"/>
	<polygon class="st12" points="487.4,996.6 487.4,1001.2 455,982.4 455,977.9 	"/>
	<polygon class="st49" points="455,977.9 487.4,996.6 519.7,977.8 487.2,959.1 	"/>
	<polygon class="st20" points="487.4,996.6 487.4,1001.2 519.7,982.3 519.7,977.8 	"/>
	<polygon class="st20" points="487.5,935.6 487.5,981.8 480.2,977.6 480.2,931.3 	"/>
	<polygon class="st60" points="480.2,931.3 487.5,935.6 494.4,931.6 487,927.4 	"/>
	<polygon class="st12" points="487.5,935.6 487.5,981.8 494.4,977.9 494.4,931.6 	"/>
	<polygon class="st16" points="487.4,919.6 487.4,937 441.7,910.6 441.7,893.1 	"/>
	<polygon class="st48" points="441.7,893.1 487.4,919.6 533,893 487.2,866.6 	"/>
	<polygon class="st15" points="487.4,919.5 487.4,937 533,910.5 533,893 	"/>
	<polygon class="st12" points="384.2,937 384.2,941.5 351.8,922.7 351.8,918.2 	"/>
	<polygon class="st49" points="351.8,918.2 384.2,937 416.5,918.2 384,899.4 	"/>
	<polygon class="st20" points="384.2,937 384.2,941.5 416.5,922.7 416.5,918.2 	"/>
	<polygon class="st20" points="384.3,875.9 384.3,922.2 377,917.9 377,871.6 	"/>
	<polygon class="st60" points="377,871.6 384.3,875.9 391.1,871.9 383.7,867.7 	"/>
	<polygon class="st12" points="384.3,875.9 384.3,922.2 391.1,918.2 391.1,871.9 	"/>
	<polygon class="st16" points="384.2,859.9 384.2,877.3 338.5,850.9 338.5,833.4 	"/>
	<polygon class="st48" points="338.5,833.4 384.2,859.9 429.8,833.4 384,807 	"/>
	<polygon class="st15" points="384.2,859.9 384.2,877.3 429.8,850.8 429.8,833.4 	"/>
	<polygon class="st12" points="281,877.3 281,881.8 248.6,863.1 248.6,858.5 	"/>
	<polygon class="st49" points="248.6,858.5 281,877.3 313.3,858.5 280.8,839.8 	"/>
	<polygon class="st20" points="281,877.3 281,881.8 313.3,863 313.3,858.5 	"/>
	<polygon class="st20" points="281.1,816.2 281.1,862.5 273.8,858.2 273.8,812 	"/>
	<polygon class="st60" points="273.8,812 281.1,816.2 287.9,812.3 280.5,808.1 	"/>
	<polygon class="st12" points="281.1,816.2 281.1,862.5 287.9,858.5 287.9,812.3 	"/>
	<polygon class="st16" points="281,800.2 281,817.7 235.3,791.2 235.3,773.8 	"/>
	<polygon class="st48" points="235.3,773.8 281,800.2 326.5,773.7 280.8,747.3 	"/>
	<polygon class="st15" points="281,800.2 281,817.7 326.5,791.2 326.5,773.7 	"/>
	<polygon class="st45" points="388.2,653.2 388.2,685.5 373.2,676.8 373.2,644.5 	"/>
	<polygon class="st46" points="373.2,644.5 388.2,653.2 402.3,645.1 387.1,636.5 	"/>
	<polygon class="st47" points="388.2,653.2 388.2,685.5 402.3,677.4 402.3,645.1 	"/>
	<polygon class="st45" points="387.9,631.3 387.9,646.8 383.3,644.1 383.3,628.6 	"/>
	<polygon class="st61" points="383.3,628.6 387.9,631.3 392.3,628.8 387.6,626.2 	"/>
	<polygon class="st47" points="387.9,631.3 387.9,646.8 392.3,644.3 392.3,628.8 	"/>
	<polygon class="st62" points="387.9,627.5 387.9,634.9 383.3,632.2 383.3,624.8 	"/>
	<polygon class="st63" points="383.3,624.8 387.9,627.5 392.3,625 387.6,622.3 	"/>
	<polygon class="st64" points="387.9,627.5 387.9,634.9 392.3,632.4 392.3,625 	"/>
	<polygon class="st64" points="388.2,661.4 388.2,677.9 402.3,669.7 402.3,653.2 	"/>
	<polygon class="st62" points="388.2,661.4 388.2,677.9 373.2,669.2 373.2,652.7 	"/>
	<polygon class="st32" points="411.8,670.8 411.8,698.8 398.8,691.2 398.8,663.2 	"/>
	<polygon class="st31" points="398.8,663.2 411.8,670.8 424.1,663.7 410.9,656.2 	"/>
	<polygon class="st33" points="411.8,670.8 411.8,698.8 424.1,691.7 424.1,663.7 	"/>
	<polygon class="st32" points="411.5,651.7 411.5,665.2 407.5,662.8 407.5,649.4 	"/>
	<polygon class="st61" points="407.5,649.4 411.5,651.7 415.3,649.5 411.3,647.2 	"/>
	<polygon class="st33" points="411.5,651.7 411.5,665.2 415.3,663 415.3,649.5 	"/>
	<polygon class="st15" points="411.5,648.4 411.5,654.8 407.5,652.5 407.5,646.1 	"/>
	<polygon class="st48" points="407.5,646.1 411.5,648.4 415.3,646.2 411.3,643.9 	"/>
	<polygon class="st16" points="411.5,648.4 411.5,654.8 415.3,652.6 415.3,646.2 	"/>
	<polygon class="st16" points="411.8,676.1 411.8,690.4 424.1,683.3 424.1,669 	"/>
	<polygon class="st15" points="411.8,676.1 411.8,690.4 398.8,682.9 398.8,668.6 	"/>
	<polygon class="st45" points="437.8,681.4 437.8,713.7 422.8,705 422.8,672.7 	"/>
	<polygon class="st46" points="422.8,672.7 437.8,681.4 451.9,673.3 436.7,664.7 	"/>
	<polygon class="st47" points="437.8,681.4 437.8,713.7 451.9,705.5 451.9,673.3 	"/>
	<polygon class="st45" points="437.5,659.5 437.5,675 432.8,672.3 432.8,656.8 	"/>
	<polygon class="st61" points="432.8,656.8 437.5,659.5 441.8,657 437.1,654.3 	"/>
	<polygon class="st47" points="437.5,659.5 437.5,675 441.8,672.5 441.8,657 	"/>
	<polygon class="st62" points="437.5,655.7 437.5,663.1 432.8,660.4 432.8,653 	"/>
	<polygon class="st63" points="432.8,653 437.5,655.7 441.8,653.2 437.1,650.5 	"/>
	<polygon class="st64" points="437.5,655.7 437.5,663 441.8,660.5 441.8,653.2 	"/>
	<polygon class="st64" points="437.8,689.6 437.8,706 451.9,697.9 451.9,681.4 	"/>
	<polygon class="st62" points="437.8,689.6 437.8,706 422.8,697.4 422.8,680.9 	"/>
	<polygon class="st65" points="594.5,773.3 594.5,817.1 607.6,809.5 607.6,765.7 	"/>
	<polygon class="st61" points="607.6,765.7 594.5,773.3 582.3,766.2 595.5,758.8 	"/>
	<polygon class="st66" points="594.5,773.3 594.5,817.1 582.3,810 582.3,766.2 	"/>
	<polygon class="st65" points="594.8,754.3 594.8,767.7 598.8,765.4 598.8,751.9 	"/>
	<polygon class="st61" points="598.8,751.9 594.8,754.3 591,752.1 595.1,749.8 	"/>
	<polygon class="st66" points="594.8,754.3 594.8,767.7 591,765.5 591,752.1 	"/>
	<polygon class="st67" points="594.8,751 594.8,757.4 598.8,755 598.8,748.6 	"/>
	<polygon class="st68" points="598.8,748.6 594.8,751 591,748.8 595.1,746.5 	"/>
	<polygon class="st69" points="594.8,751 594.8,757.4 591,755.2 591,748.8 	"/>
	<polygon class="st12" points="594.5,785.4 594.5,799.7 582.3,792.6 582.3,778.3 	"/>
	<polygon class="st20" points="594.5,785.4 594.5,799.7 607.6,792.2 607.6,777.9 	"/>
	<polygon class="st47" points="590.6,850 590.6,851.7 581.9,846.6 581.9,844.9 	"/>
	<polygon class="st46" points="581.9,844.9 590.6,850 599.3,844.9 590.5,839.8 	"/>
	<polygon class="st45" points="590.6,850 590.6,851.7 599.3,846.6 599.3,844.9 	"/>
	<polygon class="st47" points="590.6,835 590.6,846 588.6,844.8 588.6,833.9 	"/>
	<polygon class="st49" points="588.6,833.9 590.6,835 592.5,833.9 590.5,832.8 	"/>
	<polygon class="st45" points="590.6,835 590.6,846 592.5,844.9 592.5,833.9 	"/>
	<polygon class="st47" points="590.6,827.1 590.6,839.8 578.3,832.7 578.3,819.9 	"/>
	<polygon class="st47" points="578.3,819.9 590.6,827.1 602.9,819.9 590.5,812.8 	"/>
	<polygon class="st45" points="590.6,827.1 590.6,839.8 602.9,832.7 602.9,819.9 	"/>
	<path class="st46" d="M590.5,812.8l-12.3,7.1l12.3,7.1l12.3-7.1L590.5,812.8z M590.6,825.6l-9.8-5.7l9.7-5.7l9.8,5.6L590.6,825.6z"
		/>
	<polygon class="st70" points="1019.6,570.7 1019.6,573.1 1046.8,557.5 1046.8,555 	"/>
	<polygon class="st71" points="1019.6,570.7 1019.6,573.1 1017.4,571.9 1017.4,569.4 	"/>
	<polygon class="st72" points="1046.8,555 1019.6,570.7 1017.4,569.4 1044.6,553.8 	"/>
	<polygon class="st70" points="997.5,565.4 997.5,567.9 1024.7,552.3 1024.7,549.8 	"/>
	<polygon class="st71" points="997.5,565.4 997.5,567.9 995.4,566.7 995.4,564.2 	"/>
	<polygon class="st72" points="1024.7,549.8 997.5,565.4 995.4,564.2 1022.6,548.5 	"/>
	<polygon class="st73" points="1234,701.2 1234,705.2 1264.2,687.8 1264.2,683.8 	"/>
	<polygon class="st24" points="1264.2,683.8 1234,701.2 1191.4,676.5 1221.6,659.2 	"/>
	<polygon class="st74" points="1234,701.2 1234,705.2 1191.4,680.5 1191.4,676.5 	"/>
	<polygon class="st73" points="1239.5,694 1239.5,698 1264.2,683.8 1264.2,679.8 	"/>
	<polygon class="st24" points="1264.2,679.8 1239.5,694 1196.9,669.4 1221.6,655.2 	"/>
	<polygon class="st74" points="1239.5,694 1239.5,698 1196.9,673.3 1196.9,669.3 	"/>
	<polygon class="st73" points="978.3,551.1 978.3,555.1 1008.5,537.8 1008.5,533.8 	"/>
	<polygon class="st24" points="1008.5,533.8 978.3,551.1 935.7,526.5 965.9,509.1 	"/>
	<polygon class="st74" points="978.3,551.1 978.3,555.1 935.7,530.5 935.7,526.5 	"/>
	<polygon class="st73" points="983.8,544 983.8,548 1008.5,533.8 1008.5,529.8 	"/>
	<polygon class="st24" points="1008.5,529.8 983.8,544 941.2,519.3 965.9,505.1 	"/>
	<polygon class="st74" points="983.8,543.9 983.8,548 941.2,523.3 941.2,519.3 	"/>
	<polygon class="st9" points="1497.8,870.3 1497.8,894 1502.1,891.5 1502.1,867.8 	"/>
	<polygon class="st8" points="1502.1,867.8 1497.8,870.3 1371.8,797.5 1376.4,794.9 	"/>
	<polygon class="st10" points="1497.8,870.3 1497.8,894 1371.8,820.4 1371.8,797.5 	"/>
	<polygon class="st9" points="1297.7,754.2 1297.7,777.8 1302,775.4 1302,751.7 	"/>
	<polygon class="st8" points="1302,751.7 1297.7,754.2 1171.8,681.4 1176.3,678.8 	"/>
	<polygon class="st10" points="1297.7,754.2 1297.7,777.8 1171.8,704.3 1171.8,681.4 	"/>
	<polygon class="st12" points="1457.9,863.6 1457.9,867.7 1460.8,865.9 1460.8,861.9 	"/>
	<polygon class="st28" points="1460.8,861.9 1457.9,863.6 1405.7,834 1408.8,832.2 	"/>
	<polygon class="st20" points="1457.9,863.6 1457.9,867.7 1405.7,837.5 1405.7,834 	"/>
	<polygon class="st12" points="1257.3,746.9 1257.3,750.9 1260.2,749.1 1260.2,745.2 	"/>
	<polygon class="st28" points="1260.2,745.2 1257.3,746.9 1205.1,717.3 1208.2,715.5 	"/>
	<polygon class="st20" points="1257.3,746.9 1257.3,750.9 1205.1,720.7 1205.1,717.3 	"/>
	<polygon class="st9" points="1029.7,597.2 1029.7,620.9 1034,618.4 1034,594.8 	"/>
	<polygon class="st8" points="1034,594.8 1029.7,597.2 903.8,524.4 908.3,521.8 	"/>
	<polygon class="st10" points="1029.7,597.2 1029.7,620.9 903.8,547.4 903.8,524.4 	"/>
	<polygon class="st9" points="829.6,481.1 829.6,504.8 833.9,502.3 833.9,478.6 	"/>
	<polygon class="st8" points="833.9,478.6 829.6,481.1 703.7,408.3 708.2,405.7 	"/>
	<polygon class="st10" points="829.6,481.1 829.6,504.8 703.7,431.2 703.7,408.3 	"/>
	<polygon class="st12" points="989.8,590.5 989.8,594.6 992.7,592.8 992.7,588.9 	"/>
	<polygon class="st28" points="992.7,588.9 989.8,590.5 937.6,561 940.8,559.2 	"/>
	<polygon class="st20" points="989.8,590.5 989.8,594.6 937.6,564.4 937.6,561 	"/>
	<polygon class="st12" points="789.2,473.8 789.2,477.8 792.1,476 792.1,472.1 	"/>
	<polygon class="st28" points="792.1,472.1 789.2,473.8 737,444.2 740.2,442.4 	"/>
	<polygon class="st20" points="789.2,473.8 789.2,477.8 737,447.6 737,444.2 	"/>
	<path class="st43" d="M925.2,845.6c-0.3,3.5-3.3,6.1-6.8,5.9c-3.5-0.3-6.1-3.3-5.9-6.8c0.3-3.3,3-5.9,6.4-5.9
		C922.5,838.9,925.3,842,925.2,845.6z"/>
	<path class="st43" d="M975.3,873.5c-0.3,3.5-3.3,6.1-6.8,5.9c-3.5-0.3-6.1-3.3-5.9-6.8c0.3-3.3,3-5.9,6.4-5.9
		C972.6,866.8,975.5,869.8,975.3,873.5z"/>
	<path class="st43" d="M1144,777.2c-0.3,3.5-3.3,6.1-6.8,5.9c-3.5-0.3-6.1-3.3-5.9-6.8c0.3-3.3,3-5.9,6.3-5.9
		C1141.3,770.5,1144.1,773.6,1144,777.2z"/>
	<polygon class="st10" points="1141.9,762.6 969,862.3 969,872.3 1141.9,772 	"/>
	<polygon class="st9" points="969,862.3 913.3,830 913.3,839.9 969,872.3 	"/>
	<polygon class="st8" points="1141.9,762.6 1086,730.3 913.3,830 969,862.3 	"/>
	<polygon class="st73" points="981.3,840.5 981.3,846.4 937.1,820.9 937.1,815.1 	"/>
	<polygon class="st24" points="937.1,815.1 981.3,840.5 1043.7,804.4 999.5,779 	"/>
	<polygon class="st74" points="981.3,840.5 981.3,846.3 1043.7,810.2 1043.7,804.3 	"/>
	<polygon class="st10" points="1133.3,644.2 1133.3,767.7 1141.9,762.7 1141.9,639.2 	"/>
	<polygon class="st75" points="1141.9,639.2 1133.3,644.2 1125.1,639.5 1133.9,634.5 	"/>
	<polygon class="st9" points="1133.3,644.2 1133.3,767.7 1125.1,763 1125.1,639.5 	"/>
	<polygon class="st10" points="1085.5,617.7 1085.5,740.1 1094.2,735 1094.2,612.7 	"/>
	<polygon class="st75" points="1094.2,612.7 1085.5,617.7 1077.4,613 1086.2,608 	"/>
	<polygon class="st9" points="1085.5,617.7 1085.5,740.1 1077.4,735.4 1077.4,613 	"/>
	<polygon class="st76" points="977.4,734.9 977.4,784.9 930.1,757.2 930.1,707.5 	"/>
	<polygon class="st18" points="930.1,707.5 977.4,734.9 1133.3,645 1086.1,617.4 	"/>
	<polygon class="st17" points="977.4,734.9 977.4,784.9 1133.3,694.5 1133.3,645 	"/>
	<polygon class="st10" points="921.5,712.7 921.5,835 930.1,830 930.1,707.6 	"/>
	<polygon class="st75" points="930.1,707.6 921.5,712.7 913.3,708 922.1,703 	"/>
	<polygon class="st9" points="921.5,712.7 921.5,835 913.3,830.3 913.3,708 	"/>
	<polygon class="st10" points="968.7,740 968.7,862.3 977.4,857.3 977.4,734.9 	"/>
	<polygon class="st75" points="977.4,734.9 968.7,740 960.6,735.3 969.4,730.3 	"/>
	<polygon class="st9" points="968.7,740 968.7,862.3 960.6,857.6 960.6,735.3 	"/>
	<polygon class="st10" points="1141.9,630.6 969,730.3 969,740.3 1141.9,640.1 	"/>
	<polygon class="st9" points="969,730.3 913.3,698 913.3,708 969,740.3 	"/>
	<polygon class="st8" points="1141.9,630.6 1086,598.3 913.3,698 969,730.3 	"/>
	<polygon class="st73" points="1063.3,665.4 1063.3,671.3 1019.1,645.8 1019.1,640 	"/>
	<polygon class="st24" points="1019.1,640 1063.3,665.4 1125.7,629.3 1081.5,603.8 	"/>
	<polygon class="st74" points="1063.3,665.4 1063.3,671.2 1125.7,635.1 1125.7,629.2 	"/>
	<polygon class="st73" points="1055.3,654.9 1055.3,660.8 1019.1,639.9 1019.1,634.1 	"/>
	<polygon class="st24" points="1019.1,634.1 1055.3,654.9 1117.7,618.8 1081.5,598 	"/>
	<polygon class="st74" points="1055.3,654.9 1055.3,660.7 1117.7,624.6 1117.7,618.7 	"/>
	<polygon class="st10" points="1114.1,660.3 997.9,728 997.9,769.5 1114.1,701.9 	"/>
	<path class="st9" d="M997.9,728v41.6l116.1-67.6v-41.6L997.9,728z M1109.4,699.3l-106.8,62.2v-30.8l106.8-62.3V699.3z"/>
	<polygon class="st12" points="1048.7,712.4 1048.7,715.6 1045.7,713.8 1045.7,710.6 	"/>
	<polygon class="st49" points="1045.7,710.6 1048.7,712.4 1069.9,699.7 1066.8,697.9 	"/>
	<polygon class="st20" points="1048.7,712.4 1048.7,715.6 1069.9,702.9 1069.9,699.7 	"/>
	<polygon class="st45" points="963,697.6 963,714.2 946,704.3 946,687.8 	"/>
	<polygon class="st46" points="946,687.8 963,697.6 978.9,688.4 961.8,678.7 	"/>
	<polygon class="st47" points="963,697.6 963,714.2 978.9,705 978.9,688.4 	"/>
	<polygon class="st15" points="963,704.3 963,711.2 946,701.3 946,694.5 	"/>
	<polygon class="st16" points="963,704.3 963,711.2 978.9,702 978.9,695.1 	"/>
	<path class="st16" d="M954.1,682.2v6.4c0,1.7,3.9,3.1,8.6,3.1s8.6-1.4,8.6-3.1v-6.4H954.1z"/>
	<path class="st48" d="M971.3,682.2c0,1.7-3.9,3.1-8.6,3.1s-8.6-1.4-8.6-3.1s3.9-3.1,8.6-3.1S971.3,680.5,971.3,682.2z"/>
	<polygon class="st32" points="998.4,679.9 998.4,696.5 981.5,686.6 981.5,670 	"/>
	<polygon class="st31" points="981.5,670 998.4,679.9 1014.4,670.7 997.2,660.9 	"/>
	<polygon class="st33" points="998.4,679.9 998.4,696.5 1014.4,687.2 1014.4,670.7 	"/>
	<polygon class="st77" points="998.4,686.6 998.4,693.4 981.5,683.5 981.5,676.7 	"/>
	<polygon class="st78" points="998.4,686.6 998.4,693.4 1014.4,684.2 1014.4,677.4 	"/>
	<path class="st16" d="M989.5,664.4v6.4c0,1.7,3.9,3.1,8.6,3.1s8.6-1.4,8.6-3.1v-6.4H989.5z"/>
	<path class="st48" d="M1006.8,664.4c0,1.7-3.9,3.1-8.6,3.1s-8.6-1.4-8.6-3.1s3.9-3.1,8.6-3.1S1006.8,662.7,1006.8,664.4z"/>
	<polygon class="st70" points="1022.7,686 1022.7,688.5 1049.9,672.9 1049.9,670.4 	"/>
	<polygon class="st71" points="1022.7,686 1022.7,688.5 1020.6,687.3 1020.6,684.8 	"/>
	<polygon class="st72" points="1049.9,670.4 1022.7,686 1020.6,684.8 1047.8,669.2 	"/>
	<polygon class="st79" points="711.9,859.7 676.9,879.9 710.8,899.3 745.6,879.1 	"/>
	<g id="barberia1Crema1">
		<polygon class="st17" points="497.6,759.6 497.6,771.4 521.8,757.3 521.8,745.4 		"/>
		
			<linearGradient id="SVGID_2_" gradientUnits="userSpaceOnUse" x1="-1197.8824" y1="659.9446" x2="-1240.6425" y2="680.7846" gradientTransform="matrix(-1 0 0 -1 -715.9399 1414)">
			<stop  offset="0" style="stop-color:#A5AD66"/>
			<stop  offset="0.29" style="stop-color:#A1AB67"/>
			<stop  offset="0.59" style="stop-color:#94A469"/>
			<stop  offset="0.91" style="stop-color:#7F9A6C"/>
			<stop  offset="1" style="stop-color:#77966D"/>
		</linearGradient>
		<polygon class="st80" points="521.8,745.4 497.6,759.6 474.8,746.4 499.3,732.5 		"/>
		<polygon class="st19" points="497.6,759.5 497.6,771.4 474.8,758.2 474.8,746.4 		"/>
		<path class="st79" d="M474.8,746.4l22.8,13.2l24.3-14.1l-22.5-13L474.8,746.4z M478.6,746.4l20.7-11.7l18.6,10.7l-20.3,11.8
			L478.6,746.4z"/>
	</g>
</g>
</svg>
