<?xml version="1.0" encoding="utf-8"?>
<!-- Generator: Adobe Illustrator 24.0.0, SVG Export Plug-In . SVG Version: 6.00 Build 0)  -->
<svg version="1.1" id="barberia1-2" xmlns="http://www.w3.org/2000/svg" xmlns:xlink="http://www.w3.org/1999/xlink" x="0px"
	 y="0px" viewBox="0 0 982.5 870.1" style="enable-background:new 0 0 982.5 870.1;" xml:space="preserve">
<style type="text/css">
	.st0{fill:#ECB05B;}
	.st1{fill:#D29646;}
	.st2{fill:#BE823C;}
	.st3{fill:#E1A454;}
	.st4{fill:#E4A267;}
	.st5{fill:#E4DCD1;}
	.st6{fill:#C9B8B1;}
	.st7{fill:#F1EBE4;}
	.st8{fill:#8E480E;}
	.st9{fill:#5E2B02;}
	.st10{fill:#713802;}
	.st11{fill:#84B2DE;}
	.st12{fill:#C8C8C8;}
	.st13{fill:#D2D2D2;}
	.st14{fill:#6F6868;}
	.st15{fill:#605858;}
	.st16{fill:#514747;}
	.st17{fill:#D6DADA;}
	.st18{fill:#EAE8E8;}
	.st19{fill:#C9C9C9;}
	.st20{fill:#D5D9D9;}
	.st21{fill:#E21C24;}
	.st22{fill:#1C75B1;}
	.st23{fill:none;}
	.st24{fill:#E7E8E9;}
	.st25{fill:#484A50;}
	.st26{fill:#5E6364;}
	.st27{fill:#323438;}
	.st28{fill:#F1F2FF;}
	.st29{fill:#68B7BC;}
	.st30{fill:#868787;}
	.st31{fill:#F4C040;}
	.st32{fill:#F0A540;}
	.st33{fill:#CD8E36;}
	.st34{fill:url(#SVGID_1_);}
	.st35{fill:#80553A;}
	.st36{fill:#74462E;}
	.st37{fill:#80BA75;}
	.st38{fill:#89C180;}
	.st39{fill:#4F9C6A;}
	.st40{fill:#A8CEDD;}
	.st41{fill:#D8E6EF;}
	.st42{fill:#58595B;}
	.st43{fill:#414042;}
	.st44{fill:#757677;}
	.st45{fill:#CADDE6;}
	.st46{fill:#E3EEF3;}
	.st47{fill:#ACC9D6;}
	.st48{fill:#766B6B;}
	.st49{fill:#E6E7E8;}
	.st50{fill:#96799E;}
	.st51{fill:#B89ABF;}
	.st52{fill:#D1B9D6;}
	.st53{fill:#B2B4B6;}
	.st54{fill:#A8723F;}
	.st55{fill:#BF8252;}
	.st56{fill:#D79D66;}
	.st57{fill:#92C1CF;}
	.st58{fill:#A8D1E1;}
	.st59{fill:#C0E3F4;}
	.st60{fill:#DE3C02;}
	.st61{fill:#A2366D;}
	.st62{fill:#005981;}
	.st63{fill:#007492;}
	.st64{fill:#2C3C73;}
	.st65{fill:#942356;}
	.st66{fill:#781544;}
	.st67{fill:#611F39;}
	.st68{fill:#772C48;}
	.st69{fill:#4D0026;}
	.st70{fill:#888A8D;}
	.st71{fill:#9C9EA1;}
	.st72{fill:#C6C8C9;}
	.st73{fill:#CDC7C7;}
	.st74{fill:#D5CFCF;}
	.st75{fill:#B1B1B1;}
	.st76{fill:#BCBCBC;}
	.st77{fill:#509B9B;}
	.st78{fill:#398592;}
	.st79{fill:#F2F3FF;}
	.st80{fill:url(#SVGID_2_);}
</style>
<g id="contenedorBarberia1">
	<polygon class="st0" points="527.6,848.1 982.5,583.3 454.9,279 0,541.3 	"/>
	<polygon class="st1" points="527.6,848.1 527.6,870.1 982.5,605.4 982.5,583.3 	"/>
	<polygon class="st2" points="0,541.3 0,563.4 527.6,870.1 527.6,848.1 	"/>
	<polygon class="st3" points="965.2,593.4 982.5,583.3 454.9,279 437.5,289 	"/>
	<polygon class="st4" points="947.9,603.5 965.3,593.4 437.6,289 420.1,299.1 	"/>
	<polygon class="st3" points="913.2,623.7 930.6,613.6 403,309.2 385.5,319.3 	"/>
	<polygon class="st4" points="896,633.8 913.3,623.7 385.6,319.3 368.2,329.4 	"/>
	<polygon class="st3" points="861.3,654 878.7,643.9 351,339.5 333.5,349.5 	"/>
	<polygon class="st4" points="843.9,664.1 861.3,654 333.7,349.5 316.3,359.6 	"/>
	<polygon class="st3" points="809.3,684.3 826.6,674.2 299,369.7 281.6,379.8 	"/>
	<polygon class="st4" points="792,694.4 809.3,684.3 281.7,379.8 264.2,389.9 	"/>
	<polygon class="st3" points="757.3,714.5 774.7,704.4 247.1,400 229.6,410.1 	"/>
	<polygon class="st4" points="740,724.6 757.3,714.5 229.7,410.1 212.3,420.1 	"/>
	<polygon class="st3" points="705.3,744.8 722.7,734.7 195.1,430.3 177.6,440.3 	"/>
	<polygon class="st4" points="688,754.9 705.4,744.8 177.8,440.4 160.3,450.4 	"/>
	<polygon class="st3" points="653.4,775.1 670.7,765 143.1,460.6 125.6,470.6 	"/>
	<polygon class="st4" points="636.1,785.2 653.4,775.1 125.8,470.7 108.3,480.7 	"/>
	<polygon class="st3" points="601.4,805.3 618.8,795.3 91.1,490.9 73.7,500.9 	"/>
	<polygon class="st4" points="584.1,815.4 601.4,805.3 73.8,500.9 56.4,511 	"/>
	<polygon class="st3" points="549.4,835.6 566.8,825.5 39.2,521.1 21.7,531.2 	"/>
	<polygon class="st4" points="532.1,845.7 549.5,835.6 21.9,531.2 4.4,541.3 	"/>
	<polygon class="st5" points="440.3,9.5 966.1,313 966.1,593.2 440.3,287.5 	"/>
	<polygon class="st6" points="966.1,313 982.5,303.5 982.5,583.6 966.1,593.2 	"/>
	<polygon class="st7" points="440.3,9.5 456.8,0 982.5,303.5 966.1,313 	"/>
	<polygon class="st6" points="456.8,19.1 16.5,271 16.5,551 456.8,297 	"/>
	<polygon class="st5" points="16.5,271 0,261.4 0,541.4 16.5,551 	"/>
	<polygon class="st7" points="456.8,19.1 440.3,9.5 0,261.4 16.5,271 	"/>
	<polygon class="st7" points="346.6,295.6 388.7,271.4 415.1,286.7 346.6,326.3 	"/>
	<polygon class="st6" points="415.1,58.9 415.1,286.7 388.7,271.4 388.7,74.2 	"/>
	<polygon class="st8" points="346.6,307.1 346.6,316.8 415.1,277.2 406.8,272.4 	"/>
	<polygon class="st9" points="346.6,316.8 346.6,326.3 415.1,286.7 415.1,277.2 	"/>
	<polygon class="st10" points="407.3,63.5 407.3,281.8 399,277 399,68.2 	"/>
	<polygon class="st9" points="407.3,63.5 407.3,281.8 415.1,277.2 415.1,58.9 	"/>
	<polygon class="st9" points="346.6,98.4 346.6,107.8 415.1,68.3 415.1,58.8 	"/>
	<polygon class="st9" points="346.6,98.4 346.6,316.8 354.4,312.2 354.4,93.9 	"/>
	<polygon class="st11" points="354.4,302.6 399,276.9 399,77.6 354.4,103.3 	"/>
	<polygon class="st7" points="203.8,377.4 246,353.2 272.4,368.5 203.8,408 	"/>
	<polygon class="st6" points="272.4,140.7 272.4,368.5 246,353.2 246,155.9 	"/>
	<polygon class="st8" points="203.9,388.9 203.8,398.5 272.4,359 264.1,354.2 	"/>
	<polygon class="st9" points="203.8,398.5 203.8,408 272.4,368.5 272.4,359 	"/>
	<polygon class="st10" points="264.5,145.2 264.5,363.6 256.2,358.7 256.2,150 	"/>
	<polygon class="st9" points="264.5,145.2 264.5,363.6 272.4,359 272.4,140.7 	"/>
	<polygon class="st9" points="203.8,180.1 203.8,189.6 272.4,150.1 272.4,140.6 	"/>
	<polygon class="st9" points="203.9,180.2 203.9,398.5 211.7,394 211.7,175.7 	"/>
	<polygon class="st11" points="211.7,384.4 256.2,358.7 256.2,159.4 211.7,185.1 	"/>
	<polygon class="st7" points="61.1,459.2 103.2,434.9 129.6,450.3 61.1,489.8 	"/>
	<polygon class="st6" points="129.6,222.4 129.6,450.3 103.2,434.9 103.2,237.7 	"/>
	<polygon class="st8" points="61.1,470.7 61.1,480.3 129.6,440.8 121.3,435.9 	"/>
	<polygon class="st9" points="61.1,480.3 61.1,489.8 129.6,450.3 129.6,440.8 	"/>
	<polygon class="st10" points="121.8,227 121.8,445.3 113.5,440.5 113.5,231.7 	"/>
	<polygon class="st9" points="121.8,227 121.8,445.3 129.6,440.8 129.6,222.4 	"/>
	<polygon class="st9" points="61.1,261.9 61.1,271.4 129.6,231.8 129.6,222.3 	"/>
	<polygon class="st9" points="61.1,262 61.1,480.3 68.9,475.7 68.9,257.5 	"/>
	<polygon class="st11" points="68.9,466.2 113.4,440.4 113.4,241.2 68.9,266.8 	"/>
	<polygon class="st12" points="656.2,713.3 656.2,767.2 686.4,749.9 690.8,693.4 	"/>
	<polygon class="st12" points="690.8,693.4 656.2,713.3 621.4,693.3 656,673.4 	"/>
	<polygon class="st13" points="656.2,713.3 656.2,767.2 627.3,750.6 621.4,693.3 	"/>
	<path class="st14" d="M656,673.4l-34.6,19.9l34.8,20.1l34.6-19.9L656,673.4z M627.5,693.3l28.5-16.4l28.7,16.6l-28.5,16.4
		L627.5,693.3z"/>
	<polygon class="st13" points="656,676.9 656.2,709.9 684.7,693.4 	"/>
	<polygon class="st15" points="621.4,693.3 656.2,713.3 656,721.8 622.5,703.2 	"/>
	<polygon class="st16" points="656,721.8 690.1,702.4 690.8,693.4 656.2,713.3 	"/>
	<polygon class="st16" points="627.5,693.3 634.5,697.3 656.1,684.6 656,676.9 	"/>
	<polygon class="st15" points="656.1,684.6 678.2,697.1 684.7,693.4 656,676.9 	"/>
	<polygon class="st17" points="53.4,310.6 53.4,317.6 27.1,302.4 27.1,295.4 	"/>
	<polygon class="st18" points="27.1,295.4 53.4,310.6 59,307.3 32.7,292.1 	"/>
	<polygon class="st19" points="53.4,310.6 53.4,317.6 59,314.4 59,307.3 	"/>
	<polygon class="st17" points="53.4,380.9 53.4,388 27.1,372.7 27.1,365.7 	"/>
	<polygon class="st18" points="27.1,365.7 53.4,380.9 59,377.6 32.7,362.5 	"/>
	<polygon class="st19" points="53.4,380.9 53.4,388 59,384.6 59,377.6 	"/>
	<path class="st20" d="M37.3,291.1V389c0,2.7,6.2,4.9,13.7,4.9s13.7-2.2,13.7-4.9v-97.9H37.3z"/>
	<path class="st12" d="M51,393.9c7.6,0,13.7-2.2,13.7-4.9v-97.9H51V393.9z"/>
	<path class="st18" d="M64.7,291.1c0,2.7-6.2,4.9-13.7,4.9s-13.7-2.2-13.7-4.9s6.2-4.9,13.7-4.9S64.7,288.4,64.7,291.1z"/>
	<path class="st21" d="M51,313.2c6.5,0,11.9-1.5,13.7-3.5v-10.9c0,2.7-6.2,4.9-13.7,4.9s-13.7-2.2-13.7-4.9v10.9
		C39.1,311.7,44.5,313.2,51,313.2z"/>
	<path class="st22" d="M51,331.4c6.5,0,11.9-1.5,13.7-3.5V317c0,2.7-6.2,4.9-13.7,4.9s-13.7-2.2-13.7-4.9v10.9
		C39.1,329.9,44.5,331.4,51,331.4z"/>
	<path class="st21" d="M51,349.6c6.5,0,11.9-1.5,13.7-3.5v-11c0,2.7-6.2,4.9-13.7,4.9s-13.7-2.2-13.7-4.9V346
		C39.1,348.1,44.5,349.6,51,349.6z"/>
	<path class="st22" d="M51,367.8c6.5,0,11.9-1.5,13.7-3.5v-10.9c0,2.7-6.2,4.9-13.7,4.9s-13.7-2.2-13.7-4.9v10.9
		C39.1,366.4,44.5,367.8,51,367.8z"/>
	<path class="st21" d="M51,386c6.5,0,11.9-1.5,13.7-3.5v-10.9c0,2.7-6.2,4.9-13.7,4.9s-13.7-2.2-13.7-4.9v10.9
		C39.1,384.6,44.5,386,51,386z"/>
	<path class="st18" d="M51,286.1c-7.6,0-13.7,2.2-13.7,4.9S43.5,296,51,296s13.7-2.2,13.7-4.9S58.6,286.1,51,286.1z M60.2,293.4
		c-3,1-6.1,1.4-9.2,1.4c-3.1,0-6.3-0.4-9.2-1.4c-2.2-0.8-3.1-1.7-3.1-2.3s1-1.5,3.1-2.3c3-1,6.1-1.4,9.2-1.3
		c3.1-0.1,6.2,0.4,9.2,1.4c2.2,0.8,3.1,1.7,3.1,2.3S62.4,292.6,60.2,293.4L60.2,293.4z"/>
	<path class="st23" d="M41.7,293.4c3,1,6.1,1.4,9.3,1.4c3.1,0,6.3-0.4,9.2-1.4c1.2-0.3,2.2-1,3-1.9c-0.8-0.9-1.8-1.5-3-1.9
		c-3-1-6.1-1.4-9.2-1.3c-3.1,0-6.2,0.4-9.2,1.4c-1.2,0.3-2.2,1-3,1.9C39.6,292.4,40.6,293,41.7,293.4z"/>
	<path class="st12" d="M41.7,289.7c3-1,6.1-1.4,9.3-1.4c3.1,0,6.3,0.4,9.2,1.4c1.2,0.3,2.2,1,3,1.9c0.1-0.1,0.1-0.2,0.1-0.4
		c0-0.5-1-1.5-3.1-2.3c-3-1-6.1-1.4-9.2-1.4c-3.1,0-6.2,0.4-9.2,1.4c-2.2,0.8-3.1,1.7-3.1,2.3c0,0.1,0,0.3,0.1,0.4
		C39.6,290.6,40.6,290,41.7,289.7z"/>
	<polygon class="st24" points="336.7,126.4 290.4,153 290.4,238.4 336.7,211.7 	"/>
	<polygon class="st25" points="286.8,150.9 290.4,153 290.4,238.4 286.8,236.3 	"/>
	<polygon class="st26" points="286.8,150.9 290.4,153 336.7,126.4 333.1,124.3 	"/>
	<path class="st27" d="M290.4,153v85.4l46.3-26.6v-85.3L290.4,153z M330.7,208.3l-34.4,19.8v-71.7l34.4-19.8V208.3z"/>
	<polygon class="st26" points="296.3,225.6 296.3,228.2 330.7,208.4 328.5,207.1 	"/>
	<polygon class="st25" points="328.5,137.9 330.7,136.6 330.7,208.4 328.5,207.1 	"/>
	<path class="st27" d="M300.3,209.4c0.2-1.8,0.7-3.5,1.3-5.2l0.6-1.9c0.4-1.4-1.1-6.9-1.2-8c0-0.1,0-0.2,0.1-0.3l0.6-0.4l0.2-0.1
		c0.5-0.4,0.9-0.9,1.4-1.4l0.1-0.1h-0.3c-0.8,0.1-1.5,0.4-2.1,0.7c-0.3,0.1-0.3,0.1-0.4-0.1c-0.1-0.8,0-1.7,0.2-2.5
		c0.1-0.3,0.3-0.6,0.6-0.7c1.5-0.7,2.6,0.2,3.9,0.3c0.3,0,0.6-0.1,0.9-0.1c0.3-1.4,0.9-2.7,1.7-3.9c0.3-0.5,0.6-0.9,1-1.4
		c0.1-0.2,0.3-0.4,0.5-0.6c0.2-0.2,2.7-3.9,1.9-6.3s-2.5-1.9-2.6-1.9c0.1-0.3,2-4.4,0.6-4.7c-0.9,0.1-1.7,0.4-2.5,0.9
		c-1.7,1-3.4,2.2-4.9,3.4c-0.1,0.1-0.4-0.6-0.5-0.6c-0.4-0.5-0.6-1.1-0.6-1.7c-0.4-3.8,4.7-7.6,7.2-9.4c0.9-0.6,1.9-1.2,2.8-1.9
		c3.1-1.8,6.3-3,8.8-2.6c1.8,0.3,4.1,1,5.2,2.3c-0.4,0.3-0.7,0.7-0.9,1.1c-1.5,1.9-2.2,4.5-1.6,6c0.3,0.5,0.4,1.1,0.5,1.7
		c0,0.5-0.1,1.1-0.2,1.6c-0.4,2.3-1.4,4.9-1.4,7.1c-0.2,0.8,0.1,1.6,0.6,2.2c0.2,0.1,0.4,0.2,0.6,0.3l-0.6,0.2
		c-0.9,0.2-1.8-0.3-2-1.2c-0.3-1-0.5-2.1-0.3-3.1c0.1-0.8,0.2-1.5,0.3-2.3c0.2-1.7-0.7-2.9-2-2.6c-0.3,0.1-0.5,0.2-0.8,0.3
		c-0.6,0.4-1.2,0.9-1.6,1.5c-0.6,0.9-1,2-1.1,3.1c-0.2,1.2-0.2,2.5,0.1,3.7c1.2,2.2,2.3,4.4,3.2,6.6c0.2,1.4-2.6,3.4-3.1,5
		c-1,3.3,0.5,6.6-1.9,9c-2.6,2.7-5.6,5.1-8.8,7.1c-1,0.6-2.1,1-3.2,1.2c-0.1,0-0.2,0-0.3-0.1C300.3,209.6,300.3,209.5,300.3,209.4z"
		/>
	<polygon class="st24" points="194.1,208.7 147.8,235.3 147.8,320.6 194.1,294 	"/>
	<polygon class="st25" points="144.2,233.2 147.8,235.3 147.8,320.6 144.2,318.5 	"/>
	<polygon class="st26" points="144.2,233.2 147.8,235.3 194.1,208.7 190.5,206.5 	"/>
	<path class="st27" d="M147.8,235.3v85.4l46.3-26.6v-85.3L147.8,235.3z M188.2,290.6l-34.4,19.8v-71.7l34.4-19.8L188.2,290.6z"/>
	<polygon class="st26" points="153.8,307.8 153.8,310.4 188.2,290.6 185.9,289.3 	"/>
	<polygon class="st25" points="185.9,220.2 188.2,218.9 188.2,290.6 185.9,289.3 	"/>
	<path class="st27" d="M157.7,292.1c0.2-1.8,0.6-3.5,1.3-5.2l0.6-1.8c0.4-1.4-1.1-6.9-1.2-8c0-0.1,0.1-0.2,0.1-0.2l0.6-0.4l0.3-0.1
		c0.4-0.3,0.9-1,1.4-1.4l0.1-0.1h-0.2c-0.8,0.1-1.5,0.4-2.2,0.7c-0.2,0.1-0.3,0.1-0.4-0.1c-0.1-0.8,0-1.7,0.3-2.5
		c0.1-0.3,0.3-0.6,0.6-0.7c1.5-0.7,2.6,0.2,3.9,0.3c0.3,0,0.6-0.1,0.9-0.1c0.3-1.4,0.9-2.7,1.7-3.9c0.3-0.5,0.6-0.9,1-1.4
		c0.2-0.2,0.3-0.4,0.5-0.5s2.7-3.9,1.9-6.3s-2.5-1.9-2.6-1.9c0.1-0.2,2-4.4,0.6-4.7c-0.9,0.1-1.8,0.4-2.5,0.9
		c-1.7,1-3.3,2.2-4.9,3.4c-0.1,0.1-0.4-0.5-0.5-0.5c-0.4-0.5-0.6-1.1-0.6-1.7c-0.4-3.8,4.7-7.6,7.3-9.4c0.9-0.6,1.9-1.2,2.8-1.9
		c3.1-1.8,6.3-3,8.8-2.6c1.8,0.3,4.1,1,5.2,2.3c-0.4,0.3-0.7,0.6-0.9,1c-1.5,1.8-2.1,4.5-1.5,6c0.3,0.5,0.4,1.1,0.6,1.7
		c0,0.5-0.1,1.1-0.2,1.6c-0.4,2.3-1.4,4.9-1.4,7.1c-0.2,0.8,0.1,1.6,0.6,2.2c0.2,0.1,0.4,0.2,0.6,0.2l-0.6,0.2
		c-0.9,0.2-1.8-0.3-2-1.2c-0.3-1-0.5-2.1-0.3-3.1c0.1-0.8,0.2-1.5,0.3-2.3c0.2-1.7-0.7-2.9-2-2.6c-0.3,0.1-0.5,0.2-0.8,0.3
		c-0.7,0.4-1.2,1-1.6,1.6c-0.6,0.9-1,2-1.1,3.1c-0.3,1.2-0.2,2.5,0.1,3.7c1.2,2.2,2.3,4.4,3.2,6.6c0.2,1.4-2.6,3.4-3.1,5
		c-1,3.3,0.6,6.6-1.9,9c-2.6,2.7-5.6,5.1-8.8,7.1c-1,0.6-2.1,1-3.2,1.2c-0.1,0-0.2,0-0.3-0.1C157.7,292.3,157.7,292.3,157.7,292.1z"
		/>
	<polygon class="st13" points="527.6,780.7 527.6,848.3 480.3,820.6 480.3,753.4 	"/>
	<polygon class="st18" points="480.3,753.4 527.6,780.7 649.5,710.5 602.3,683 	"/>
	<polygon class="st12" points="527.6,780.7 527.6,848.3 649.5,777.6 649.5,710.5 	"/>
	<polygon class="st25" points="527.6,770.1 527.6,780.7 480.3,753.4 480.3,743.1 	"/>
	<polygon class="st26" points="480.3,743.1 527.6,770.1 649.5,700.6 602.3,673.4 	"/>
	<polygon class="st27" points="527.6,770.1 527.6,780.7 649.5,710.5 649.5,700.6 	"/>
	<polygon class="st28" points="540.7,712.9 580.5,736.1 640,701.4 600.3,678.5 	"/>
	<polygon class="st29" points="566.3,702.2 600.1,682.7 632.5,701.4 598.8,721 	"/>
	<polygon class="st12" points="600.1,682.7 600.1,695.3 577.4,708.6 566.3,702.2 	"/>
	<polygon class="st20" points="600.1,682.7 600.1,695.3 621.5,707.8 632.5,701.4 	"/>
	<polygon class="st29" points="548.6,712.3 563.4,703.8 595.8,722.6 581.2,731.1 	"/>
	<polygon class="st12" points="563.4,703.8 563.4,716.5 559.8,718.7 548.6,712.3 	"/>
	<polygon class="st20" points="563.4,703.8 563.4,716.5 584.7,729 595.8,722.6 	"/>
	<polygon class="st30" points="615.5,699.2 615.5,701.6 617.9,700.2 617.9,697.8 	"/>
	<polygon class="st31" points="617.9,697.8 615.5,699.2 599.2,689.8 601.6,688.4 	"/>
	<polygon class="st32" points="615.5,699.2 615.5,701.6 599.2,692.2 599.2,689.8 	"/>
	<polygon class="st33" points="617.7,700.4 617.7,712.7 620,711.3 620,699 	"/>
	<polygon class="st31" points="620,699 617.7,700.4 615.4,699.1 617.8,697.8 	"/>
	<polygon class="st32" points="617.7,700.4 617.7,712.7 615.4,711.3 615.4,699.1 	"/>
	<polygon class="st20" points="58.8,524.9 58.8,564.1 34.3,549.8 28.7,507.4 	"/>
	
		<linearGradient id="SVGID_1_" gradientUnits="userSpaceOnUse" x1="-2507.1797" y1="975.9307" x2="-2560.1597" y2="1001.7507" gradientTransform="matrix(1 0 0 -1 2585.29 1494)">
		<stop  offset="0" style="stop-color:#A4AC66"/>
		<stop  offset="0.29" style="stop-color:#A0AA67"/>
		<stop  offset="0.6" style="stop-color:#93A369"/>
		<stop  offset="0.92" style="stop-color:#7E986C"/>
		<stop  offset="1" style="stop-color:#77956D"/>
	</linearGradient>
	<polygon class="st34" points="28.7,507.4 58.8,524.9 87,508.5 56.6,491.3 	"/>
	<polygon class="st12" points="58.8,524.9 58.8,564.1 82.2,550.5 87,508.5 	"/>
	<path class="st28" d="M56.6,491.3l-27.9,16.1l30,17.5L87,508.5L56.6,491.3z M58.7,522l-25.2-14.6l23-13.2l25.6,14.5L58.7,522z"/>
	<polygon class="st35" points="58.7,493.2 58.7,512 51,507.6 51,488.8 	"/>
	<polygon class="st36" points="58.7,493.2 58.7,512 66.5,507.5 66.5,488.7 	"/>
	<polygon class="st37" points="58.7,473 58.7,505.8 37.7,493.6 37.7,460.8 	"/>
	<polygon class="st38" points="37.7,460.8 58.7,473 79.9,460.8 58.8,448.6 	"/>
	<polygon class="st39" points="58.7,473 58.7,505.8 79.9,493.5 79.9,460.8 	"/>
	<polygon class="st10" points="626.2,375.8 637.3,382.2 637.2,436.7 626.2,430.1 	"/>
	<polygon class="st9" points="637.3,382.2 666.8,365 666.8,419.5 637.2,436.7 	"/>
	<polygon class="st8" points="626.2,375.8 656,358.7 666.8,365 637.3,382.2 	"/>
	<polygon class="st10" points="436.8,265.4 447.8,271.8 447.7,326.3 436.8,319.6 	"/>
	<polygon class="st9" points="447.8,271.8 477.3,254.6 477.3,309.1 447.7,326.3 	"/>
	<polygon class="st8" points="436.8,265.4 466.5,248.2 477.3,254.6 447.8,271.8 	"/>
	<polygon class="st10" points="436.8,249.2 637.3,365.7 637.2,382.2 436.8,265.4 	"/>
	<polygon class="st9" points="637.3,365.7 666.8,348.5 666.8,365 637.2,382.2 	"/>
	<polygon class="st8" points="436.8,249.2 466.5,232 666.8,348.5 637.3,365.7 	"/>
	<polygon class="st40" points="461.8,120.7 663,236.8 663,350.7 461.8,234.6 	"/>
	<polygon class="st9" points="666.8,234.6 663,236.8 663,350.7 666.8,348.5 	"/>
	<polygon class="st8" points="666.8,234.6 663,236.8 461.8,120.7 465.6,118.5 	"/>
	<path class="st10" d="M461.8,120.7v113.9L663,350.7V236.8L461.8,120.7z M468,131.4l188.9,109V340L468,231V131.4z"/>
	<polygon class="st8" points="656.9,337.4 656.9,340 468,231 470.3,229.6 	"/>
	<polygon class="st9" points="470.3,132.6 468,131.4 468,231 470.3,229.6 	"/>
	<polygon class="st41" points="470.3,132.6 656.9,240.4 470.3,229.6 	"/>
	<polygon class="st27" points="719.5,200.8 719.5,480.2 745.5,465 745.5,185.8 	"/>
	<polygon class="st26" points="745.5,185.8 719.5,200.8 652.7,162.3 678.5,147.2 	"/>
	<polygon class="st25" points="719.5,200.8 719.5,480.2 652.7,441.4 652.7,162.3 	"/>
	<polygon class="st24" points="660.2,207.8 706.5,234.4 706.5,319.8 660.2,293.2 	"/>
	<polygon class="st9" points="710.1,232.4 706.5,234.4 706.5,319.8 710.1,317.7 	"/>
	<polygon class="st8" points="710.1,232.4 706.5,234.4 660.2,207.8 663.8,205.7 	"/>
	<path class="st10" d="M660.2,207.8v85.4l46.3,26.6v-85.4L660.2,207.8z M666.1,218.1l34.4,19.8v71.7l-34.4-19.8V218.1z"/>
	<polygon class="st8" points="700.5,307 700.5,309.5 666.1,289.7 668.3,288.4 	"/>
	<polygon class="st9" points="668.3,219.3 666.1,218.1 666.1,289.7 668.3,288.4 	"/>
	<path class="st27" d="M697.4,266.4c-0.1-0.6-0.5-1.1-1-1.4c-0.3-0.1-0.6-0.2-0.9-0.1c0.5-3.8-0.5-9.5-1-11.7
		c0.2-1.9-0.2-3.7-1.1-5.4c0.5,0.1,1.1,0.3,1.5,0.6c-1.1-1.6-2.5-3-4.2-4c0.5-0.4,2.5,0.6,2.6,0.6c-0.8-0.8-1.8-1.5-2.8-2
		c-0.9-0.6-2-1-3-1.4c0.7-0.8,3.1,0.1,3.3,0.1c-0.5-0.4-1-0.7-1.6-1.1c-3.4-2-5-1.4-5.1-1.4c0.2-0.9,2-1.2,2-1.2
		c-3.9-1.1-6.2-0.4-6.3-0.4c0.5-0.8,1.8-0.9,1.8-0.9c-6.2-1.9-7.1,2.8-7.1,2.9c-0.1,0.6-0.2,1.2-0.1,1.8c-0.9,3.5-1.3,7.1-1,10.6
		c-0.3-0.4-0.7-0.8-1-1.1c-0.4-0.2-0.7-0.1-0.9,0.3c0,0.1-0.1,0.3-0.1,0.4c0,0.3,0,0.5,0.1,0.8c0.1,0.4,0.1,0.8,0.2,1.2
		c0.1,0.4,0.2,0.9,0.3,1.3c0.1,0.4,0.3,1,0.5,1.5s0.4,1,0.5,1.6c0.2,0.9,0.5,1.7,0.9,2.5c0,0.6,0,1.1-0.1,1.7
		c0.5,4,0.8,8.1,0.9,12.1c0.7,0,1.4-0.5,1.5-1.2c0.6,2,1,4,1.1,6.1c0.5-0.2,1-0.6,1.2-1.2c0.9,2.2,1.6,4.5,1.8,6.9
		c0.6-1.2,1-2.5,0.9-3.8c0.2,0.4,3.1,7.5,3.1,9.1c0.1-1.5,3.1-5.2,3.2-5.5c0,1.7,0.3,3.3,0.9,4.9c0.1-1.7,0.8-3.4,1.8-4.7
		c0.3,0.9,0.7,1.8,1.2,2.6c0-1.6,0.4-3.3,1.2-4.7c0.2,1.1,0.8,2.1,1.5,3c0-3.6,0.4-7.3,0.9-10.9c-0.1-0.6-0.1-1.3-0.1-2
		c0.4-0.4,0.7-0.9,0.9-1.4c0.1-0.4,0.3-0.7,0.5-1c0.2-0.3,0.3-0.6,0.5-1c0.1-0.3,0.2-0.6,0.3-0.9c0.1-0.3,0.2-0.7,0.2-1
		c0-0.2,0.1-0.5,0.1-0.7C697.4,266.8,697.4,266.6,697.4,266.4z M676.4,250.8l-0.5-2.3l0.6-4.2c2.2,2.9,4.8,5.4,7.9,7.3
		c5.1,2.8,7.8,1.9,8,1.9l0.6,4.9l-0.5,1.8l0.7,1.3c-0.5-0.4-1.1-0.7-1.7-1c-1.8-1.1-4.3-2.3-6.1-2.2c-0.4-0.1-0.8-0.2-1.1-0.4
		c-0.4-0.3-0.7-0.6-1.1-0.9c-1.8-1.9-3.8-3.5-6.1-4.8c-0.5-0.3-1.1-0.6-1.7-0.9L676.4,250.8z M673.4,258.8c-0.3-0.7-0.5-1.5-0.8-2.1
		c-0.1-0.3-0.2-0.5-0.3-0.8c-0.1-0.3-0.1-0.6-0.2-0.9c-0.2-0.8-0.3-1.7-0.4-2.5c-0.1-0.6,0-1.2,0.6-1l0.1,0.1
		c0.1,0.1,0.3,0.2,0.4,0.3c0.3,0.3,0.6,0.6,0.7,1c0,0.2,0,0.4,0.1,0.6c0,0.2,0,0.4,0.1,0.6c-0.1-0.3-0.3-0.5-0.5-0.7
		c0.1,0.5,0.3,1.1,0.6,1.5l-0.2,0.1l0,0c-0.2,0-0.6,0-0.6,0.3c0,0.4,0,0.8,0.1,1.2c0,0,0,0.1,0.1,0.1c0.1,0,0.1-0.1,0.1-0.1
		s0.2-0.2,0.3-0.2s0.1,0.1,0.1,0.1c0,0.4,0.1,0.8,0.2,1.2c0.1,0.2,0.1,0.4,0.2,0.5v1.9C673.7,259.6,673.5,259.2,673.4,258.8z
		 M684.5,274.2c-1.8-1.2-3.4-2.6-4.8-4.2c1.1,0.3,2.3,0.3,3.4,0.1c0.2-0.1,0.5,0,0.7,0.1c0.2,0.1,0.3,0.2,0.5,0.3l0.1,0.1l0.4,0.2
		l0.4,0.2c0.3,0.2,0.6,0.4,0.7,0.7c1,1.4,2.1,2.6,3.3,3.8C687.6,275.5,685.9,275.1,684.5,274.2L684.5,274.2z M694.2,269.5
		c-0.9,1.5-1.9,3-3,4.4c-0.2,0.1-0.4,0.1-0.6,0c-1-0.6-2.5-3-3.6-4.3c-0.3-0.4-0.7-0.7-1.1-0.9c-0.4-0.3-1-0.4-1.5-0.3
		c-0.4-0.6-0.9-1.1-1.5-1.4c-0.3-0.2-0.7-0.3-1-0.3c-1.1,0-2.7,0.6-3.6,0.1c-0.2-0.1-0.4-0.4-0.5-0.6c-0.7-1.5-2.9-7.5-3-7.9
		l-0.4-5.2l0.4-1l0.1,0.2c0.5,1.6,0.9,3.2,1.1,4.8c0.1,0.9,0.5,1.7,1.1,2.3c1,0.8,2.1,1.5,3.3,2.2l0.5,0.3c1.8,0.9,2.7-2.3,2.8-2.5
		c0.1-0.3,0.3-0.6,0.6-0.7c0.1,0,0.1,0,0.2,0.1c0.1,0.1,0.2,0.1,0.2,0.2c0.3,0.4,0.5,0.9,0.6,1.4c0.1,0.3,0.9,4.4,2.8,5.7l0.5,0.3
		c1,0.6,2.1,1.2,3.3,1.6c0.1,0,0.8,0.4,1.2-1c0.2-1.2,0.6-2.4,1.2-3.5h0.1l0.3,1.4L694.2,269.5z M697.3,267.1
		c-0.1,0.7-0.2,1.3-0.4,2c-0.1,0.2-0.1,0.4-0.2,0.6c-0.1,0.2-0.2,0.3-0.3,0.5c-0.3,0.4-0.6,0.8-0.8,1.2c-0.1,0.2-0.3,0.4-0.5,0.5
		v-1.8c0.1-0.1,0.1-0.2,0.1-0.3c0.1-0.3,0.2-0.6,0.2-0.9c0,0,0-0.1,0.1-0.1c0.1,0.1,0.2,0.3,0.3,0.4c0,0.1,0.1,0.2,0.1,0.2h0.1
		c0.1-0.4,0.1-0.7,0.1-1.1c0-0.3-0.4-0.8-0.6-1v-0.1c-0.1-0.1-0.1-0.1-0.1-0.2V267c0.2-0.3,0.5-0.8,0.5-0.9s-0.3,0.1-0.5,0.2
		c0-0.2,0-0.4,0.1-0.5c0.1-0.2,0.1-0.4,0.1-0.5c0.2-0.1,0.5-0.1,0.7-0.1c0.2,0,0.3,0.1,0.4,0.1c0.1,0,0.1,0.1,0.1,0.1
		C697.2,265.9,697.4,266.5,697.3,267.1L697.3,267.1z"/>
	<polygon class="st10" points="914.8,543.6 925.8,550 925.8,604.4 914.8,597.8 	"/>
	<polygon class="st9" points="925.8,550 955.4,532.8 955.4,587.3 925.8,604.4 	"/>
	<polygon class="st8" points="914.8,543.6 944.5,526.4 955.4,532.8 925.8,550 	"/>
	<polygon class="st10" points="725.4,433.1 736.3,439.5 736.3,494.1 725.4,487.4 	"/>
	<polygon class="st9" points="736.3,439.5 766,422.4 766,476.9 736.3,494.1 	"/>
	<polygon class="st8" points="725.4,433.1 755,416 766,422.4 736.3,439.5 	"/>
	<polygon class="st10" points="725.4,416.9 925.8,533.4 925.8,550 725.4,433.2 	"/>
	<polygon class="st9" points="925.8,533.4 955.4,516.2 955.4,532.8 925.8,550 	"/>
	<polygon class="st8" points="725.4,416.9 755,399.8 955.4,516.2 925.8,533.4 	"/>
	<polygon class="st40" points="750.4,288.4 951.7,404.6 951.7,518.5 750.4,402.3 	"/>
	<polygon class="st9" points="955.4,402.4 951.7,404.6 951.7,518.5 955.4,516.2 	"/>
	<polygon class="st8" points="955.4,402.4 951.7,404.6 750.4,288.4 754.2,286.3 	"/>
	<path class="st10" d="M750.4,288.4v113.9l201.2,116.2V404.6L750.4,288.4z M756.6,299.1l188.9,109v99.7l-188.9-109L756.6,299.1z"/>
	<polygon class="st8" points="945.5,505.1 945.5,507.8 756.6,398.7 758.9,397.4 	"/>
	<polygon class="st9" points="758.9,300.4 756.6,299.1 756.6,398.7 758.9,397.4 	"/>
	<polygon class="st41" points="758.9,300.4 945.5,408.1 758.9,397.4 	"/>
	<polygon class="st24" points="336.7,228.7 290.4,255.3 290.4,315.3 336.7,288.6 	"/>
	<polygon class="st25" points="286.8,253.2 290.4,255.3 290.4,315.3 286.8,313.2 	"/>
	<polygon class="st26" points="286.8,253.2 290.4,255.3 336.7,228.7 333.1,226.6 	"/>
	<path class="st27" d="M290.4,255.3v60l46.3-26.6v-60L290.4,255.3z M330.7,285.2l-34.4,19.8v-46.3l34.4-19.8V285.2z"/>
	<polygon class="st26" points="296.3,302.5 296.3,305 330.7,285.2 328.5,283.9 	"/>
	<polygon class="st25" points="328.5,240.2 330.7,238.9 330.7,285.2 328.5,283.9 	"/>
	<path class="st27" d="M304,273.8c0,0.2,0,0.3,0.1,0.5c0.1,0.2,0.1,0.4,0.1,0.7s0.1,0.4,0.2,0.6c0.1,0.2,0.2,0.4,0.3,0.6
		c0.1,0.2,0.3,0.4,0.4,0.7c0.1,0.3,0.3,0.7,0.5,0.9c0,0.5,0,0.9-0.1,1.4c0.4,2.4,0.6,4.7,0.6,7.1c0.5-0.6,0.8-1.3,1-2
		c0.5,1,0.7,2.1,0.7,3.1c0.3-0.5,0.6-1.1,0.8-1.7c0.7,0.9,1.2,2,1.2,3.1c0.4-1,0.6-2.1,0.6-3.2c0.1,0.1,2,2.6,2.1,3.6
		c0.5-2.1,1.2-4.1,2.1-6c0,0.9,0.2,1.8,0.6,2.5c0.2-1.6,0.6-3.1,1.2-4.6c0.2,0.4,0.4,0.6,0.8,0.8c0.1-1.4,0.3-2.7,0.7-4
		c0.1,0.5,0.5,0.8,1,0.8c0.1-2.6,0.3-5.3,0.6-7.9c-0.1-0.4-0.1-0.7-0.1-1.1c0.3-0.5,0.4-1,0.6-1.6c0.1-0.3,0.2-0.7,0.3-1
		c0.1-0.3,0.2-0.7,0.3-1c0.1-0.3,0.2-0.6,0.2-0.9c0.1-0.3,0.1-0.5,0.1-0.8c0-0.2,0.1-0.4,0.1-0.5c0-0.1,0-0.2-0.1-0.3
		c0-0.2-0.2-0.3-0.4-0.3c-0.1,0-0.1,0-0.2,0.1c-0.3,0.2-0.5,0.4-0.7,0.7c0.2-2.4-0.1-4.7-0.7-7c0-0.4,0-0.8-0.1-1.2
		c0,0-0.5-3.1-4.6-1.9c0.5,0,0.9,0.2,1.2,0.6c-1.4-0.3-2.8-0.2-4.1,0.3c0.1,0,1.2,0.3,1.4,0.8c-0.1,0-1.1-0.4-3.4,0.9
		c-0.3,0.2-0.7,0.4-1,0.7c0.1,0,1.7-0.6,2.1-0.1c-0.7,0.2-1.4,0.5-2,0.9c-0.7,0.4-1.3,0.8-1.8,1.4c0.1-0.1,1.4-0.6,1.7-0.4
		c-1.1,0.7-2,1.6-2.7,2.7c0.3-0.1,0.7-0.3,1-0.4c-0.6,1.1-0.9,2.3-0.7,3.5c-0.6,2.5-0.8,5.1-0.6,7.6c-0.2-0.1-0.4-0.1-0.6,0.1
		C304.3,273,304,273.4,304,273.8C304,273.7,304,273.8,304,273.8z M318.3,263.6c-0.3,0.1-0.7,0.4-1,0.5c-1.5,0.8-2.8,1.9-4,3.1
		c-0.2,0.2-0.4,0.4-0.7,0.5c-0.2,0.1-0.4,0.2-0.7,0.3c-1.4,0.2-2.8,0.7-4,1.5c-0.4,0.2-0.8,0.5-1.1,0.7l0.5-0.9l-0.3-1.2l0.4-3.2
		c0.1,0,1.9,0.6,5.2-1.2c2-1.2,3.8-2.9,5.2-4.8l0.4,2.7l-0.3,1.5L318.3,263.6z M319.5,269.3v-1.2c0.1-0.1,0.1-0.3,0.1-0.4
		s0.1-0.5,0.2-0.8c0-0.1,0-0.1,0.1-0.1c0.1,0,0.1,0.1,0.2,0.1l0.1,0.1v-0.1c0-0.3,0.1-0.5,0.1-0.8c0-0.3-0.3-0.2-0.4-0.2h-0.1
		c0.1-0.3,0.3-0.7,0.4-1c-0.1,0.1-0.2,0.3-0.3,0.5V265c0-0.1,0.1-0.3,0.1-0.4c0.1-0.2,0.3-0.4,0.5-0.6c0.1-0.1,0.2-0.1,0.3-0.2
		l0.1-0.1c0.4-0.1,0.4,0.3,0.4,0.7c-0.1,0.6-0.2,1.1-0.3,1.7c-0.1,0.2-0.1,0.4-0.1,0.5l-0.2,0.5c-0.2,0.5-0.4,0.9-0.5,1.4
		C319.6,268.8,319.6,269.1,319.5,269.3L319.5,269.3z M309.4,279.6c0.8-0.7,1.6-1.6,2.2-2.5c0.1-0.2,0.3-0.3,0.5-0.4l0.2-0.1l0.3-0.1
		l0.1-0.1l0.3-0.2c0.1-0.1,0.3-0.1,0.4-0.1c0.7,0.2,1.5,0.1,2.2-0.1c-0.9,1-2,2-3.1,2.8C311.5,279.2,310.4,279.5,309.4,279.6
		L309.4,279.6z M305.9,272.5l0.3-0.9h0.1c0.4,0.7,0.7,1.4,0.8,2.2c0.3,0.9,0.7,0.7,0.7,0.7c0.8-0.2,1.5-0.6,2.1-1l0.4-0.2
		c1.2-0.8,1.8-3.6,1.8-3.8c0.1-0.3,0.2-0.6,0.4-0.9l0.1-0.1c0.1,0,0.1-0.1,0.1,0s0.3,0.1,0.4,0.4c0,0.1,0.6,2.2,1.8,1.7l0.4-0.2
		c0.7-0.4,1.5-0.9,2.2-1.4c0.4-0.4,0.7-1,0.7-1.5c0.2-1.1,0.4-2.1,0.8-3.1l0.1-0.1l0.2,0.7l-0.2,3.4c-0.1,0.2-1.5,4.2-2,5.2
		c-0.1,0.2-0.2,0.3-0.4,0.4c-0.6,0.4-1.7,0-2.4-0.1c-0.2,0-0.5,0.1-0.7,0.2c-0.4,0.2-0.7,0.6-1,0.9c-0.3-0.1-0.7,0-1,0.2
		c-0.3,0.2-0.5,0.4-0.7,0.6c-0.7,0.9-1.7,2.4-2.4,2.8c-0.1,0.1-0.3,0.1-0.4,0c-0.7-0.9-1.4-1.8-2-2.8L305.9,272.5z M304.5,272.9
		L304.5,272.9c0.1-0.1,0.2-0.1,0.3-0.1c0.2,0,0.3,0,0.5,0.1c0,0.1,0.1,0.2,0.1,0.4v0.4c-0.1-0.1-0.2-0.1-0.3-0.1
		c-0.1,0,0.2,0.4,0.3,0.6v0.1l-0.1,0.1l0,0c-0.1,0.2-0.4,0.5-0.4,0.7c0,0.2,0,0.5,0.1,0.7l0,0l0.1-0.1c0.1-0.1,0.1-0.2,0.2-0.3
		c0.1-0.1,0.1,0,0.1,0.1c0,0.2,0.1,0.4,0.2,0.6c0,0.1,0.1,0.1,0.1,0.3v1.2c-0.1-0.1-0.2-0.2-0.3-0.3c-0.1-0.3-0.3-0.6-0.5-0.8
		c-0.1-0.1-0.1-0.2-0.2-0.3c-0.1-0.1-0.1-0.3-0.1-0.4c-0.1-0.4-0.2-0.9-0.3-1.3C304,273.7,304.2,273.2,304.5,272.9L304.5,272.9z"/>
	<polygon class="st24" points="194.1,311.5 147.8,338.2 147.8,398.1 194.1,371.5 	"/>
	<polygon class="st25" points="144.2,336.1 147.8,338.2 147.8,398.1 144.2,396 	"/>
	<polygon class="st26" points="144.2,336.1 147.8,338.2 194.1,311.5 190.5,309.4 	"/>
	<path class="st27" d="M147.8,338.2v60l46.3-26.7v-60L147.8,338.2z M188.2,368.1l-34.4,19.8v-46.3l34.4-19.8L188.2,368.1z"/>
	<polygon class="st26" points="153.8,385.3 153.8,387.9 188.2,368.1 185.9,366.8 	"/>
	<polygon class="st25" points="185.9,323.1 188.2,321.8 188.2,368.1 185.9,366.8 	"/>
	<path class="st27" d="M161.4,356.7c0,0.2,0,0.3,0.1,0.5c0,0.2,0.1,0.5,0.1,0.7l0.2,0.6c0.1,0.2,0.2,0.4,0.3,0.6
		c0.1,0.2,0.2,0.4,0.3,0.7c0.1,0.3,0.3,0.7,0.6,0.9c0,0.5-0.1,0.9-0.1,1.4c0.4,2.4,0.6,4.7,0.6,7.1c0.5-0.6,0.8-1.3,1-2
		c0.5,1,0.7,2.1,0.7,3.1c0.3-0.5,0.6-1.1,0.8-1.7c0.7,0.9,1.2,2,1.2,3.1c0.4-1,0.6-2.1,0.6-3.2c0.1,0.1,2,2.6,2.1,3.6
		c0.5-2.1,1.2-4.1,2.1-6c0,0.9,0.2,1.7,0.6,2.5c0.2-1.5,0.6-3.1,1.2-4.5c0.2,0.4,0.4,0.6,0.8,0.8c0.1-1.4,0.3-2.7,0.7-4
		c0.1,0.5,0.5,0.8,1,0.8c0.1-2.6,0.2-5.3,0.6-7.9c0-0.3-0.1-0.7-0.1-1.1c0.2-0.5,0.4-1,0.6-1.6c0.1-0.4,0.2-0.7,0.3-1s0.2-0.7,0.3-1
		c0.1-0.3,0.1-0.5,0.2-0.8c0.1-0.3,0.1-0.5,0.1-0.8c0-0.2,0.1-0.4,0.1-0.5c0-0.1,0-0.2-0.1-0.3c-0.1-0.3-0.3-0.4-0.6-0.2
		c-0.3,0.2-0.5,0.4-0.7,0.7c0.2-2.4-0.1-4.7-0.7-7c0-0.4,0-0.8-0.1-1.2c0,0-0.6-3.1-4.6-1.9c0.5,0,0.9,0.3,1.2,0.6
		c-1.4-0.3-2.8-0.2-4.1,0.2c0.1,0,1.2,0.2,1.4,0.8c-0.1,0-1.1-0.4-3.4,0.9c-0.3,0.2-0.7,0.4-1,0.7c0.1,0,1.7-0.6,2.1-0.1
		c-0.7,0.2-1.4,0.6-2,0.9c-0.7,0.4-1.3,0.8-1.8,1.4c0.1,0,1.4-0.6,1.7-0.4c-1.1,0.7-2,1.5-2.8,2.6c0.3-0.2,0.7-0.3,1-0.4
		c-0.6,1-0.9,2.3-0.7,3.5c-0.6,2.5-0.8,5.1-0.6,7.6c-0.2,0-0.4,0-0.6,0.1C161.7,356,161.4,356.3,161.4,356.7
		C161.4,356.5,161.4,356.6,161.4,356.7z M175.7,346.5c-0.4,0.2-0.7,0.3-1,0.6c-1.5,0.8-2.8,1.9-4,3.1c-0.2,0.2-0.4,0.4-0.7,0.5
		c-0.2,0.1-0.4,0.2-0.7,0.3c-1.4,0.2-2.8,0.7-4,1.5c-0.4,0.2-0.8,0.5-1.1,0.7l0.5-0.9l-0.3-1.2l0.4-3.2c0.1,0,1.9,0.6,5.2-1.2
		c2-1.2,3.8-2.9,5.2-4.8l0.4,2.7l-0.3,1.5L175.7,346.5z M176.8,352.1v-1.2c0.1-0.1,0.1-0.3,0.1-0.4s0.1-0.6,0.2-0.8
		c0-0.1,0-0.1,0.1-0.1s0.1,0.1,0.2,0.1s0,0.1,0.1,0.1l0,0c0.1-0.3,0.1-0.5,0.1-0.8c0-0.2-0.3-0.2-0.4-0.2H177c0.1-0.3,0.3-0.7,0.4-1
		c-0.1,0.1-0.2,0.3-0.3,0.5v-0.4c0-0.1,0.1-0.3,0.1-0.4c0.1-0.2,0.3-0.4,0.5-0.6c0.1-0.1,0.2-0.1,0.2-0.2l0.1-0.1
		c0.4-0.1,0.4,0.3,0.4,0.7c0,0.6-0.1,1.1-0.3,1.7c-0.1,0.2-0.1,0.4-0.1,0.5l-0.2,0.5c-0.2,0.5-0.4,0.9-0.6,1.4
		C177.1,351.7,177,351.9,176.8,352.1L176.8,352.1z M166.8,362.4c0.8-0.7,1.5-1.6,2.2-2.4c0.1-0.2,0.3-0.3,0.5-0.4
		c0.1-0.1,0.2-0.1,0.3-0.1c0.1-0.1,0.2-0.1,0.3-0.1l0.1-0.1l0.3-0.2c0.1-0.1,0.3-0.1,0.4-0.1c0.7,0.2,1.5,0.1,2.2-0.1
		c-0.9,1-2,2-3.1,2.8C168.9,362.1,167.9,362.4,166.8,362.4L166.8,362.4z M163.3,355.3l0.2-0.9h0.1c0.4,0.7,0.7,1.4,0.8,2.2
		c0.3,0.9,0.7,0.7,0.7,0.7c0.8-0.3,1.5-0.6,2.2-1l0.3-0.2c1.2-0.8,1.8-3.6,1.8-3.8c0.1-0.3,0.2-0.6,0.4-0.9c0.1-0.1,0.1-0.1,0.1-0.1
		s0.1-0.1,0.1-0.1s0.2,0.1,0.4,0.4c0,0.1,0.6,2.2,1.8,1.7l0.4-0.2c0.7-0.4,1.5-0.9,2.2-1.4c0.4-0.4,0.7-1,0.7-1.5
		c0.2-1.1,0.4-2.1,0.7-3.1l0.1-0.1l0.2,0.7l-0.2,3.5c-0.1,0.2-1.5,4.1-2,5.1c-0.1,0.2-0.2,0.3-0.4,0.4c-0.6,0.4-1.7,0-2.4-0.1
		c-0.2,0-0.5,0.1-0.7,0.2c-0.4,0.2-0.7,0.6-1,0.9c-0.3-0.1-0.7,0-1,0.2c-0.3,0.2-0.5,0.4-0.7,0.6c-0.7,0.9-1.7,2.4-2.4,2.8
		c-0.2,0.1-0.3,0.1-0.4,0c-0.8-0.9-1.4-1.9-2-2.9L163.3,355.3z M161.9,355.8L161.9,355.8c0.1-0.1,0.3-0.1,0.3-0.2
		c0.2,0,0.3,0,0.5,0.1c0,0.1,0.1,0.2,0.1,0.4v0.4c-0.1-0.1-0.2-0.1-0.3-0.1c-0.1,0,0.2,0.4,0.3,0.6v0.1l-0.1,0.1l0,0
		c-0.1,0.2-0.4,0.5-0.4,0.7c0,0.2,0,0.5,0.1,0.7l0,0l0.1-0.1c0.1-0.1,0.1-0.2,0.2-0.3c0,0,0.1,0,0.1,0.1c0,0,0,0,0,0
		c0,0.2,0.1,0.4,0.2,0.6c0,0.1,0.1,0.1,0.1,0.2v1.2c-0.1-0.1-0.2-0.2-0.3-0.3c-0.1-0.3-0.3-0.6-0.6-0.8c-0.1-0.1-0.1-0.2-0.2-0.3
		c-0.1-0.1-0.1-0.3-0.1-0.4c-0.1-0.4-0.2-0.9-0.3-1.4C161.4,356.4,161.6,356,161.9,355.8L161.9,355.8z"/>
	<polygon class="st12" points="734.6,514.3 734.6,518.8 778.3,493.5 778.3,489 	"/>
	<polygon class="st28" points="778.3,489 734.6,514.3 725.4,509 769.2,483.8 	"/>
	<polygon class="st32" points="734.6,514.3 734.6,518.8 725.4,513.5 725.4,509 	"/>
	<polygon class="st20" points="734.8,600.6 777,624.9 777,635.6 734.8,611.1 	"/>
	<polygon class="st12" points="777,624.9 821,599.1 821,609.8 777,635.6 	"/>
	<polygon class="st28" points="734.8,600.6 779.1,574.9 821,599.1 777,624.9 	"/>
	<polygon class="st20" points="740.8,583 777.1,603.8 777.1,620.7 740.8,599.6 	"/>
	<polygon class="st12" points="777.1,603.8 805.8,587 815.1,598.5 777.1,620.7 	"/>
	<polygon class="st28" points="740.8,583 769.7,566.2 805.8,587 777.1,603.8 	"/>
	<polygon class="st42" points="734.8,608.6 777,632.8 777,635.6 734.8,611.1 	"/>
	<polygon class="st43" points="777,632.8 821,607 821,609.8 777,635.6 	"/>
	<polygon class="st20" points="762.1,627 766.9,629.7 766.9,635.6 762.1,632.8 	"/>
	<polygon class="st12" points="766.9,629.7 771.9,624 771.9,632.6 766.9,635.6 	"/>
	<polygon class="st28" points="762.1,627 767.1,621.2 771.9,624 766.9,629.7 	"/>
	<polygon class="st20" points="734.1,610.7 738.9,613.4 738.9,619.3 734.1,616.5 	"/>
	<polygon class="st12" points="738.9,613.4 743.9,607.7 743.9,616.3 738.9,619.3 	"/>
	<polygon class="st28" points="734.1,610.7 739.1,604.9 743.9,607.7 738.9,613.4 	"/>
	<polygon class="st12" points="774.8,564.4 774.8,595.1 755.6,583.9 751.2,550.6 	"/>
	<polygon class="st28" points="751.2,550.6 774.8,564.4 796.9,551.6 773,538 	"/>
	<polygon class="st20" points="774.8,564.4 774.8,595.1 793.2,584.4 796.9,551.6 	"/>
	<polygon class="st42" points="806.5,566.3 839.4,585.3 839.4,589 806.5,569.8 	"/>
	<polygon class="st43" points="839.4,585.3 863.5,571.2 863.5,575 839.4,589 	"/>
	<polygon class="st44" points="806.5,566.3 830.6,552.2 863.5,571.2 839.4,585.3 	"/>
	<polygon class="st20" points="832.4,559.8 839.4,585.3 788.9,556.1 782,530.6 	"/>
	<polygon class="st18" points="782,530.6 832.4,559.8 837.5,556.9 787,527.8 	"/>
	<polygon class="st12" points="832.4,559.8 839.4,585.3 844.5,582.3 837.5,556.9 	"/>
	<polygon class="st20" points="719.3,550.3 777.1,583.6 777.1,592.3 719.3,558.6 	"/>
	<polygon class="st12" points="777.1,583.6 837.5,548.2 837.5,556.9 777.1,592.3 	"/>
	<polygon class="st28" points="719.3,550.3 779.9,514.9 837.5,548.2 777.1,583.6 	"/>
	<polygon class="st25" points="726.4,538.4 777.2,567.6 777.2,579.6 726.4,550.1 	"/>
	<polygon class="st27" points="777.2,567.6 830.4,536.5 830.4,548.5 777.2,579.6 	"/>
	<path class="st26" d="M783.5,509.5c-2.3-1.3-5.2-1.3-7.5,0l-49.6,28.9l50.8,29.3l53.1-31.1L783.5,509.5z"/>
	<polygon class="st25" points="708.3,486.7 759.2,515.7 777.3,567.6 726.4,538.4 	"/>
	<polygon class="st27" points="759.2,515.7 771.6,508.5 793.6,558.1 777.3,567.6 	"/>
	<polygon class="st26" points="708.3,486.7 720.9,479.5 771.6,508.5 759.2,515.7 	"/>
	<polygon class="st25" points="719,475.3 741.9,488.4 748.4,506.9 725.5,493.7 	"/>
	<polygon class="st27" points="741.9,488.4 747.5,485.1 755.7,502.6 748.4,506.9 	"/>
	<path class="st26" d="M726.4,473.1c-1.1-0.6-2.4-0.6-3.5,0l-3.9,2.3l22.9,13l5.6-3.3L726.4,473.1z"/>
	<polygon class="st12" points="786.6,544.5 786.6,549 830.3,523.7 830.3,519.3 	"/>
	<polygon class="st28" points="830.3,519.3 786.6,544.5 777.5,539.2 821.2,514 	"/>
	<polygon class="st20" points="786.6,544.5 786.6,549 777.5,543.7 777.5,539.2 	"/>
	<polygon class="st12" points="450,348.6 450,353.1 493.6,327.8 493.6,323.3 	"/>
	<polygon class="st28" points="493.6,323.3 450,348.6 440.8,343.3 484.6,318 	"/>
	<polygon class="st32" points="450,348.6 450,353.1 440.8,347.8 440.8,343.3 	"/>
	<polygon class="st20" points="450.3,434.9 492.4,459.2 492.4,469.8 450.3,445.3 	"/>
	<polygon class="st12" points="492.4,459.2 536.4,433.4 536.4,444.1 492.4,469.8 	"/>
	<polygon class="st28" points="450.3,434.9 494.4,409.2 536.4,433.4 492.4,459.2 	"/>
	<polygon class="st20" points="456.2,417.2 492.5,438.1 492.5,454.9 456.2,433.9 	"/>
	<polygon class="st12" points="492.5,438.1 521.2,421.3 530.5,432.8 492.5,454.9 	"/>
	<polygon class="st28" points="456.2,417.2 485.1,400.5 521.2,421.3 492.5,438.1 	"/>
	<polygon class="st42" points="450.3,442.8 492.4,467 492.4,469.8 450.3,445.3 	"/>
	<polygon class="st43" points="492.4,467 536.4,441.3 536.4,444.1 492.4,469.8 	"/>
	<polygon class="st20" points="477.5,461.2 482.3,464 482.3,469.8 477.5,467 	"/>
	<polygon class="st12" points="482.3,464 487.3,458.3 487.3,466.9 482.3,469.8 	"/>
	<polygon class="st28" points="477.5,461.2 482.6,455.5 487.3,458.3 482.3,464 	"/>
	<polygon class="st20" points="449.5,444.9 454.3,447.7 454.3,453.5 449.5,450.7 	"/>
	<polygon class="st12" points="454.3,447.7 459.3,442 459.3,450.6 454.3,453.5 	"/>
	<polygon class="st28" points="449.5,444.9 454.5,439.2 459.3,442 454.3,447.7 	"/>
	<polygon class="st12" points="490.1,398.7 490.1,429.4 471,418.2 466.6,384.9 	"/>
	<polygon class="st28" points="466.6,384.9 490.1,398.7 512.3,385.8 488.4,372.3 	"/>
	<polygon class="st20" points="490.1,398.6 490.1,429.3 508.5,418.7 512.3,385.8 	"/>
	<polygon class="st42" points="521.8,400.5 554.8,419.6 554.8,423.3 521.8,404.1 	"/>
	<polygon class="st43" points="554.8,419.6 578.8,405.5 578.8,409.2 554.8,423.3 	"/>
	<polygon class="st44" points="521.8,400.5 546,386.5 578.8,405.5 554.8,419.6 	"/>
	<polygon class="st20" points="547.9,394.1 554.8,419.6 504.3,390.4 497.3,364.9 	"/>
	<polygon class="st18" points="497.3,364.9 547.9,394.1 552.9,391.2 502.4,362 	"/>
	<polygon class="st12" points="547.9,394.1 554.8,419.6 559.9,416.6 552.9,391.2 	"/>
	<polygon class="st20" points="434.7,384.5 492.5,417.8 492.5,426.5 434.7,392.9 	"/>
	<polygon class="st12" points="492.5,417.8 552.9,382.5 552.9,391.2 492.5,426.5 	"/>
	<polygon class="st28" points="434.7,384.5 495.4,349.3 552.9,382.5 492.5,417.8 	"/>
	<polygon class="st25" points="441.8,372.6 492.7,401.9 492.6,413.9 441.8,384.3 	"/>
	<polygon class="st27" points="492.7,401.9 545.8,370.9 545.8,382.8 492.6,413.9 	"/>
	<path class="st26" d="M498.9,343.8c-2.3-1.4-5.2-1.4-7.5,0l-49.6,28.9l50.8,29.3l53.1-31.1L498.9,343.8z"/>
	<polygon class="st25" points="423.7,320.9 474.6,349.9 492.7,401.9 441.8,372.6 	"/>
	<polygon class="st27" points="474.6,349.9 487.1,342.8 509,392.4 492.7,401.9 	"/>
	<polygon class="st26" points="423.7,320.9 436.3,313.7 487.1,342.8 474.6,349.9 	"/>
	<polygon class="st25" points="434.4,309.6 457.3,322.6 463.8,341.2 440.9,328 	"/>
	<polygon class="st27" points="457.3,322.6 462.9,319.5 471.2,336.9 463.8,341.2 	"/>
	<path class="st26" d="M441.8,307.3c-1.1-0.6-2.4-0.6-3.5,0l-3.9,2.3l23,13l5.6-3.3L441.8,307.3z"/>
	<polygon class="st12" points="502,378.9 502,383.3 545.7,358 545.7,353.5 	"/>
	<polygon class="st28" points="545.7,353.5 502,378.9 492.9,373.5 536.7,348.3 	"/>
	<polygon class="st20" points="502,378.9 502,383.3 492.9,378 492.9,373.5 	"/>
	<polygon class="st24" points="824.1,255.5 888.1,292.7 888.1,345 824.1,307.8 	"/>
	<polygon class="st27" points="891.5,290.7 888.1,292.7 888.1,345 891.5,343 	"/>
	<polygon class="st26" points="891.5,290.7 888.1,292.7 824.1,255.5 827.4,253.5 	"/>
	<path class="st25" d="M824.1,255.5v52.3l64,37.2v-52.3L824.1,255.5z M829.7,265.1l52.9,30.8v39.5l-52.9-30.8V265.1z"/>
	<polygon class="st26" points="882.5,333 882.5,335.4 829.7,304.6 831.7,303.3 	"/>
	<polygon class="st27" points="831.7,266.3 829.7,265.1 829.7,304.6 831.7,303.3 	"/>
	<path class="st27" d="M862,297.5c1.4,0.9,2.5,2,3.3,3.4c1.1,1.8,2.5,3.5,4.1,4.9c0.3,0.2,0.6,0.4,0.9,0.6c1.6,0.9,3.5,1,5.2,0.3
		c0.4-0.3,0.9-0.4,1.4-0.3l0.5,0.2c0.4,0.2,0.6,0.6,0.5,1c-0.2,1.2-4.1,4.9-7.1,5c-1.4,0-2.7-0.4-3.8-1.2c-2.1-1.3-3.9-3-5.4-5
		l-0.2-0.3c-0.8-1.2-1.7-2.2-2.8-3.2c-0.4-0.3-0.7-0.6-1.2-0.9l-0.4-0.2c-0.5-0.2-1-0.3-1.5-0.3c-0.7-0.1-1.5,0-2.2,0.2
		c-1.9,0.3-3.8-0.1-5.3-1.2c-1.5-0.8-2.8-2-3.8-3.3c-3-3.6-6.9-11.7-7.1-13.2c-0.1-0.5,0.2-0.5,0.5-0.4s0.3,0.3,0.5,0.4
		c0.5,0.6,1,1.3,1.4,2c1.5,2.3,3.3,4.6,5.2,5.7c0.3,0.2,0.6,0.3,0.9,0.4c1.4,0.5,2.9,0.4,4.2-0.2c1.1-0.4,2.4-0.3,3.3,0.4
		c1.7,1.2,3.2,2.7,4.4,4.4C859.1,296.5,860.7,296.7,862,297.5z"/>
	<polygon class="st24" points="544.4,94.4 608.4,131.5 608.4,183.8 544.4,146.6 	"/>
	<polygon class="st27" points="611.8,129.6 608.4,131.5 608.4,183.8 611.8,181.8 	"/>
	<polygon class="st26" points="611.8,129.6 608.4,131.5 544.4,94.4 547.8,92.4 	"/>
	<path class="st25" d="M544.4,94.4v52.3l64,37.2v-52.3L544.4,94.4z M550,104l52.9,30.8v39.4L550,143.4V104z"/>
	<polygon class="st26" points="602.8,171.8 602.8,174.3 550,143.4 552.1,142.2 	"/>
	<polygon class="st27" points="552.1,105.1 550,104 550,143.4 552.1,142.2 	"/>
	<path class="st27" d="M582.3,136.4c1.4,0.9,2.5,2,3.3,3.4c1.1,1.8,2.5,3.5,4.1,4.9c0.3,0.2,0.6,0.4,0.9,0.6c1.6,0.9,3.5,1,5.2,0.3
		c0.4-0.3,0.9-0.4,1.4-0.3l0.5,0.2c0.4,0.2,0.6,0.6,0.5,1c-0.2,1.2-4.1,4.9-7.1,5c-1.4,0-2.7-0.4-3.8-1.2c-2.1-1.3-3.9-3-5.4-5
		l-0.2-0.3c-0.8-1.2-1.7-2.2-2.8-3.2c-0.4-0.3-0.8-0.6-1.2-0.9l-0.4-0.2c-0.5-0.2-1-0.3-1.5-0.3c-0.7-0.1-1.5,0-2.2,0.2
		c-1.9,0.3-3.8-0.1-5.4-1.2c-1.5-0.8-2.8-1.9-3.8-3.3c-3-3.6-6.9-11.7-7.1-13.2c-0.1-0.6,0.2-0.6,0.5-0.4s0.3,0.3,0.5,0.4
		c0.6,0.6,1,1.3,1.4,2c1.5,2.3,3.3,4.6,5.2,5.7c0.3,0.2,0.6,0.3,0.9,0.4c1.4,0.5,2.9,0.4,4.2-0.2c1.1-0.4,2.4-0.3,3.3,0.4
		c1.7,1.2,3.2,2.7,4.4,4.4C579.4,135.3,581.1,135.5,582.3,136.4z"/>
	<polygon class="st45" points="910,506.6 910,516.8 899.6,510.8 899.6,500.5 	"/>
	<polygon class="st46" points="899.6,500.5 910,506.6 919.8,500.9 909.3,494.9 	"/>
	<polygon class="st47" points="910,506.6 910,516.8 919.8,511.1 919.8,500.9 	"/>
	<polygon class="st15" points="910,510.8 910,514.9 899.6,508.9 899.6,504.7 	"/>
	<polygon class="st16" points="910,510.8 910,514.9 919.8,509.3 919.8,505.1 	"/>
	<path class="st16" d="M904.6,497.1v3.9c0,1,2.4,1.9,5.3,1.9s5.3-0.9,5.3-1.9v-3.9L904.6,497.1z"/>
	<path class="st48" d="M915.2,497.1c0,1-2.4,1.9-5.3,1.9s-5.3-0.9-5.3-1.9s2.4-1.9,5.3-1.9S915.2,496,915.2,497.1z"/>
	<polygon class="st45" points="464.5,247.6 464.5,257.8 454.1,251.7 454.1,241.5 	"/>
	<polygon class="st46" points="454.1,241.5 464.5,247.6 474.4,241.9 463.8,235.9 	"/>
	<polygon class="st47" points="464.5,247.6 464.5,257.8 474.4,252.1 474.4,241.9 	"/>
	<polygon class="st15" points="464.5,251.8 464.5,255.9 454.1,249.8 454.1,245.6 	"/>
	<polygon class="st16" points="464.5,251.8 464.5,255.9 474.4,250.3 474.4,246.1 	"/>
	<path class="st16" d="M459,238.1v3.9c0,1,2.4,1.9,5.3,1.9s5.3-0.9,5.3-1.9v-3.9L459,238.1z"/>
	<path class="st48" d="M469.7,238.1c0,1-2.4,1.9-5.3,1.9s-5.3-0.9-5.3-1.9s2.4-1.9,5.3-1.9S469.7,237,469.7,238.1z"/>
	<polygon class="st45" points="926.4,515.7 926.4,525.9 916,519.8 916,509.6 	"/>
	<polygon class="st46" points="916,509.6 926.4,515.7 936.3,510 925.7,504 	"/>
	<polygon class="st47" points="926.4,515.7 926.4,525.9 936.3,520.2 936.3,510 	"/>
	<polygon class="st15" points="926.4,519.8 926.4,524 916,518 916,513.8 	"/>
	<polygon class="st16" points="926.4,519.8 926.4,524 936.3,518.3 936.3,514.1 	"/>
	<path class="st16" d="M920.9,506.1v3.9c0,1,2.4,1.9,5.3,1.9s5.3-0.9,5.3-1.9v-3.9H920.9z"/>
	<path class="st48" d="M931.6,506.1c0,1-2.4,1.9-5.3,1.9s-5.3-0.9-5.3-1.9s2.4-1.9,5.3-1.9S931.6,505.1,931.6,506.1z"/>
	<polygon class="st9" points="499.5,557.9 437.8,593.6 437.8,657.6 499.5,621.4 	"/>
	<polygon class="st10" points="437.8,593.6 431.7,590.2 431.7,654 437.8,657.6 	"/>
	<polygon class="st49" points="499.5,557.9 493.3,554.4 431.7,590.2 437.8,593.6 	"/>
	<polygon class="st9" points="204.4,387.2 142.7,422.9 142.7,486.9 204.4,450.7 	"/>
	<polygon class="st10" points="142.7,422.9 136.6,419.4 136.6,483.4 142.7,486.9 	"/>
	<polygon class="st49" points="204.4,387.2 198.3,383.7 136.6,419.4 142.7,422.9 	"/>
	<polygon class="st10" points="136.6,412 437.8,585.8 437.8,593.7 136.6,419.4 	"/>
	<polygon class="st9" points="437.8,585.8 499.5,550.2 499.5,557.9 437.8,593.7 	"/>
	<polygon class="st8" points="136.6,412 198.6,376.3 499.5,550.2 437.8,585.8 	"/>
	<polygon class="st50" points="216.4,382.2 213.1,384.1 213.1,407 216.4,405 	"/>
	<polygon class="st51" points="213.1,384.1 196.5,374.5 196.5,397.3 213.1,407 	"/>
	<polygon class="st52" points="216.4,382.2 199.7,372.6 196.5,374.5 213.1,384.1 	"/>
	<polygon class="st53" points="215.9,384.4 213.5,385.8 213.5,394.4 215.9,393.1 	"/>
	<polygon class="st54" points="212.7,384.3 209.5,386.2 209.5,409.1 212.7,407.2 	"/>
	<polygon class="st55" points="209.5,386.2 192.8,376.6 192.8,399.4 209.5,409.1 	"/>
	<polygon class="st56" points="212.7,384.3 196.1,374.7 192.8,376.6 209.5,386.2 	"/>
	<polygon class="st53" points="212.2,386.5 209.9,387.9 209.9,396.5 212.2,395.2 	"/>
	<polygon class="st57" points="209.1,386.4 205.8,388.3 205.8,411.2 209.1,409.3 	"/>
	<polygon class="st58" points="205.8,388.3 189.2,378.7 189.2,401.5 205.8,411.2 	"/>
	<polygon class="st59" points="209.1,386.4 192.5,376.8 189.2,378.7 205.8,388.3 	"/>
	<polygon class="st43" points="208.6,388.6 206.3,390 206.3,398.7 208.6,397.3 	"/>
	<polygon class="st50" points="204.8,389.1 201.5,391 201.5,413.9 204.8,412 	"/>
	<polygon class="st51" points="201.5,391 184.8,381.4 184.8,404.2 201.5,413.9 	"/>
	<polygon class="st52" points="204.8,389.1 188.1,379.5 184.8,381.4 201.5,391 	"/>
	<polygon class="st53" points="204.3,391.4 201.9,392.7 201.9,401.3 204.3,400 	"/>
	<polygon class="st54" points="201.1,391.2 197.8,393.1 197.8,416 201.1,414.1 	"/>
	<polygon class="st55" points="197.8,393.1 181.2,383.5 181.2,406.4 197.8,416 	"/>
	<polygon class="st56" points="201.1,391.2 184.5,381.6 181.2,383.5 197.8,393.1 	"/>
	<polygon class="st53" points="200.7,393.4 198.3,394.8 198.3,403.5 200.7,402.1 	"/>
	<polygon class="st57" points="197.5,393.4 194.2,395.2 194.2,418.1 197.5,416.1 	"/>
	<polygon class="st58" points="194.2,395.2 177.6,385.6 177.6,408.5 194.2,418.1 	"/>
	<polygon class="st59" points="197.5,393.4 180.8,383.7 177.6,385.6 194.2,395.2 	"/>
	<polygon class="st43" points="197,395.5 194.7,396.9 194.7,405.6 197,404.2 	"/>
	<polygon class="st50" points="193.1,396 189.8,397.9 189.8,420.8 193.1,418.9 	"/>
	<polygon class="st51" points="189.8,397.9 173.3,388.3 173.3,411.2 189.8,420.8 	"/>
	<polygon class="st52" points="193.1,396 176.5,386.4 173.3,388.3 189.8,397.9 	"/>
	<polygon class="st53" points="192.7,398.2 190.3,399.6 190.3,408.3 192.7,406.9 	"/>
	<polygon class="st54" points="189.5,398.2 186.2,400.1 186.2,422.9 189.5,421 	"/>
	<polygon class="st55" points="186.2,400.1 169.6,390.4 169.6,413.3 186.2,422.9 	"/>
	<polygon class="st56" points="189.5,398.2 172.8,388.6 169.6,390.4 186.2,400.1 	"/>
	<polygon class="st53" points="189,400.3 186.7,401.7 186.7,410.4 189,409 	"/>
	<polygon class="st57" points="185.9,400.3 182.6,402.2 182.6,425 185.9,423.1 	"/>
	<polygon class="st58" points="182.6,402.2 166,392.5 166,415.4 182.6,425 	"/>
	<polygon class="st59" points="185.9,400.3 169.2,390.7 166,392.5 182.6,402.2 	"/>
	<polygon class="st43" points="185.4,402.5 183.1,403.8 183.1,412.5 185.4,411.2 	"/>
	<polygon class="st12" points="363.5,650.2 363.5,652.9 343.6,641.4 343.6,638.6 	"/>
	<polygon class="st49" points="343.6,638.6 363.5,650.2 383.4,638.6 363.4,627.1 	"/>
	<polygon class="st20" points="363.5,650.2 363.5,652.9 383.4,641.4 383.4,638.6 	"/>
	<polygon class="st20" points="363.6,612.6 363.6,641.1 359.1,638.4 359.1,610 	"/>
	<polygon class="st60" points="359.1,610 363.6,612.6 367.8,610.2 363.3,607.6 	"/>
	<polygon class="st12" points="363.6,612.6 363.6,641.1 367.8,638.6 367.8,610.2 	"/>
	<polygon class="st16" points="363.5,602.7 363.5,613.5 335.4,597.2 335.4,586.5 	"/>
	<polygon class="st48" points="335.4,586.5 363.5,602.7 391.6,586.4 363.4,570.2 	"/>
	<polygon class="st15" points="363.5,602.7 363.5,613.5 391.6,597.2 391.6,586.4 	"/>
	<polygon class="st12" points="300,613.4 300,616.3 280.1,604.7 280.1,601.9 	"/>
	<polygon class="st49" points="280.1,601.9 300,613.4 319.9,601.8 299.9,590.3 	"/>
	<polygon class="st20" points="300,613.4 300,616.3 319.9,604.6 319.9,601.8 	"/>
	<polygon class="st20" points="300.1,575.9 300.1,604.3 295.6,601.7 295.6,573.2 	"/>
	<polygon class="st60" points="295.6,573.2 300.1,575.9 304.3,573.4 299.8,570.8 	"/>
	<polygon class="st12" points="300.1,575.9 300.1,604.3 304.3,601.9 304.3,573.4 	"/>
	<polygon class="st16" points="300,566 300,576.7 271.9,560.5 271.9,549.7 	"/>
	<polygon class="st48" points="271.9,549.7 300,566 328.1,549.7 299.9,533.4 	"/>
	<polygon class="st15" points="300,566 300,576.7 328.1,560.4 328.1,549.7 	"/>
	<polygon class="st12" points="236.5,576.7 236.5,579.5 216.5,567.9 216.5,565.2 	"/>
	<polygon class="st49" points="216.5,565.2 236.5,576.7 256.4,565.2 236.4,553.6 	"/>
	<polygon class="st20" points="236.5,576.7 236.5,579.5 256.4,567.9 256.4,565.2 	"/>
	<polygon class="st20" points="236.5,539.1 236.5,567.6 232.1,565 232.1,536.5 	"/>
	<polygon class="st60" points="232.1,536.5 236.5,539.1 240.7,536.7 236.2,534.1 	"/>
	<polygon class="st12" points="236.5,539.1 236.5,567.6 240.7,565.2 240.7,536.7 	"/>
	<polygon class="st16" points="236.5,529.3 236.5,540 208.4,523.7 208.4,513 	"/>
	<polygon class="st48" points="208.4,513 236.5,529.3 264.5,513 236.4,496.7 	"/>
	<polygon class="st15" points="236.5,529.3 236.5,540 264.5,523.7 264.5,513 	"/>
	<polygon class="st12" points="173,540 173,542.8 153,531.3 153,528.4 	"/>
	<polygon class="st49" points="153,528.4 173,540 192.8,528.4 172.8,516.9 	"/>
	<polygon class="st20" points="173,540 173,542.8 192.8,531.2 192.8,528.4 	"/>
	<polygon class="st20" points="173,502.4 173,530.9 168.5,528.2 168.5,499.8 	"/>
	<polygon class="st60" points="168.5,499.8 173,502.4 177.2,500 172.6,497.4 	"/>
	<polygon class="st12" points="173,502.4 173,530.9 177.2,528.4 177.2,500 	"/>
	<polygon class="st16" points="173,492.5 173,503.3 144.8,487 144.8,476.3 	"/>
	<polygon class="st48" points="144.8,476.3 173,492.5 201,476.2 172.8,460 	"/>
	<polygon class="st15" points="173,492.5 173,503.3 201,487 201,476.2 	"/>
	<polygon class="st45" points="238.9,402.1 238.9,421.9 229.7,416.6 229.7,396.7 	"/>
	<polygon class="st46" points="229.7,396.7 238.9,402.1 247.6,397.1 238.3,391.8 	"/>
	<polygon class="st47" points="238.9,402.1 238.9,421.9 247.6,417 247.6,397.1 	"/>
	<polygon class="st45" points="238.8,388.6 238.8,398.1 235.9,396.5 235.9,386.9 	"/>
	<polygon class="st61" points="235.9,386.9 238.8,388.6 241.5,387 238.6,385.4 	"/>
	<polygon class="st47" points="238.8,388.6 238.8,398.1 241.5,396.6 241.5,387 	"/>
	<polygon class="st62" points="238.8,386.2 238.8,390.8 235.9,389.1 235.9,384.6 	"/>
	<polygon class="st63" points="235.9,384.6 238.8,386.2 241.5,384.7 238.6,383 	"/>
	<polygon class="st64" points="238.8,386.2 238.8,390.8 241.5,389.3 241.5,384.7 	"/>
	<polygon class="st64" points="238.9,407.1 238.9,417.3 247.6,412.2 247.6,402.1 	"/>
	<polygon class="st62" points="238.9,407.1 238.9,417.3 229.7,411.9 229.7,401.8 	"/>
	<polygon class="st32" points="253.5,412.9 253.5,430.1 245.5,425.5 245.5,408.2 	"/>
	<polygon class="st31" points="245.5,408.2 253.5,412.9 261,408.5 252.9,403.9 	"/>
	<polygon class="st33" points="253.5,412.9 253.5,430.1 261,425.8 261,408.5 	"/>
	<polygon class="st32" points="253.3,401.1 253.3,409.4 250.8,408 250.8,399.7 	"/>
	<polygon class="st61" points="250.8,399.7 253.3,401.1 255.6,399.8 253.2,398.4 	"/>
	<polygon class="st33" points="253.3,401.1 253.3,409.4 255.6,408.1 255.6,399.8 	"/>
	<polygon class="st15" points="253.3,399.1 253.3,403 250.8,401.6 250.8,397.7 	"/>
	<polygon class="st48" points="250.8,397.7 253.3,399.1 255.6,397.8 253.2,396.3 	"/>
	<polygon class="st16" points="253.3,399.1 253.3,403 255.6,401.7 255.6,397.8 	"/>
	<polygon class="st16" points="253.5,416.1 253.5,425 261,420.6 261,411.8 	"/>
	<polygon class="st15" points="253.5,416.1 253.5,425 245.5,420.3 245.5,411.5 	"/>
	<polygon class="st45" points="269.5,419.4 269.5,439.3 260.2,433.9 260.2,414.1 	"/>
	<polygon class="st46" points="260.2,414.1 269.5,419.4 278.1,414.4 268.8,409.1 	"/>
	<polygon class="st47" points="269.5,419.4 269.5,439.3 278.1,434.3 278.1,414.4 	"/>
	<polygon class="st45" points="269.3,405.9 269.3,415.5 266.4,413.8 266.4,404.3 	"/>
	<polygon class="st61" points="266.4,404.3 269.3,405.9 271.9,404.4 269,402.7 	"/>
	<polygon class="st47" points="269.3,405.9 269.3,415.5 271.9,413.9 271.9,404.4 	"/>
	<polygon class="st62" points="269.3,403.6 269.3,408.1 266.4,406.5 266.4,401.9 	"/>
	<polygon class="st63" points="266.4,401.9 269.3,403.6 271.9,402.1 269,400.4 	"/>
	<polygon class="st64" points="269.3,403.6 269.3,408.1 271.9,406.5 271.9,402.1 	"/>
	<polygon class="st64" points="269.5,424.5 269.5,434.6 278.1,429.6 278.1,419.4 	"/>
	<polygon class="st62" points="269.5,424.5 269.5,434.6 260.2,429.3 260.2,419.1 	"/>
	<polygon class="st65" points="365.9,476 365.9,502.9 374,498.3 374,471.3 	"/>
	<polygon class="st61" points="374,471.3 365.9,476 358.4,471.6 366.5,467 	"/>
	<polygon class="st66" points="365.9,476 365.9,502.9 358.4,498.6 358.4,471.6 	"/>
	<polygon class="st65" points="366.1,464.3 366.1,472.5 368.6,471.1 368.6,462.8 	"/>
	<polygon class="st61" points="368.6,462.8 366.1,464.3 363.8,462.9 366.3,461.5 	"/>
	<polygon class="st66" points="366.1,464.3 366.1,472.5 363.8,471.2 363.8,462.9 	"/>
	<polygon class="st67" points="366.1,462.3 366.1,466.2 368.6,464.7 368.6,460.8 	"/>
	<polygon class="st68" points="368.6,460.8 366.1,462.3 363.8,460.9 366.3,459.5 	"/>
	<polygon class="st69" points="366.1,462.3 366.1,466.2 363.8,464.8 363.8,460.9 	"/>
	<polygon class="st12" points="365.9,483.4 365.9,492.2 358.4,487.9 358.4,479.1 	"/>
	<polygon class="st20" points="365.9,483.4 365.9,492.2 374,487.6 374,478.8 	"/>
	<polygon class="st47" points="363.5,523.2 363.5,524.2 358.2,521.1 358.2,520 	"/>
	<polygon class="st46" points="358.2,520 363.5,523.2 368.9,520 363.5,516.9 	"/>
	<polygon class="st45" points="363.5,523.2 363.5,524.2 368.9,521.1 368.9,520 	"/>
	<polygon class="st47" points="363.5,514 363.5,520.7 362.3,520 362.3,513.3 	"/>
	<polygon class="st49" points="362.3,513.3 363.5,514 364.7,513.3 363.5,512.6 	"/>
	<polygon class="st45" points="363.5,514 363.5,520.7 364.7,520 364.7,513.3 	"/>
	<polygon class="st47" points="363.5,509.1 363.5,516.9 356,512.5 356,504.7 	"/>
	<polygon class="st47" points="356,504.7 363.5,509.1 371.1,504.7 363.5,500.3 	"/>
	<polygon class="st45" points="363.5,509.1 363.5,516.9 371.1,512.5 371.1,504.7 	"/>
	<path class="st46" d="M363.5,500.3l-7.6,4.4l7.6,4.4l7.6-4.4L363.5,500.3z M363.5,508.2l-6-3.5l6-3.5l6,3.5L363.5,508.2z"/>
	<polygon class="st70" points="627.6,351.3 627.6,352.8 644.3,343.1 644.3,341.6 	"/>
	<polygon class="st71" points="627.6,351.3 627.6,352.8 626.2,352 626.2,350.5 	"/>
	<polygon class="st72" points="644.3,341.6 627.6,351.3 626.2,350.5 643,340.9 	"/>
	<polygon class="st70" points="614,348 614,349.5 630.7,340 630.7,338.4 	"/>
	<polygon class="st71" points="614,348 614,349.5 612.7,348.8 612.7,347.3 	"/>
	<polygon class="st72" points="630.7,338.4 614,348 612.7,347.3 629.4,337.6 	"/>
	<polygon class="st73" points="759.5,431.6 759.5,434.1 778.1,423.4 778.1,420.9 	"/>
	<polygon class="st24" points="778.1,420.9 759.5,431.6 733.3,416.4 751.9,405.8 	"/>
	<polygon class="st74" points="759.5,431.6 759.5,434.1 733.3,418.9 733.3,416.4 	"/>
	<polygon class="st73" points="762.9,427.2 762.9,429.6 778.1,420.9 778.1,418.4 	"/>
	<polygon class="st24" points="778.1,418.4 762.9,427.2 736.7,412 751.9,403.3 	"/>
	<polygon class="st74" points="762.9,427.2 762.9,429.6 736.7,414.4 736.7,412 	"/>
	<polygon class="st73" points="602.2,339.2 602.2,341.7 620.8,331 620.8,328.6 	"/>
	<polygon class="st24" points="620.8,328.6 602.2,339.2 575.9,324.1 594.5,313.4 	"/>
	<polygon class="st74" points="602.2,339.2 602.2,341.7 575.9,326.5 575.9,324.1 	"/>
	<polygon class="st73" points="605.5,334.8 605.5,337.3 620.8,328.6 620.8,326.1 	"/>
	<polygon class="st24" points="620.8,326.1 605.5,334.8 579.3,319.6 594.5,310.9 	"/>
	<polygon class="st74" points="605.5,334.8 605.5,337.3 579.3,322.1 579.3,319.6 	"/>
	<polygon class="st9" points="921.9,535.7 921.9,550.3 924.6,548.7 924.6,534.2 	"/>
	<polygon class="st8" points="924.6,534.2 921.9,535.7 844.4,490.9 847.2,489.3 	"/>
	<polygon class="st10" points="921.9,535.7 921.9,550.3 844.4,505 844.4,490.9 	"/>
	<polygon class="st9" points="798.8,464.2 798.8,478.8 801.4,477.3 801.4,462.7 	"/>
	<polygon class="st8" points="801.4,462.7 798.8,464.2 721.3,419.4 724,417.8 	"/>
	<polygon class="st10" points="798.8,464.2 798.8,478.8 721.3,433.5 721.3,419.4 	"/>
	<polygon class="st12" points="897.4,531.6 897.4,534.1 899.2,533 899.2,530.5 	"/>
	<polygon class="st28" points="899.2,530.5 897.4,531.6 865.2,513.3 867.1,512.2 	"/>
	<polygon class="st20" points="897.4,531.6 897.4,534.1 865.2,515.5 865.2,513.3 	"/>
	<polygon class="st12" points="773.9,459.7 773.9,462.2 775.7,461.1 775.7,458.7 	"/>
	<polygon class="st28" points="775.7,458.7 773.9,459.7 741.8,441.5 743.7,440.4 	"/>
	<polygon class="st20" points="773.9,459.7 773.9,462.2 741.8,443.6 741.8,441.5 	"/>
	<polygon class="st9" points="633.8,367.6 633.8,382.2 636.5,380.6 636.5,366.1 	"/>
	<polygon class="st8" points="636.5,366.1 633.8,367.6 556.3,322.8 559.1,321.2 	"/>
	<polygon class="st10" points="633.8,367.6 633.8,382.2 556.3,336.9 556.3,322.8 	"/>
	<polygon class="st9" points="510.6,296.1 510.6,310.7 513.3,309.2 513.3,294.6 	"/>
	<polygon class="st8" points="513.3,294.6 510.6,296.1 433.1,251.3 435.9,249.7 	"/>
	<polygon class="st10" points="510.6,296.1 510.6,310.7 433.1,265.4 433.1,251.3 	"/>
	<polygon class="st12" points="609.2,363.5 609.2,366 611,364.9 611,362.5 	"/>
	<polygon class="st28" points="611,362.5 609.2,363.5 577.1,345.3 579.1,344.2 	"/>
	<polygon class="st20" points="609.2,363.5 609.2,366 577.1,347.4 577.1,345.3 	"/>
	<polygon class="st12" points="485.8,291.6 485.8,294.1 487.5,293 487.5,290.6 	"/>
	<polygon class="st28" points="487.5,290.6 485.8,291.6 453.6,273.4 455.6,272.3 	"/>
	<polygon class="st20" points="485.8,291.6 485.8,294.1 453.6,275.5 453.6,273.4 	"/>
	<path class="st43" d="M569.5,520.5c-0.1,2.2-2,3.8-4.2,3.7c-2.2-0.1-3.8-2-3.7-4.2c0.1-2.1,1.9-3.7,3.9-3.7
		C567.8,516.4,569.6,518.3,569.5,520.5z"/>
	<path class="st43" d="M600.3,537.7c-0.1,2.2-2,3.8-4.2,3.6s-3.8-2-3.6-4.2c0.1-2.1,1.9-3.7,3.9-3.6
		C598.6,533.5,600.4,535.4,600.3,537.7C600.3,537.6,600.3,537.6,600.3,537.7z"/>
	<path class="st43" d="M704.2,478.4c-0.1,2.2-2,3.8-4.2,3.6c-2.2-0.1-3.8-2-3.6-4.2c0.1-2,1.8-3.6,3.9-3.6
		C702.5,474.3,704.2,476.1,704.2,478.4z"/>
	<polygon class="st10" points="702.9,469.4 596.4,530.8 596.4,536.9 702.9,475.2 	"/>
	<polygon class="st9" points="596.4,530.8 562.2,510.9 562.2,517 596.4,536.9 	"/>
	<polygon class="st8" points="702.9,469.4 668.5,449.5 562.2,510.9 596.4,530.8 	"/>
	<polygon class="st73" points="604,517.3 604,521 576.8,505.3 576.8,501.7 	"/>
	<polygon class="st24" points="576.8,501.7 604,517.3 642.4,495.1 615.2,479.5 	"/>
	<polygon class="st74" points="604,517.3 604,520.9 642.4,498.7 642.4,495.1 	"/>
	<polygon class="st10" points="697.6,396.5 697.6,472.5 702.9,469.5 702.9,393.4 	"/>
	<polygon class="st75" points="702.9,393.4 697.6,396.5 692.5,393.6 697.9,390.5 	"/>
	<polygon class="st9" points="697.6,396.5 697.6,472.5 692.5,469.6 692.5,393.6 	"/>
	<polygon class="st10" points="668.1,380.2 668.1,455.5 673.5,452.4 673.5,377.1 	"/>
	<polygon class="st75" points="673.5,377.1 668.1,380.2 663.2,377.3 668.6,374.2 	"/>
	<polygon class="st9" points="668.1,380.2 668.1,455.5 663.2,452.6 663.2,377.3 	"/>
	<polygon class="st76" points="601.6,452.3 601.6,483.1 572.5,466.1 572.5,435.5 	"/>
	<polygon class="st18" points="572.5,435.5 601.6,452.3 697.6,397 668.5,380 	"/>
	<polygon class="st17" points="601.6,452.3 601.6,483.1 697.6,427.5 697.6,397 	"/>
	<polygon class="st10" points="567.2,438.7 567.2,514 572.5,510.9 572.5,435.5 	"/>
	<polygon class="st75" points="572.5,435.5 567.2,438.7 562.2,435.8 567.6,432.7 	"/>
	<polygon class="st9" points="567.2,438.7 567.2,514 562.2,511.1 562.2,435.8 	"/>
	<polygon class="st10" points="596.3,455.5 596.3,530.8 601.6,527.7 601.6,452.3 	"/>
	<polygon class="st75" points="601.6,452.3 596.3,455.5 591.3,452.6 596.7,449.5 	"/>
	<polygon class="st9" points="596.3,455.5 596.3,530.8 591.3,527.9 591.3,452.6 	"/>
	<polygon class="st10" points="702.9,388.1 596.4,449.5 596.4,455.7 702.9,394 	"/>
	<polygon class="st9" points="596.4,449.5 562.2,429.6 562.2,435.8 596.4,455.7 	"/>
	<polygon class="st8" points="702.9,388.1 668.5,368.3 562.2,429.6 596.4,449.5 	"/>
	<polygon class="st73" points="654.5,409.6 654.5,413.2 627.3,397.5 627.3,393.9 	"/>
	<polygon class="st24" points="627.3,393.9 654.5,409.6 692.9,387.4 665.7,371.6 	"/>
	<polygon class="st74" points="654.5,409.6 654.5,413.1 692.9,390.9 692.9,387.3 	"/>
	<polygon class="st73" points="649.5,403.1 649.5,406.7 627.3,393.9 627.3,390.3 	"/>
	<polygon class="st24" points="627.3,390.3 649.5,403.1 688,380.9 665.7,368.1 	"/>
	<polygon class="st74" points="649.5,403.1 649.5,406.7 688,384.5 688,380.8 	"/>
	<polygon class="st10" points="685.8,406.4 614.2,448.1 614.2,473.6 685.8,432 	"/>
	<path class="st9" d="M614.2,448.1v25.6l71.5-41.6v-25.6L614.2,448.1z M682.8,430.4l-65.7,38.3v-19l65.7-38.4V430.4z"/>
	<polygon class="st12" points="645.5,438.5 645.5,440.5 643.7,439.4 643.7,437.4 	"/>
	<polygon class="st49" points="643.7,437.4 645.5,438.5 658.5,430.7 656.6,429.6 	"/>
	<polygon class="st20" points="645.5,438.5 645.5,440.5 658.5,432.6 658.5,430.7 	"/>
	<polygon class="st45" points="592.7,429.4 592.7,439.6 582.3,433.5 582.3,423.4 	"/>
	<polygon class="st46" points="582.3,423.4 592.7,429.4 602.5,423.7 592,417.8 	"/>
	<polygon class="st47" points="592.7,429.4 592.7,439.6 602.5,433.9 602.5,423.7 	"/>
	<polygon class="st15" points="592.7,433.5 592.7,437.8 582.3,431.7 582.3,427.5 	"/>
	<polygon class="st16" points="592.7,433.5 592.7,437.8 602.5,432.1 602.5,427.9 	"/>
	<path class="st16" d="M587.3,419.9v3.9c0,1,2.4,1.9,5.3,1.9s5.3-0.9,5.3-1.9v-3.9H587.3z"/>
	<path class="st48" d="M597.8,419.9c0,1-2.4,1.9-5.3,1.9s-5.3-0.9-5.3-1.9s2.4-1.9,5.3-1.9S597.8,418.9,597.8,419.9z"/>
	<polygon class="st32" points="614.5,418.5 614.5,428.7 604.1,422.6 604.1,412.4 	"/>
	<polygon class="st31" points="604.1,412.4 614.5,418.5 624.4,412.8 613.8,406.8 	"/>
	<polygon class="st33" points="614.5,418.5 614.5,428.7 624.4,423 624.4,412.8 	"/>
	<polygon class="st77" points="614.5,422.6 614.5,426.8 604.1,420.7 604.1,416.5 	"/>
	<polygon class="st78" points="614.5,422.6 614.5,426.8 624.4,421.1 624.4,417 	"/>
	<path class="st16" d="M609,409v3.9c0,1,2.4,1.9,5.3,1.9s5.3-0.9,5.3-1.9V409H609z"/>
	<path class="st48" d="M619.7,409c0,1-2.4,1.9-5.3,1.9s-5.3-0.9-5.3-1.9s2.4-1.9,5.3-1.9S619.7,407.9,619.7,409z"/>
	<polygon class="st70" points="629.5,422.3 629.5,423.8 646.2,414.2 646.2,412.6 	"/>
	<polygon class="st71" points="629.5,422.3 629.5,423.8 628.2,423 628.2,421.5 	"/>
	<polygon class="st72" points="646.2,412.6 629.5,422.3 628.2,421.5 644.9,411.9 	"/>
	<polygon class="st79" points="438.2,529.2 416.6,541.6 437.5,553.5 458.9,541.1 	"/>
	<g id="barberia1Crema1">
		<polygon class="st17" points="306.3,467.5 306.3,474.8 321.2,466.1 321.2,458.8 		"/>
		
			<linearGradient id="SVGID_2_" gradientUnits="userSpaceOnUse" x1="-844.5925" y1="1029.8448" x2="-870.9125" y2="1042.6649" gradientTransform="matrix(-1 0 0 -1 -547.94 1494)">
			<stop  offset="0" style="stop-color:#A5AD66"/>
			<stop  offset="0.29" style="stop-color:#A1AB67"/>
			<stop  offset="0.59" style="stop-color:#94A469"/>
			<stop  offset="0.91" style="stop-color:#7F9A6C"/>
			<stop  offset="1" style="stop-color:#77966D"/>
		</linearGradient>
		<polygon class="st80" points="321.2,458.8 306.3,467.5 292.3,459.4 307.3,450.9 		"/>
		<polygon class="st19" points="306.3,467.5 306.3,474.8 292.3,466.7 292.3,459.4 		"/>
		<path class="st79" d="M292.3,459.4l14,8.1l15-8.7l-13.9-8L292.3,459.4z M294.6,459.4l12.7-7.2l11.5,6.6l-12.5,7.3L294.6,459.4z"/>
	</g>
</g>
</svg>
