<?xml version="1.0" encoding="utf-8"?>
<!-- Generator: Adobe Illustrator 24.0.0, SVG Export Plug-In . SVG Version: 6.00 Build 0)  -->
<svg version="1.1" id="Matorral1" xmlns="http://www.w3.org/2000/svg" xmlns:xlink="http://www.w3.org/1999/xlink" x="0px" y="0px"
	 viewBox="0 0 93.8 49.8" style="enable-background:new 0 0 93.8 49.8;" xml:space="preserve">
<style type="text/css">
	.st0{fill:#5A8E1C;}
	.st1{fill:#6CA827;}
</style>
<path id="Principal" class="st0" d="M81.2,49.8C88,50,93.6,44.7,93.8,38c0-0.1,0-0.2,0-0.3c0-6.9-5.6-12.5-12.5-12.5
	c-1.8,0-3.6,0.4-5.3,1.2c1.3-3.6-0.6-7.6-4.2-8.9C71,17.1,70.2,17,69.4,17c-1.2,0-2.4,0.3-3.4,0.9C64.1,6.2,53-1.7,41.3,0.3
	c-8.3,1.4-15,7.5-17.2,15.5C15.3,12.1,5,16.4,1.3,25.3C0.4,27.4,0,29.7,0,32c0,9.7,7.8,17.9,17.5,17.9L81.2,49.8z"/>
<path id="Circulo4" class="st1" d="M89.6,35.7c0,3.2-3,5.8-6.6,5.8s-6.6-2.6-6.6-5.8s3-5.7,6.7-5.7S89.6,32.5,89.6,35.7z"/>
<path id="Circulo3" class="st1" d="M67.6,30.7c0,2.5-2.3,4.5-5.1,4.5s-5.1-2-5.1-4.5s2.3-4.5,5.1-4.5C65.3,26.3,67.6,28.3,67.6,30.7
	z"/>
<path id="Circulo2" class="st1" d="M63.1,22c0,7.5-6.6,13.6-14.7,13.6S33.8,29.5,33.8,22S40.3,8.4,48.4,8.4S63.1,14.5,63.1,22z"/>
<path id="Circulo1" class="st1" d="M13.6,24.3c-0.2,1.9-1.9,3.4-3.8,3.2c-1.9,0.1-3.6-1.3-3.8-3.2c0.2-1.9,1.8-3.4,3.8-3.3
	C11.7,20.9,13.4,22.3,13.6,24.3z"/>
</svg>
